<svg xmlns="http://www.w3.org/2000/svg" width="420" height="420" fill="none"><circle cx="210" cy="210" r="210" fill="#000"/><path fill="url(#a)" fill-opacity=".08" fill-rule="evenodd" d="M210 149.073c-33.649 0-60.927 27.278-60.927 60.927s27.278 60.927 60.927 60.927 60.927-27.278 60.927-60.927-27.278-60.927-60.927-60.927M151.722 210c0-32.186 26.092-58.278 58.278-58.278s58.278 26.092 58.278 58.278-26.092 58.278-58.278 58.278-58.278-26.092-58.278-58.278" clip-rule="evenodd"/><path fill="url(#b)" fill-opacity=".08" fill-rule="evenodd" d="M210 139.139c-39.135 0-70.861 31.726-70.861 70.861s31.726 70.861 70.861 70.861 70.861-31.726 70.861-70.861-31.726-70.861-70.861-70.861M141.788 210c0-37.672 30.54-68.212 68.212-68.212s68.212 30.54 68.212 68.212-30.54 68.212-68.212 68.212-68.212-30.54-68.212-68.212" clip-rule="evenodd"/><path fill="url(#c)" fill-opacity=".08" fill-rule="evenodd" d="M129.205 210c0-44.622 36.173-80.795 80.795-80.795s80.795 36.173 80.795 80.795-36.173 80.795-80.795 80.795-80.795-36.173-80.795-80.795M210 131.854c-43.159 0-78.146 34.987-78.146 78.146s34.987 78.146 78.146 78.146 78.146-34.987 78.146-78.146-34.987-78.146-78.146-78.146" clip-rule="evenodd"/><path fill="url(#d)" fill-opacity=".08" fill-rule="evenodd" d="M119.272 210c0-50.108 40.62-90.728 90.728-90.728s90.728 40.62 90.728 90.728-40.62 90.728-90.728 90.728-90.728-40.62-90.728-90.728M210 121.921c-48.645 0-88.079 39.434-88.079 88.079s39.434 88.079 88.079 88.079 88.079-39.434 88.079-88.079-39.434-88.079-88.079-88.079" clip-rule="evenodd"/><path fill="url(#e)" fill-opacity=".08" fill-rule="evenodd" d="M109.338 210c0-55.594 45.068-100.662 100.662-100.662S310.662 154.406 310.662 210 265.594 310.662 210 310.662 109.338 265.594 109.338 210M210 111.987c-54.131 0-98.013 43.882-98.013 98.013s43.882 98.013 98.013 98.013 98.013-43.882 98.013-98.013-43.882-98.013-98.013-98.013" clip-rule="evenodd"/><path fill="url(#f)" fill-opacity=".08" fill-rule="evenodd" d="M210 99.404C148.92 99.404 99.404 148.92 99.404 210S148.92 320.596 210 320.596 320.596 271.081 320.596 210c0-61.08-49.515-110.596-110.596-110.596M102.053 210c0-59.617 48.33-107.947 107.947-107.947S317.947 150.383 317.947 210 269.617 317.947 210 317.947 102.053 269.617 102.053 210" clip-rule="evenodd"/><path fill="url(#g)" fill-opacity=".08" fill-rule="evenodd" d="M89.47 210c0-66.567 53.963-120.53 120.53-120.53S330.53 143.433 330.53 210 276.567 330.53 210 330.53 89.47 276.567 89.47 210M210 92.12c-65.104 0-117.88 52.776-117.88 117.88S144.895 327.881 210 327.881 327.881 275.104 327.881 210 275.104 92.12 210 92.12" clip-rule="evenodd"/><path fill="url(#h)" fill-opacity=".08" fill-rule="evenodd" d="M210 79.536c-72.053 0-130.464 58.411-130.464 130.464S137.947 340.464 210 340.464 340.464 282.053 340.464 210 282.053 79.536 210 79.536M82.185 210c0-70.59 57.225-127.815 127.815-127.815S337.815 139.41 337.815 210 280.59 337.815 210 337.815 82.185 280.59 82.185 210" clip-rule="evenodd"/><path fill="url(#i)" fill-opacity=".08" fill-rule="evenodd" d="M69.603 210c0-77.539 62.858-140.397 140.397-140.397S350.397 132.46 350.397 210 287.539 350.397 210 350.397 69.603 287.539 69.603 210M210 72.252c-76.076 0-137.748 61.672-137.748 137.748S133.924 347.748 210 347.748 347.748 286.076 347.748 210 286.076 72.252 210 72.252" clip-rule="evenodd"/><path fill="url(#j)" fill-opacity=".08" fill-rule="evenodd" d="M210 59.669c-83.026 0-150.331 67.305-150.331 150.331S126.974 360.331 210 360.331 360.331 293.026 360.331 210 293.026 59.669 210 59.669M62.318 210c0-81.563 66.119-147.682 147.682-147.682S357.682 128.437 357.682 210 291.563 357.682 210 357.682 62.318 291.563 62.318 210" clip-rule="evenodd"/><path fill="url(#k)" fill-opacity=".08" fill-rule="evenodd" d="M49.735 210c0-88.512 71.753-160.265 160.265-160.265S370.265 121.488 370.265 210 298.512 370.265 210 370.265 49.735 298.512 49.735 210M210 52.384c-87.049 0-157.616 70.567-157.616 157.616S122.951 367.616 210 367.616 367.616 297.049 367.616 210 297.049 52.384 210 52.384" clip-rule="evenodd"/><path fill="url(#l)" fill-opacity=".08" fill-rule="evenodd" d="M210 39.801c-93.998 0-170.199 76.201-170.199 170.199S116.002 380.199 210 380.199 380.199 303.998 380.199 210 303.998 39.801 210 39.801M42.45 210c0-92.535 75.015-167.55 167.55-167.55S377.55 117.465 377.55 210 302.535 377.55 210 377.55 42.45 302.535 42.45 210" clip-rule="evenodd"/><path fill="url(#m)" fill-opacity=".08" fill-rule="evenodd" d="M29.868 210c0-99.484 80.648-180.132 180.132-180.132S390.132 110.516 390.132 210 309.484 390.132 210 390.132 29.868 309.484 29.868 210M210 32.517c-98.021 0-177.483 79.462-177.483 177.483S111.979 387.483 210 387.483 387.483 308.021 387.483 210 308.021 32.517 210 32.517" clip-rule="evenodd"/><path fill="url(#n)" fill-opacity=".08" fill-rule="evenodd" d="M210 19.934C105.029 19.934 19.934 105.029 19.934 210S105.029 400.066 210 400.066 400.066 314.971 400.066 210 314.971 19.934 210 19.934M22.583 210c0-103.508 83.909-187.417 187.417-187.417S397.417 106.492 397.417 210 313.508 397.417 210 397.417 22.583 313.508 22.583 210" clip-rule="evenodd"/><path fill="url(#o)" fill-opacity=".08" fill-rule="evenodd" d="M10 210C10 99.543 99.543 10 210 10s200 89.543 200 200-89.543 200-200 200S10 320.457 10 210M210 12.649C101.006 12.649 12.649 101.006 12.649 210S101.006 407.351 210 407.351 407.351 318.994 407.351 210 318.994 12.649 210 12.649" clip-rule="evenodd"/><defs><radialGradient id="a" cx="0" cy="0" r="1" gradientTransform="rotate(90 0 210)scale(200)" gradientUnits="userSpaceOnUse"><stop stop-color="#fff"/><stop offset="1" stop-color="#999"/></radialGradient><radialGradient id="b" cx="0" cy="0" r="1" gradientTransform="rotate(90 0 210)scale(200)" gradientUnits="userSpaceOnUse"><stop stop-color="#fff"/><stop offset="1" stop-color="#999"/></radialGradient><radialGradient id="c" cx="0" cy="0" r="1" gradientTransform="rotate(90 0 210)scale(200)" gradientUnits="userSpaceOnUse"><stop stop-color="#fff"/><stop offset="1" stop-color="#999"/></radialGradient><radialGradient id="d" cx="0" cy="0" r="1" gradientTransform="rotate(90 0 210)scale(200)" gradientUnits="userSpaceOnUse"><stop stop-color="#fff"/><stop offset="1" stop-color="#999"/></radialGradient><radialGradient id="e" cx="0" cy="0" r="1" gradientTransform="rotate(90 0 210)scale(200)" gradientUnits="userSpaceOnUse"><stop stop-color="#fff"/><stop offset="1" stop-color="#999"/></radialGradient><radialGradient id="f" cx="0" cy="0" r="1" gradientTransform="rotate(90 0 210)scale(200)" gradientUnits="userSpaceOnUse"><stop stop-color="#fff"/><stop offset="1" stop-color="#999"/></radialGradient><radialGradient id="g" cx="0" cy="0" r="1" gradientTransform="rotate(90 0 210)scale(200)" gradientUnits="userSpaceOnUse"><stop stop-color="#fff"/><stop offset="1" stop-color="#999"/></radialGradient><radialGradient id="h" cx="0" cy="0" r="1" gradientTransform="rotate(90 0 210)scale(200)" gradientUnits="userSpaceOnUse"><stop stop-color="#fff"/><stop offset="1" stop-color="#999"/></radialGradient><radialGradient id="i" cx="0" cy="0" r="1" gradientTransform="rotate(90 0 210)scale(200)" gradientUnits="userSpaceOnUse"><stop stop-color="#fff"/><stop offset="1" stop-color="#999"/></radialGradient><radialGradient id="j" cx="0" cy="0" r="1" gradientTransform="rotate(90 0 210)scale(200)" gradientUnits="userSpaceOnUse"><stop stop-color="#fff"/><stop offset="1" stop-color="#999"/></radialGradient><radialGradient id="k" cx="0" cy="0" r="1" gradientTransform="rotate(90 0 210)scale(200)" gradientUnits="userSpaceOnUse"><stop stop-color="#fff"/><stop offset="1" stop-color="#999"/></radialGradient><radialGradient id="l" cx="0" cy="0" r="1" gradientTransform="rotate(90 0 210)scale(200)" gradientUnits="userSpaceOnUse"><stop stop-color="#fff"/><stop offset="1" stop-color="#999"/></radialGradient><radialGradient id="m" cx="0" cy="0" r="1" gradientTransform="rotate(90 0 210)scale(200)" gradientUnits="userSpaceOnUse"><stop stop-color="#fff"/><stop offset="1" stop-color="#999"/></radialGradient><radialGradient id="n" cx="0" cy="0" r="1" gradientTransform="rotate(90 0 210)scale(200)" gradientUnits="userSpaceOnUse"><stop stop-color="#fff"/><stop offset="1" stop-color="#999"/></radialGradient><radialGradient id="o" cx="0" cy="0" r="1" gradientTransform="rotate(90 0 210)scale(200)" gradientUnits="userSpaceOnUse"><stop stop-color="#fff"/><stop offset="1" stop-color="#999"/></radialGradient></defs></svg>