<svg width="462" height="462" viewBox="0 0 462 462" fill="none" xmlns="http://www.w3.org/2000/svg">
<g filter="url(#filter0_d_437_4908)">
<circle cx="231" cy="231" r="210" fill="black"/>
</g>
<path fill-rule="evenodd" clip-rule="evenodd" d="M231 170.073C197.351 170.073 170.073 197.351 170.073 231C170.073 264.649 197.351 291.927 231 291.927C264.649 291.927 291.927 264.649 291.927 231C291.927 197.351 264.649 170.073 231 170.073ZM172.722 231C172.722 198.814 198.814 172.722 231 172.722C263.186 172.722 289.278 198.814 289.278 231C289.278 263.186 263.186 289.278 231 289.278C198.814 289.278 172.722 263.186 172.722 231Z" fill="url(#paint0_radial_437_4908)" fill-opacity="0.08"/>
<path fill-rule="evenodd" clip-rule="evenodd" d="M231 160.139C191.865 160.139 160.139 191.865 160.139 231C160.139 270.135 191.865 301.861 231 301.861C270.135 301.861 301.861 270.135 301.861 231C301.861 191.865 270.135 160.139 231 160.139ZM162.788 231C162.788 193.328 193.328 162.788 231 162.788C268.672 162.788 299.212 193.328 299.212 231C299.212 268.672 268.672 299.212 231 299.212C193.328 299.212 162.788 268.672 162.788 231Z" fill="url(#paint1_radial_437_4908)" fill-opacity="0.08"/>
<path fill-rule="evenodd" clip-rule="evenodd" d="M150.205 231C150.205 186.378 186.378 150.205 231 150.205C275.622 150.205 311.795 186.378 311.795 231C311.795 275.622 275.622 311.795 231 311.795C186.378 311.795 150.205 275.622 150.205 231ZM231 152.854C187.841 152.854 152.854 187.841 152.854 231C152.854 274.159 187.841 309.146 231 309.146C274.159 309.146 309.146 274.159 309.146 231C309.146 187.841 274.159 152.854 231 152.854Z" fill="url(#paint2_radial_437_4908)" fill-opacity="0.08"/>
<path fill-rule="evenodd" clip-rule="evenodd" d="M140.272 231C140.272 180.892 180.892 140.272 231 140.272C281.108 140.272 321.728 180.892 321.728 231C321.728 281.108 281.108 321.728 231 321.728C180.892 321.728 140.272 281.108 140.272 231ZM231 142.921C182.355 142.921 142.921 182.355 142.921 231C142.921 279.645 182.355 319.079 231 319.079C279.645 319.079 319.079 279.645 319.079 231C319.079 182.355 279.645 142.921 231 142.921Z" fill="url(#paint3_radial_437_4908)" fill-opacity="0.08"/>
<path fill-rule="evenodd" clip-rule="evenodd" d="M130.338 231C130.338 175.406 175.406 130.338 231 130.338C286.594 130.338 331.662 175.406 331.662 231C331.662 286.594 286.594 331.662 231 331.662C175.406 331.662 130.338 286.594 130.338 231ZM231 132.987C176.869 132.987 132.987 176.869 132.987 231C132.987 285.131 176.869 329.013 231 329.013C285.131 329.013 329.013 285.131 329.013 231C329.013 176.869 285.131 132.987 231 132.987Z" fill="url(#paint4_radial_437_4908)" fill-opacity="0.08"/>
<path fill-rule="evenodd" clip-rule="evenodd" d="M231 120.404C169.92 120.404 120.404 169.92 120.404 231C120.404 292.081 169.92 341.596 231 341.596C292.081 341.596 341.596 292.081 341.596 231C341.596 169.92 292.081 120.404 231 120.404ZM123.053 231C123.053 171.383 171.383 123.053 231 123.053C290.617 123.053 338.947 171.383 338.947 231C338.947 290.617 290.617 338.947 231 338.947C171.383 338.947 123.053 290.617 123.053 231Z" fill="url(#paint5_radial_437_4908)" fill-opacity="0.08"/>
<path fill-rule="evenodd" clip-rule="evenodd" d="M110.47 231C110.47 164.433 164.433 110.47 231 110.47C297.567 110.47 351.53 164.433 351.53 231C351.53 297.567 297.567 351.53 231 351.53C164.433 351.53 110.47 297.567 110.47 231ZM231 113.119C165.896 113.119 113.119 165.896 113.119 231C113.119 296.104 165.896 348.881 231 348.881C296.104 348.881 348.881 296.104 348.881 231C348.881 165.896 296.104 113.119 231 113.119Z" fill="url(#paint6_radial_437_4908)" fill-opacity="0.08"/>
<path fill-rule="evenodd" clip-rule="evenodd" d="M231 100.536C158.947 100.536 100.536 158.947 100.536 231C100.536 303.053 158.947 361.464 231 361.464C303.053 361.464 361.464 303.053 361.464 231C361.464 158.947 303.053 100.536 231 100.536ZM103.185 231C103.185 160.41 160.41 103.185 231 103.185C301.59 103.185 358.815 160.41 358.815 231C358.815 301.59 301.59 358.815 231 358.815C160.41 358.815 103.185 301.59 103.185 231Z" fill="url(#paint7_radial_437_4908)" fill-opacity="0.08"/>
<path fill-rule="evenodd" clip-rule="evenodd" d="M90.6026 231C90.6026 153.461 153.461 90.6026 231 90.6026C308.539 90.6026 371.397 153.461 371.397 231C371.397 308.539 308.539 371.397 231 371.397C153.461 371.397 90.6026 308.539 90.6026 231ZM231 93.2517C154.924 93.2517 93.2517 154.924 93.2517 231C93.2517 307.076 154.924 368.748 231 368.748C307.076 368.748 368.748 307.076 368.748 231C368.748 154.924 307.076 93.2517 231 93.2517Z" fill="url(#paint8_radial_437_4908)" fill-opacity="0.08"/>
<path fill-rule="evenodd" clip-rule="evenodd" d="M231 80.6689C147.974 80.6689 80.6689 147.974 80.6689 231C80.6689 314.026 147.974 381.331 231 381.331C314.026 381.331 381.331 314.026 381.331 231C381.331 147.974 314.026 80.6689 231 80.6689ZM83.3179 231C83.3179 149.437 149.437 83.3179 231 83.3179C312.563 83.3179 378.682 149.437 378.682 231C378.682 312.563 312.563 378.682 231 378.682C149.437 378.682 83.3179 312.563 83.3179 231Z" fill="url(#paint9_radial_437_4908)" fill-opacity="0.08"/>
<path fill-rule="evenodd" clip-rule="evenodd" d="M70.7351 231C70.7351 142.488 142.488 70.7351 231 70.7351C319.512 70.7351 391.265 142.488 391.265 231C391.265 319.512 319.512 391.265 231 391.265C142.488 391.265 70.7351 319.512 70.7351 231ZM231 73.3841C143.951 73.3841 73.3841 143.951 73.3841 231C73.3841 318.049 143.951 388.616 231 388.616C318.049 388.616 388.616 318.049 388.616 231C388.616 143.951 318.049 73.3841 231 73.3841Z" fill="url(#paint10_radial_437_4908)" fill-opacity="0.08"/>
<path fill-rule="evenodd" clip-rule="evenodd" d="M231 60.8013C137.002 60.8013 60.8013 137.002 60.8013 231C60.8013 324.998 137.002 401.199 231 401.199C324.998 401.199 401.199 324.998 401.199 231C401.199 137.002 324.998 60.8013 231 60.8013ZM63.4503 231C63.4503 138.465 138.465 63.4503 231 63.4503C323.535 63.4503 398.55 138.465 398.55 231C398.55 323.535 323.535 398.55 231 398.55C138.465 398.55 63.4503 323.535 63.4503 231Z" fill="url(#paint11_radial_437_4908)" fill-opacity="0.08"/>
<path fill-rule="evenodd" clip-rule="evenodd" d="M50.8675 231C50.8675 131.516 131.516 50.8675 231 50.8675C330.484 50.8675 411.132 131.516 411.132 231C411.132 330.484 330.484 411.132 231 411.132C131.516 411.132 50.8675 330.484 50.8675 231ZM231 53.5166C132.979 53.5166 53.5166 132.979 53.5166 231C53.5166 329.021 132.979 408.483 231 408.483C329.021 408.483 408.483 329.021 408.483 231C408.483 132.979 329.021 53.5166 231 53.5166Z" fill="url(#paint12_radial_437_4908)" fill-opacity="0.08"/>
<path fill-rule="evenodd" clip-rule="evenodd" d="M231 40.9338C126.029 40.9338 40.9338 126.029 40.9338 231C40.9338 335.971 126.029 421.066 231 421.066C335.971 421.066 421.066 335.971 421.066 231C421.066 126.029 335.971 40.9338 231 40.9338ZM43.5828 231C43.5828 127.492 127.492 43.5828 231 43.5828C334.508 43.5828 418.417 127.492 418.417 231C418.417 334.508 334.508 418.417 231 418.417C127.492 418.417 43.5828 334.508 43.5828 231Z" fill="url(#paint13_radial_437_4908)" fill-opacity="0.08"/>
<path fill-rule="evenodd" clip-rule="evenodd" d="M31 231C31 120.543 120.543 31 231 31C341.457 31 431 120.543 431 231C431 341.457 341.457 431 231 431C120.543 431 31 341.457 31 231ZM231 33.649C122.006 33.649 33.649 122.006 33.649 231C33.649 339.994 122.006 428.351 231 428.351C339.994 428.351 428.351 339.994 428.351 231C428.351 122.006 339.994 33.649 231 33.649Z" fill="url(#paint14_radial_437_4908)" fill-opacity="0.08"/>
<defs>
<filter id="filter0_d_437_4908" x="0.149728" y="0.149728" width="461.701" height="461.701" filterUnits="userSpaceOnUse" color-interpolation-filters="sRGB">
<feFlood flood-opacity="0" result="BackgroundImageFix"/>
<feColorMatrix in="SourceAlpha" type="matrix" values="0 0 0 0 0 0 0 0 0 0 0 0 0 0 0 0 0 0 127 0" result="hardAlpha"/>
<feMorphology radius="5.95722" operator="dilate" in="SourceAlpha" result="effect1_dropShadow_437_4908"/>
<feOffset/>
<feGaussianBlur stdDeviation="7.44653"/>
<feComposite in2="hardAlpha" operator="out"/>
<feColorMatrix type="matrix" values="0 0 0 0 0 0 0 0 0 0 0 0 0 0 0 0 0 0 1 0"/>
<feBlend mode="normal" in2="BackgroundImageFix" result="effect1_dropShadow_437_4908"/>
<feBlend mode="normal" in="SourceGraphic" in2="effect1_dropShadow_437_4908" result="shape"/>
</filter>
<radialGradient id="paint0_radial_437_4908" cx="0" cy="0" r="1" gradientUnits="userSpaceOnUse" gradientTransform="translate(231 231) rotate(90) scale(200)">
<stop stop-color="white"/>
<stop offset="1" stop-color="#999999"/>
</radialGradient>
<radialGradient id="paint1_radial_437_4908" cx="0" cy="0" r="1" gradientUnits="userSpaceOnUse" gradientTransform="translate(231 231) rotate(90) scale(200)">
<stop stop-color="white"/>
<stop offset="1" stop-color="#999999"/>
</radialGradient>
<radialGradient id="paint2_radial_437_4908" cx="0" cy="0" r="1" gradientUnits="userSpaceOnUse" gradientTransform="translate(231 231) rotate(90) scale(200)">
<stop stop-color="white"/>
<stop offset="1" stop-color="#999999"/>
</radialGradient>
<radialGradient id="paint3_radial_437_4908" cx="0" cy="0" r="1" gradientUnits="userSpaceOnUse" gradientTransform="translate(231 231) rotate(90) scale(200)">
<stop stop-color="white"/>
<stop offset="1" stop-color="#999999"/>
</radialGradient>
<radialGradient id="paint4_radial_437_4908" cx="0" cy="0" r="1" gradientUnits="userSpaceOnUse" gradientTransform="translate(231 231) rotate(90) scale(200)">
<stop stop-color="white"/>
<stop offset="1" stop-color="#999999"/>
</radialGradient>
<radialGradient id="paint5_radial_437_4908" cx="0" cy="0" r="1" gradientUnits="userSpaceOnUse" gradientTransform="translate(231 231) rotate(90) scale(200)">
<stop stop-color="white"/>
<stop offset="1" stop-color="#999999"/>
</radialGradient>
<radialGradient id="paint6_radial_437_4908" cx="0" cy="0" r="1" gradientUnits="userSpaceOnUse" gradientTransform="translate(231 231) rotate(90) scale(200)">
<stop stop-color="white"/>
<stop offset="1" stop-color="#999999"/>
</radialGradient>
<radialGradient id="paint7_radial_437_4908" cx="0" cy="0" r="1" gradientUnits="userSpaceOnUse" gradientTransform="translate(231 231) rotate(90) scale(200)">
<stop stop-color="white"/>
<stop offset="1" stop-color="#999999"/>
</radialGradient>
<radialGradient id="paint8_radial_437_4908" cx="0" cy="0" r="1" gradientUnits="userSpaceOnUse" gradientTransform="translate(231 231) rotate(90) scale(200)">
<stop stop-color="white"/>
<stop offset="1" stop-color="#999999"/>
</radialGradient>
<radialGradient id="paint9_radial_437_4908" cx="0" cy="0" r="1" gradientUnits="userSpaceOnUse" gradientTransform="translate(231 231) rotate(90) scale(200)">
<stop stop-color="white"/>
<stop offset="1" stop-color="#999999"/>
</radialGradient>
<radialGradient id="paint10_radial_437_4908" cx="0" cy="0" r="1" gradientUnits="userSpaceOnUse" gradientTransform="translate(231 231) rotate(90) scale(200)">
<stop stop-color="white"/>
<stop offset="1" stop-color="#999999"/>
</radialGradient>
<radialGradient id="paint11_radial_437_4908" cx="0" cy="0" r="1" gradientUnits="userSpaceOnUse" gradientTransform="translate(231 231) rotate(90) scale(200)">
<stop stop-color="white"/>
<stop offset="1" stop-color="#999999"/>
</radialGradient>
<radialGradient id="paint12_radial_437_4908" cx="0" cy="0" r="1" gradientUnits="userSpaceOnUse" gradientTransform="translate(231 231) rotate(90) scale(200)">
<stop stop-color="white"/>
<stop offset="1" stop-color="#999999"/>
</radialGradient>
<radialGradient id="paint13_radial_437_4908" cx="0" cy="0" r="1" gradientUnits="userSpaceOnUse" gradientTransform="translate(231 231) rotate(90) scale(200)">
<stop stop-color="white"/>
<stop offset="1" stop-color="#999999"/>
</radialGradient>
<radialGradient id="paint14_radial_437_4908" cx="0" cy="0" r="1" gradientUnits="userSpaceOnUse" gradientTransform="translate(231 231) rotate(90) scale(200)">
<stop stop-color="white"/>
<stop offset="1" stop-color="#999999"/>
</radialGradient>
</defs>
</svg>
