<svg xmlns="http://www.w3.org/2000/svg" width="57" height="42" fill="none"><mask id="c" fill="#fff"><path fill-rule="evenodd" d="M43.71 16.448h1.774V0H43.71zm7.32-.002h5.46v-1.55h-5.263c-1.382 0-2.072-.763-2.072-2.14v-1.722h7.572V7.542c0-2.288-1.38-3.64-3.626-3.64H51.03c-2.27 0-3.65 1.352-3.65 3.64v5.263c0 2.288 1.38 3.64 3.65 3.64m3.946-6.715h-5.821V7.59c0-1.378.69-2.115 2.072-2.115h1.677c1.381 0 2.072.737 2.072 2.115zM37.4 15.802h-1.381c-2.245 0-3.553-1.355-3.553-3.646V7.548c0-2.291 1.382-3.647 3.651-3.647h5.698v12.567c0 2.266-1.381 3.646-3.65 3.646h-4.91v-1.601h4.688c1.406 0 2.072-.74 2.072-2.12v-.59zm2.615-1.577V5.478h-3.676c-1.406 0-2.072.764-2.072 2.144v4.46c0 1.404.666 2.143 2.072 2.143zm-15.238 1.577h3.996v.592c0 1.38-.666 2.119-2.072 2.119h-4.687v1.601h4.909c2.27 0 3.65-1.38 3.65-3.646V3.9h-5.697c-2.27 0-3.651 1.356-3.651 3.647v4.608c0 2.291 1.307 3.646 3.552 3.646m3.996-10.324v8.747h-3.675c-1.406 0-2.072-.739-2.072-2.143v-4.46c0-1.38.666-2.144 2.072-2.144zM15.665 16.446h-2.132c-2.28 0-3.668-1.353-3.668-3.64V7.541c0-2.288 1.388-3.64 3.668-3.64h2.132c2.28 0 3.668 1.352 3.668 3.64v5.263c0 2.288-1.388 3.64-3.668 3.64m-1.933-1.575h1.734c1.388 0 2.082-.738 2.082-2.115V7.591c0-1.378-.694-2.115-2.082-2.115h-1.734c-1.388 0-2.082.737-2.082 2.115v5.165c0 1.377.694 2.115 2.082 2.115M3 1.064v11.812c0 2.276 1.493 3.573 3.758 3.573h1.567v-1.567H6.982c-1.394 0-2.19-.71-2.19-2.08v-7.36h3.06V3.905H4.775v-2.84zM53.184 36.33h-4.858v-1.525h4.61c1.264 0 1.933-.443 1.933-1.427v-.467c0-.787-.322-1.427-1.264-1.796l-2.925-1.23c-1.66-.688-2.354-1.5-2.354-3.074 0-1.943.991-3.025 3.346-3.025h5.056v1.525h-4.734c-1.289 0-1.81.64-1.81 1.23v.418c0 .836.57 1.254 1.413 1.574l2.925 1.303c1.834.714 2.206 1.845 2.206 3.395 0 2.14-1.14 3.099-3.544 3.099m-16.22 3.668h1.809V36.39h4.114c2.255 0 3.544-1.36 3.544-3.658v-5.289c0-2.298-1.29-3.657-3.544-3.657h-5.924zm5.576-5.19h-3.767v-9.44h3.767c1.412 0 2.106.766 2.106 2.15v5.14c0 1.384-.694 2.15-2.106 2.15m-15.128 5.19h-1.81V23.786h5.924c2.255 0 3.544 1.359 3.544 3.657v5.29c0 2.298-1.289 3.657-3.544 3.657h-4.114zm0-5.19h3.767c1.412 0 2.106-.766 2.106-2.15v-5.14c0-1.384-.694-2.15-2.106-2.15h-3.767zM9.308 23.786C5.824 23.786 3 26.594 3 30.058s2.824 6.272 6.308 6.272H23.71v-6.036c0-3.594-2.931-6.508-6.546-6.508zm4.46 6.27a4.497 4.497 0 1 1-8.993 0 4.497 4.497 0 0 1 8.994 0" clip-rule="evenodd"/></mask><g filter="url(#a)"><path fill="url(#b)" fill-rule="evenodd" d="M43.71 16.448h1.774V0H43.71zm7.32-.002h5.46v-1.55h-5.263c-1.382 0-2.072-.763-2.072-2.14v-1.722h7.572V7.542c0-2.288-1.38-3.64-3.626-3.64H51.03c-2.27 0-3.65 1.352-3.65 3.64v5.263c0 2.288 1.38 3.64 3.65 3.64m3.946-6.715h-5.821V7.59c0-1.378.69-2.115 2.072-2.115h1.677c1.381 0 2.072.737 2.072 2.115zM37.4 15.802h-1.381c-2.245 0-3.553-1.355-3.553-3.646V7.548c0-2.291 1.382-3.647 3.651-3.647h5.698v12.567c0 2.266-1.381 3.646-3.65 3.646h-4.91v-1.601h4.688c1.406 0 2.072-.74 2.072-2.12v-.59zm2.615-1.577V5.478h-3.676c-1.406 0-2.072.764-2.072 2.144v4.46c0 1.404.666 2.143 2.072 2.143zm-15.238 1.577h3.996v.592c0 1.38-.666 2.119-2.072 2.119h-4.687v1.601h4.909c2.27 0 3.65-1.38 3.65-3.646V3.9h-5.697c-2.27 0-3.651 1.356-3.651 3.647v4.608c0 2.291 1.307 3.646 3.552 3.646m3.996-10.324v8.747h-3.675c-1.406 0-2.072-.739-2.072-2.143v-4.46c0-1.38.666-2.144 2.072-2.144zM15.665 16.446h-2.132c-2.28 0-3.668-1.353-3.668-3.64V7.541c0-2.288 1.388-3.64 3.668-3.64h2.132c2.28 0 3.668 1.352 3.668 3.64v5.263c0 2.288-1.388 3.64-3.668 3.64m-1.933-1.575h1.734c1.388 0 2.082-.738 2.082-2.115V7.591c0-1.378-.694-2.115-2.082-2.115h-1.734c-1.388 0-2.082.737-2.082 2.115v5.165c0 1.377.694 2.115 2.082 2.115M3 1.064v11.812c0 2.276 1.493 3.573 3.758 3.573h1.567v-1.567H6.982c-1.394 0-2.19-.71-2.19-2.08v-7.36h3.06V3.905H4.775v-2.84zM53.184 36.33h-4.858v-1.525h4.61c1.264 0 1.933-.443 1.933-1.427v-.467c0-.787-.322-1.427-1.264-1.796l-2.925-1.23c-1.66-.688-2.354-1.5-2.354-3.074 0-1.943.991-3.025 3.346-3.025h5.056v1.525h-4.734c-1.289 0-1.81.64-1.81 1.23v.418c0 .836.57 1.254 1.413 1.574l2.925 1.303c1.834.714 2.206 1.845 2.206 3.395 0 2.14-1.14 3.099-3.544 3.099m-16.22 3.668h1.809V36.39h4.114c2.255 0 3.544-1.36 3.544-3.658v-5.289c0-2.298-1.29-3.657-3.544-3.657h-5.924zm5.576-5.19h-3.767v-9.44h3.767c1.412 0 2.106.766 2.106 2.15v5.14c0 1.384-.694 2.15-2.106 2.15m-15.128 5.19h-1.81V23.786h5.924c2.255 0 3.544 1.359 3.544 3.657v5.29c0 2.298-1.289 3.657-3.544 3.657h-4.114zm0-5.19h3.767c1.412 0 2.106-.766 2.106-2.15v-5.14c0-1.384-.694-2.15-2.106-2.15h-3.767zM9.308 23.786C5.824 23.786 3 26.594 3 30.058s2.824 6.272 6.308 6.272H23.71v-6.036c0-3.594-2.931-6.508-6.546-6.508zm4.46 6.27a4.497 4.497 0 1 1-8.993 0 4.497 4.497 0 0 1 8.994 0" clip-rule="evenodd"/></g><path fill="#fff" fill-opacity=".2" d="M2.905 3.511v2.007h.19V3.511zm42.58 12.937v.19h.189v-.19zm-1.776 0h-.189v.19h.19zM45.484 0h.19v-.19h-.19zM43.71 0v-.19h-.189V0zm12.782 16.446v.189h.189v-.19zm0-1.55h.189v-.19h-.19zm-7.337-3.862v-.189h-.189v.19zm7.573 0v.19h.19v-.19zm-7.572-1.303h-.19v.189h.19zm5.821 0v.189h.19v-.19zM41.816 3.9h.189v-.189h-.19zm-8.56 16.213h-.19v.19h.19zm0-1.601v-.19h-.19v.19zm6.759-2.71h.189v-.19h-.19zm0-10.325h.189V5.29h-.19zm0 8.747v.19h.189v-.19zm-11.242 1.577h.19v-.189h-.19zm-6.759 2.71v-.189h-.189v.19zm0 1.602h-.189v.19h.19zM30.574 3.9h.189v-.189h-.19zm-1.801 10.324v.19h.19v-.19zm0-8.747h.19V5.29h-.19zM3 1.064V.875h-.19v.19zM8.325 16.45v.189h.19v-.19zm0-1.567h.19v-.189h-.19zm-3.533-2.08h-.19zm0-7.36v-.188h-.19v.189zm3.06 0v.19h.19v-.19zm0-1.538h.19v-.189h-.19zm-3.077 0h-.189v.19h.19zm0-2.84h.19v-.19h-.19zm43.55 35.266h-.189v.189h.19zm0-1.525v-.19h-.189v.19zm5.28-3.69-.073.175.004.002zm-2.925-1.23.074-.174h-.001zm6.048-6.1h.189v-.189h-.19zm0 1.526v.189h.189v-.19zm-5.13 3.222.076-.173-.01-.004zm2.924 1.303-.077.173.008.004zm-15.75 10.162v.19h.19v-.19zm-1.809 0h-.189v.19h.19zm1.81-3.608v-.19h-.19v.19zm-.348-12.604v.189zm-1.462 0v-.19h-.189v.19zm1.81 11.022h-.19v.19h.19zm0-9.44v-.19h-.19v.19zm-13.17 14.63h-.19v.19h.19zm1.809 0v.19h.189v-.19zm-1.81-16.212v-.19h-.189v.19zm1.463 0v.189zm.347 12.604v-.19h-.19v.19zm0-1.582h-.19v.19h.19zm0-9.44v-.19h-.19v.19zM23.71 36.33v.189h.189v-.19zm21.774-20.071H43.71v.378h1.775zM45.296 0v16.448h.379V0zm0 0h.379zM43.71.19h1.775v-.38H43.71zm.19 16.258V0h-.379v16.448zm12.592-.192H51.03v.379h5.462zm-.19-1.36v1.55h.379v-1.55zm-5.074.19h5.264v-.38h-5.264zm-2.262-2.33c0 .718.18 1.307.57 1.717.392.411.967.612 1.692.612v-.378c-.657 0-1.118-.18-1.417-.495-.301-.316-.466-.796-.466-1.456zm0-1.722v1.722h.379v-1.722zm7.762-.189h-7.572v.378h7.572zm-.189-3.303v3.492h.379V7.542zM53.101 4.09c1.085 0 1.939.326 2.522.907.582.58.915 1.438.915 2.544h.379c0-1.182-.358-2.145-1.027-2.812-.67-.667-1.628-1.018-2.789-1.018zm-2.072 0h2.072v-.379H51.03zm-3.461 3.45c0-1.105.333-1.962.918-2.543.586-.581 1.446-.907 2.543-.907v-.379c-1.172 0-2.137.35-2.81 1.017-.672.668-1.03 1.63-1.03 2.813zm0 5.264V7.542h-.379v5.263zm3.461 3.451c-1.097 0-1.957-.326-2.543-.907-.585-.58-.918-1.438-.918-2.544h-.379c0 1.182.358 2.145 1.03 2.813.673.667 1.638 1.017 2.81 1.017zM49.154 9.92h5.822v-.378h-5.821zm-.189-2.33v2.14h.379V7.59zm2.262-2.304c-.723 0-1.298.194-1.69.6-.392.403-.572.987-.572 1.705h.379c0-.66.165-1.133.464-1.443.299-.308.76-.483 1.419-.483zm1.677 0h-1.677v.379h1.677zm2.261 2.305c0-.718-.18-1.302-.571-1.706-.392-.405-.967-.599-1.69-.599v.379c.658 0 1.12.175 1.418.483.3.31.465.783.465 1.443zm0 2.14V7.59h-.378v2.14zM36.02 15.99h1.38v-.378h-1.38zm-3.742-3.835c0 1.18.338 2.145.988 2.814.651.67 1.593 1.021 2.754 1.021v-.378c-1.084 0-1.919-.326-2.483-.907-.564-.58-.88-1.44-.88-2.55zm0-4.608v4.608h.379V7.548zm3.84-3.836c-1.172 0-2.137.35-2.81 1.02-.672.668-1.03 1.632-1.03 2.816h.379c0-1.107.333-1.966.918-2.548.586-.583 1.446-.91 2.543-.91zm5.698 0h-5.698v.379h5.698zm.19 12.756V3.9h-.379v12.567zm-3.84 3.835c1.173 0 2.138-.357 2.81-1.028s1.03-1.635 1.03-2.807h-.379c0 1.094-.333 1.954-.919 2.54-.586.585-1.446.917-2.542.917zm-4.91 0h4.91v-.378h-4.91zm-.188-1.79v1.601h.378v-1.601zm4.876-.19h-4.687v.379h4.687zm1.883-1.93c0 .663-.16 1.137-.457 1.447-.294.307-.755.483-1.426.483v.379c.734 0 1.31-.194 1.7-.6.388-.406.56-.99.56-1.708zm0-.59v.59h.378v-.59zm-2.426.188h2.615v-.378H37.4zm2.425-10.513v8.747h.379V5.478zm-3.486.19h3.676v-.379H36.34zm-1.883 1.954c0-.662.16-1.144.458-1.46.295-.313.755-.495 1.425-.495V5.29c-.736 0-1.312.2-1.7.614-.388.411-.561 1.002-.561 1.719zm0 4.46v-4.46h-.378v4.46zm1.883 1.954c-.671 0-1.131-.176-1.426-.486-.296-.312-.457-.793-.457-1.468h-.378c0 .729.173 1.32.56 1.728.39.41.967.604 1.701.604zm3.676 0H36.34v.379h3.676zm-13.857 1.577h-1.381v.379h1.381zm2.615 0h-2.615v.379h2.615zm.19.78v-.59h-.38v.59zM26.7 18.703c.735 0 1.31-.194 1.7-.6.388-.406.561-.99.561-1.708h-.378c0 .662-.16 1.137-.456 1.446-.295.307-.756.483-1.427.483zm-4.687 0H26.7v-.379h-4.687zm.19 1.412v-1.601h-.379v1.601zm4.719-.189h-4.909v.378h4.909zm3.462-3.457c0 1.094-.333 1.954-.92 2.54-.585.585-1.446.917-2.542.917v.378c1.173 0 2.138-.357 2.81-1.028s1.03-1.635 1.03-2.807zm0-12.567v12.567h.378V3.9zm-5.51.19h5.699v-.379h-5.698zm-3.461 3.457c0-1.107.333-1.966.918-2.548.586-.583 1.447-.91 2.544-.91v-.378c-1.173 0-2.138.35-2.81 1.02-.673.668-1.03 1.632-1.03 2.816zm0 4.608V7.548h-.378v4.608zm3.363 3.457c-1.084 0-1.918-.326-2.482-.907-.565-.58-.881-1.44-.881-2.55h-.378c0 1.18.337 2.145.987 2.814.651.67 1.593 1.021 2.754 1.021zm4.185-1.388V5.478h-.378v8.747zm-3.864.19h3.675v-.379h-3.675zm-2.262-2.333c0 .729.173 1.32.561 1.728.39.41.966.604 1.7.604v-.378c-.67 0-1.13-.176-1.426-.486-.296-.312-.456-.793-.456-1.468zm0-4.46v4.46h.379v-4.46zm2.262-2.333c-.737 0-1.312.2-1.701.614-.388.411-.56 1.002-.56 1.719h.378c0-.662.16-1.144.457-1.46.295-.313.756-.495 1.426-.495zm3.675 0h-3.675v.378h3.675zm-15.24 11.346h2.132v-.379h-2.132zm-3.857-3.83c0 1.183.36 2.146 1.035 2.813.676.667 1.645 1.017 2.822 1.017v-.379c-1.102 0-1.967-.326-2.556-.907-.588-.581-.922-1.438-.922-2.544zm0-5.263v5.263h.379V7.542zm3.857-3.83c-1.177 0-2.146.35-2.822 1.017-.675.667-1.035 1.63-1.035 2.813h.379c0-1.106.334-1.963.922-2.544s1.454-.907 2.556-.907zm2.132 0h-2.132v.379h2.132zm3.857 3.83c0-1.183-.36-2.146-1.035-2.813-.676-.667-1.645-1.017-2.822-1.017v.379c1.102 0 1.967.326 2.556.907.588.581.922 1.438.922 2.544zm0 5.263V7.542h-.378v5.263zm-3.857 3.83c1.177 0 2.146-.35 2.822-1.017.675-.667 1.035-1.63 1.035-2.813h-.378c0 1.106-.335 1.963-.923 2.544-.589.58-1.454.907-2.556.907zm-.199-1.953h-1.734v.379h1.734zm1.893-1.926c0 .66-.166 1.133-.467 1.442-.3.309-.764.484-1.426.484v.379c.726 0 1.304-.194 1.697-.599s.574-.988.574-1.706zm0-5.165v5.165h.378V7.591zm-1.893-1.926c.662 0 1.126.175 1.426.484s.467.783.467 1.442h.378c0-.718-.18-1.302-.574-1.706-.393-.405-.97-.599-1.697-.599zm-1.734 0h1.734v-.379h-1.734zM11.839 7.59c0-.66.166-1.133.467-1.442.3-.309.764-.484 1.426-.484v-.379c-.727 0-1.303.194-1.697.599-.393.404-.575.988-.575 1.706zm0 5.165V7.591h-.379v5.165zm1.893 1.926c-.662 0-1.126-.175-1.426-.484s-.467-.783-.467-1.442h-.379c0 .718.182 1.302.575 1.706.393.405.97.599 1.697.599zM3.189 3.512V1.063h-.378V3.51zm0 2.006V3.511h-.378v2.007zm0 7.358V5.518h-.378v7.358zm3.569 3.383c-1.097 0-1.987-.313-2.6-.882-.611-.567-.969-1.406-.969-2.501h-.378c0 1.18.389 2.128 1.09 2.778.7.65 1.69.984 2.857.984zm1.567 0H6.758v.379h1.567zm-.189-1.376v1.566h.379v-1.567zm-1.154.189h1.343v-.379H6.982zm-2.38-2.27c0 .722.211 1.299.633 1.693.42.392 1.02.577 1.747.577v-.379c-.667 0-1.162-.17-1.489-.475-.325-.303-.512-.767-.512-1.415zm0-7.36v7.36h.379v-7.36zm3.25-.188h-3.06v.378h3.06zm-.19-1.35v1.539h.38V3.904zm-2.887.19h3.077v-.379H4.775zm-.189-3.03v2.84h.378v-2.84zM3 1.254h1.775v-.38H3zm45.326 35.265h4.858v-.378h-4.858zm-.19-1.714v1.525h.379v-1.525zm4.8-.19h-4.61v.379h4.61zm1.744-1.237c0 .444-.148.738-.414.929-.278.2-.714.309-1.33.309v.378c.648 0 1.178-.112 1.55-.38.385-.276.572-.696.572-1.236zm0-.467v.467h.378v-.467zm-1.144-1.62c.442.174.723.404.896.669s.248.583.248.95h.378c0-.418-.086-.814-.31-1.157-.223-.344-.575-.618-1.074-.814zm-2.93-1.231 2.925 1.23.147-.349-2.924-1.23zm-2.47-3.249c0 .816.181 1.458.595 1.986.41.523 1.034.914 1.877 1.263l.145-.35c-.818-.338-1.372-.698-1.724-1.146-.348-.444-.514-.995-.514-1.753zm3.536-3.215c-1.203 0-2.095.276-2.686.836-.594.562-.85 1.377-.85 2.379h.379c0-.941.24-1.639.73-2.104.494-.467 1.275-.732 2.427-.732zm5.056 0h-5.056v.379h5.056zm.189 1.715v-1.525h-.378v1.525zm-4.923.189h4.734v-.379h-4.734zm-1.62 1.04c0-.237.103-.49.35-.688.249-.2.655-.352 1.27-.352v-.379c-.675 0-1.173.168-1.507.436-.335.269-.492.63-.492.983zm0 .419v-.419h-.379v.419zm1.29 1.397c-.413-.157-.736-.33-.955-.55-.212-.213-.335-.48-.335-.848h-.379c0 .468.162.83.446 1.115.276.277.66.474 1.09.637zm2.935 1.307-2.925-1.303-.154.346 2.925 1.303zm2.318 3.568c0-.787-.093-1.497-.44-2.105-.35-.613-.94-1.098-1.886-1.466l-.138.353c.889.345 1.4.782 1.695 1.3.298.524.39 1.155.39 1.918zm-3.733 3.288c1.221 0 2.162-.243 2.797-.793.642-.556.936-1.393.936-2.495h-.378c0 1.037-.276 1.75-.806 2.209-.535.464-1.367.7-2.55.7zm-14.411 3.29h-1.81v.379h1.81zm-.19-3.419v3.608h.379V36.39zm2.817-.19h-2.627v.38H41.4zm1.487 0H41.4v.38h1.487zm3.355-3.468c0 1.115-.313 1.977-.874 2.56-.56.582-1.392.909-2.481.909v.378c1.166 0 2.106-.352 2.754-1.025.647-.671.979-1.638.979-2.822zm0-5.289v5.29h.378v-5.29zm-3.355-3.468c1.089 0 1.92.327 2.481.909s.874 1.445.874 2.56h.378c0-1.184-.332-2.151-.98-2.823s-1.587-1.025-2.753-1.025zm-1.487 0h1.487v-.379H41.4zm-2.974 0H41.4v-.379h-2.974zm-1.463 0h1.462v-.379h-1.462zm.19 16.023V23.786h-.379v16.212zm1.62-5h3.767v-.379h-3.767zm-.19-9.63v9.44h.379v-9.44zm3.957-.19h-3.767v.378h3.767zm2.295 2.34c0-.722-.18-1.314-.576-1.726-.397-.413-.98-.614-1.72-.614v.378c.674 0 1.144.182 1.447.498.305.318.471.8.471 1.463zm0 5.14v-5.14h-.378v5.14zm-2.295 2.34c.74 0 1.322-.202 1.72-.615.395-.411.575-1.004.575-1.725h-.378c0 .663-.166 1.146-.47 1.463-.304.316-.774.498-1.447.498zm-16.937 5.19h1.809v-.379h-1.81zm-.19-16.402v16.212h.379V23.786zm1.652-.19h-1.463v.379h1.463zm2.974 0h-2.974v.379h2.974zm1.487 0h-1.487v.379h1.487zm3.733 3.847c0-1.183-.332-2.15-.98-2.822s-1.587-1.025-2.753-1.025v.379c1.089 0 1.92.327 2.481.909.562.582.874 1.445.874 2.56zm0 5.29v-5.29h-.378v5.29zm-3.733 3.846c1.166 0 2.106-.352 2.754-1.025.647-.671.979-1.638.979-2.822h-.378c0 1.115-.312 1.977-.874 2.56-.56.582-1.392.909-2.481.909zm-1.487 0h1.487v-.378h-1.487zm-2.627 0h2.627v-.378h-2.627zM27.6 40v-3.61h-.378v3.608zm3.578-5.38h-3.767v.379h3.767zm1.917-1.96c0 .662-.166 1.145-.47 1.462s-.774.498-1.447.498v.379c.74 0 1.323-.202 1.72-.615.395-.411.576-1.004.576-1.725zm0-5.142v5.141h.379v-5.14zm-1.917-1.96c.673 0 1.143.181 1.446.498.305.317.471.8.471 1.462h.379c0-.72-.181-1.313-.577-1.725s-.98-.614-1.72-.614zm-3.767 0h3.767v-.379h-3.767zm.189 9.251v-9.44h-.378v9.44zm-24.412-4.75c0-3.359 2.739-6.083 6.12-6.083v-.379c-3.588 0-6.498 2.892-6.498 6.462zm6.12 6.083c-3.381 0-6.12-2.725-6.12-6.083H2.81c0 3.57 2.91 6.461 6.497 6.461zm14.4 0H9.31v.378h14.4zm-.188-5.847v6.036h.378v-6.036zm-6.357-6.32c3.511 0 6.357 2.831 6.357 6.32h.378c0-3.7-3.017-6.698-6.735-6.698zm-7.856 0h7.856v-.378H9.308zm-.036 10.768a4.686 4.686 0 0 0 4.686-4.686h-.378a4.31 4.31 0 0 1-4.308 4.308zm-4.686-4.686a4.686 4.686 0 0 0 4.686 4.686v-.378a4.31 4.31 0 0 1-4.308-4.308zm4.686-4.686a4.686 4.686 0 0 0-4.686 4.686h.378a4.31 4.31 0 0 1 4.308-4.308zm4.686 4.686a4.686 4.686 0 0 0-4.686-4.686v.378a4.31 4.31 0 0 1 4.308 4.308z" mask="url(#c)"/><g filter="url(#d)"><mask id="e" width="10" height="10" x="4" y="25" maskUnits="userSpaceOnUse" style="mask-type:luminance"><circle cx="9.112" cy="30.078" r="4.729" fill="#fff"/></mask><g mask="url(#e)"><g filter="url(#f)"><circle cx="9.112" cy="30.078" r="4.729" fill="#000"/></g><g filter="url(#g)"><circle cx="9.111" cy="30.078" r="3.976" fill="url(#h)"/></g><g filter="url(#i)" style="mix-blend-mode:plus-lighter"><circle cx="9.112" cy="30.078" r="4.729" fill="#fff" fill-opacity=".01"/></g><g filter="url(#j)"><path fill="#4E00CC" d="M10.493 27.944c0 .955-1.213.88-2.26.88-1.048 0-1.256.715-1.256-.24 0-.954.85-1.728 1.897-1.728s1.619.133 1.619 1.088" style="mix-blend-mode:screen"/><path fill="#FD18BD" d="M12.837 31.216c0 .949-1.603 2.828-2.784 2.828s-3.16.037-3.16-.912 1.98-.251 3.16-.251 2.784-2.614 2.784-1.665" style="mix-blend-mode:screen"/></g><g filter="url(#k)"><path fill="#5045E9" d="M9.57 28.31c.026-.332-.169-.528-.37-.767-.29-.344-.436-.437-.88-.437-1.793 0-2.31 1.205-2.711 3.066-.096.44-.056.962.052 1.396.071.288.224.574.47.752.251.183.557.25.863.21.593-.076-.278-1.82.567-2.29.343-.191.463-.622.76-.88.302-.261 1.216-.616 1.25-1.05"/><path stroke="#5045E9" stroke-linecap="round" stroke-width=".251" d="m9.104 27.624.043.051c.19.223.317.374.298.625-.005.066-.045.144-.132.233a2 2 0 0 1-.335.262q-.152.097-.307.187l-.097.057c-.127.076-.25.153-.336.227a2 2 0 0 0-.342.425l-.042.064c-.11.164-.21.296-.354.375-.253.14-.372.377-.423.63-.05.25-.038.53-.019.782l.012.151c.016.197.03.368.02.503a.4.4 0 0 1-.043.167c-.014.024-.032.038-.069.043a1.07 1.07 0 0 1-.774-.187c-.215-.156-.354-.412-.421-.681-.105-.422-.142-.923-.052-1.34.201-.93.427-1.672.812-2.181.377-.499.915-.786 1.778-.786.214 0 .338.023.44.076.103.054.199.146.343.317Z"/></g><g filter="url(#l)"><path fill="#ECEAFF" d="M8.4 28.519c.013-.158-.085-.252-.185-.366-.145-.165-.218-.21-.44-.21-.897 0-1.155.576-1.356 1.465a1.5 1.5 0 0 0 .026.666.62.62 0 0 0 .235.36.63.63 0 0 0 .432.1c.296-.037-.139-.87.283-1.094.172-.091.232-.297.38-.42.151-.125.608-.294.625-.501"/><path stroke="#5045E9" stroke-linecap="round" stroke-width=".251" d="m8.12 28.236.014.015c.103.117.148.168.14.258 0 .007-.006.03-.046.069a1 1 0 0 1-.156.116l-.15.087-.05.028a1.3 1.3 0 0 0-.177.115c-.079.065-.137.15-.184.217l-.02.029a.5.5 0 0 1-.154.159.48.48 0 0 0-.245.345c-.028.13-.02.273-.01.393q.002.04.006.076c.007.093.014.167.009.225a.2.2 0 0 1-.008.042.5.5 0 0 1-.338-.08.5.5 0 0 1-.184-.287 1.36 1.36 0 0 1-.026-.608c.1-.444.211-.784.394-1.014.174-.22.423-.352.84-.352a.4.4 0 0 1 .193.03c.04.02.081.056.152.137Z"/></g><g filter="url(#m)"><path fill="#F451FF" d="M6.873 33.159c-1.057-.904-1.756-2.067-1.214-3.348.111-.264.155-.448.377-.628.644-.523.43 1.995 1.004 2.595 1.14 1.191.863 1.294 2.511 1.255.53-.012 1.68-.599 2.177-.418.857.311-.35.88-1.214 1.172-1.367.462-2.545.31-3.641-.628"/></g><g filter="url(#n)" style="mix-blend-mode:screen"><path fill="#fff" d="M12.262 32.003c.084.41-.79 1.435-1.555 1.592-.766.157-2.046.435-2.13.025s1.261-.371 2.027-.528 1.574-1.5 1.658-1.089"/></g><g filter="url(#o)" style="mix-blend-mode:screen"><path fill="#fff" d="M8.056 32.373c-.21.1-.884-.232-1.073-.625-.19-.393-.514-1.048-.304-1.149s.373.632.562 1.025 1.025.647.815.749"/></g><g filter="url(#p)" style="mix-blend-mode:screen"><path fill="#fff" d="M11.344 32.49c.04.202-.389.706-.766.784-.377.077-1.007.214-1.048.012s.62-.183.998-.26c.376-.077.774-.738.816-.536"/></g><g filter="url(#q)"><path fill="#000" d="M12.504 30.248c.225.409-1.033 1.057-2.105 1.645-1.071.588-1.115 1.012-1.34.602-.225-.409.462-1.217 1.533-1.805s1.687-.852 1.912-.443"/></g><circle cx="9.259" cy="27.103" r=".043" fill="#fff" opacity=".77" transform="rotate(-52 9.26 27.103)"/><circle cx="10.456" cy="27.264" r=".015" fill="#fff" opacity=".77" transform="rotate(-153 10.456 27.264)"/><circle cx="10.662" cy="28.257" r=".052" fill="#fff" opacity=".88" transform="rotate(95 10.662 28.257)"/><circle cx="12.043" cy="28.836" r=".043" fill="#fff" opacity=".73" transform="rotate(142 12.043 28.836)"/><circle cx="8.388" cy="27.704" r=".042" fill="#fff" opacity=".76" transform="rotate(-127 8.388 27.704)"/><circle cx="9.559" cy="29.049" r=".053" fill="#fff" opacity=".84" transform="rotate(78 9.559 29.05)"/><circle cx="10.212" cy="29.28" r=".015" fill="#fff" opacity=".93" transform="rotate(139 10.212 29.28)"/><circle cx="10.679" cy="29.919" r=".051" fill="#fff" opacity=".99" transform="rotate(166 10.679 29.92)"/><circle cx="11.162" cy="30.586" r=".033" fill="#fff" opacity=".83" transform="rotate(139 11.162 30.586)"/><circle cx="7.171" cy="28.665" r=".031" fill="#fff" opacity=".9" transform="rotate(51 7.171 28.665)"/><circle cx="7.313" cy="28.882" r=".03" fill="#fff" opacity=".95" transform="rotate(36 7.313 28.882)"/><circle cx="9.086" cy="29.32" r=".051" fill="#fff" opacity=".74" transform="rotate(153 9.086 29.32)"/><circle cx="9.467" cy="30.517" r=".037" fill="#fff" opacity=".89" transform="rotate(-49 9.467 30.517)"/><circle cx="9.464" cy="30.961" r=".03" fill="#fff" opacity=".87" transform="rotate(114 9.464 30.96)"/><circle cx="10.694" cy="30.962" r=".03" fill="#fff" opacity=".71" transform="rotate(-177 10.694 30.962)"/><circle cx="6.732" cy="28.846" r=".065" fill="#fff" opacity=".79" transform="rotate(114 6.732 28.846)"/><circle cx="7.213" cy="28.954" r=".03" fill="#fff" opacity=".76" transform="rotate(-175 7.213 28.954)"/><circle cx="7.489" cy="30.414" r=".038" fill="#fff" opacity=".97" transform="rotate(-95 7.49 30.414)"/><circle cx="8.575" cy="31.028" r=".018" fill="#fff" opacity=".92" transform="rotate(85 8.575 31.028)"/><circle cx="9.074" cy="31.896" r=".032" fill="#fff" opacity=".92" transform="rotate(-171 9.074 31.896)"/><circle cx="9.664" cy="32.667" r=".015" fill="#fff" opacity=".86" transform="rotate(6 9.664 32.667)"/><circle cx="10.569" cy="33.141" r=".015" fill="#fff" opacity=".92" transform="rotate(-154 10.57 33.14)"/><circle cx="6.729" cy="30.504" r=".05" fill="#fff" opacity=".79" transform="rotate(31 6.73 30.504)"/><circle cx="6.799" cy="31.166" r=".066" fill="#fff" opacity=".74" transform="rotate(152 6.799 31.166)"/><circle cx="7.515" cy="31.222" r=".015" fill="#fff" opacity=".76" transform="rotate(-152 7.515 31.222)"/><circle cx="7.487" cy="32.67" r=".03" fill="#fff" opacity=".82" transform="rotate(-133 7.487 32.67)"/><circle cx="8.644" cy="32.767" r=".017" fill="#fff" opacity=".94" transform="rotate(-29 8.644 32.767)"/><circle cx="8.11" cy="28.921" r=".024" fill="#fff" opacity=".77" transform="rotate(-97 8.11 28.921)"/><circle cx="8.64" cy="28.516" r=".008" fill="#fff" opacity=".77" transform="rotate(162 8.64 28.516)"/><circle cx="9.111" cy="28.824" r=".029" fill="#fff" opacity=".88" transform="rotate(50 9.11 28.824)"/><circle cx="9.877" cy="28.509" r=".024" fill="#fff" opacity=".73" transform="rotate(97 9.877 28.509)"/><circle cx="8.005" cy="29.501" r=".023" fill="#fff" opacity=".76" transform="rotate(-172 8.005 29.5)"/><circle cx="8.986" cy="29.568" r=".029" fill="#fff" opacity=".84" transform="rotate(33 8.986 29.568)"/><circle cx="9.336" cy="29.4" r=".008" fill="#fff" opacity=".93" transform="rotate(94 9.336 29.4)"/><circle cx="9.768" cy="29.473" r=".028" fill="#fff" opacity=".99" transform="rotate(121 9.768 29.473)"/><circle cx="10.217" cy="29.544" r=".018" fill="#fff" opacity=".83" transform="rotate(94 10.217 29.544)"/><circle cx="7.904" cy="30.348" r=".017" fill="#fff" opacity=".9" transform="rotate(6 7.904 30.348)"/><circle cx="8.04" cy="30.376" r=".016" fill="#fff" opacity=".95" transform="rotate(-9 8.04 30.376)"/><circle cx="8.912" cy="29.855" r=".028" fill="#fff" opacity=".74" transform="rotate(108 8.912 29.855)"/><circle cx="9.528" cy="30.176" r=".02" fill="#fff" opacity=".89" transform="rotate(-94 9.528 30.176)"/><circle cx="9.7" cy="30.351" r=".016" fill="#fff" opacity=".87" transform="rotate(69 9.7 30.35)"/><circle cx="10.181" cy="29.868" r=".016" fill="#fff" opacity=".71" transform="rotate(138 10.18 29.868)"/><circle cx="7.802" cy="30.596" r=".036" fill="#fff" opacity=".79" transform="rotate(69 7.802 30.596)"/><circle cx="8.032" cy="30.449" r=".016" fill="#fff" opacity=".76" transform="rotate(140 8.032 30.449)"/><circle cx="8.713" cy="30.907" r=".021" fill="#fff" opacity=".97" transform="rotate(-140 8.713 30.907)"/><circle cx="9.377" cy="30.722" r=".01" fill="#fff" opacity=".92" transform="rotate(40 9.377 30.722)"/><circle cx="9.912" cy="30.872" r=".017" fill="#fff" opacity=".92" transform="rotate(144 9.912 30.872)"/><circle cx="10.444" cy="30.937" r=".008" fill="#fff" opacity=".86" transform="rotate(-39 10.444 30.937)"/><circle cx="10.984" cy="30.769" r=".008" fill="#fff" opacity=".92" transform="rotate(161 10.984 30.769)"/><circle cx="8.448" cy="31.24" r=".028" fill="#fff" opacity=".79" transform="rotate(-14 8.448 31.24)"/><circle cx="8.736" cy="31.47" r=".036" fill="#fff" opacity=".74" transform="rotate(107 8.736 31.47)"/><circle cx="9.037" cy="31.215" r=".008" fill="#fff" opacity=".76" transform="rotate(163 9.037 31.215)"/><circle cx="9.595" cy="31.796" r=".016" fill="#fff" opacity=".82" transform="rotate(-178 9.595 31.796)"/><circle cx="10.084" cy="31.379" r=".009" fill="#fff" opacity=".94" transform="rotate(-74 10.084 31.379)"/></g></g><defs><filter id="a" width="53.728" height="40.755" x="3" y="0" color-interpolation-filters="sRGB" filterUnits="userSpaceOnUse"><feFlood flood-opacity="0" result="BackgroundImageFix"/><feBlend in="SourceGraphic" in2="BackgroundImageFix" result="shape"/><feColorMatrix in="SourceAlpha" result="hardAlpha" values="0 0 0 0 0 0 0 0 0 0 0 0 0 0 0 0 0 0 127 0"/><feOffset dy=".757"/><feGaussianBlur stdDeviation=".757"/><feComposite in2="hardAlpha" k2="-1" k3="1" operator="arithmetic"/><feColorMatrix values="0 0 0 0 1 0 0 0 0 1 0 0 0 0 1 0 0 0 0.25 0"/><feBlend in2="shape" result="effect1_innerShadow_450_12880"/><feColorMatrix in="SourceAlpha" result="hardAlpha" values="0 0 0 0 0 0 0 0 0 0 0 0 0 0 0 0 0 0 127 0"/><feOffset/><feGaussianBlur stdDeviation=".284"/><feComposite in2="hardAlpha" k2="-1" k3="1" operator="arithmetic"/><feColorMatrix values="0 0 0 0 1 0 0 0 0 1 0 0 0 0 1 0 0 0 0.4 0"/><feBlend in2="effect1_innerShadow_450_12880" result="effect2_innerShadow_450_12880"/></filter><filter id="d" width="20.551" height="20.552" x=".929" y="20.848" color-interpolation-filters="sRGB" filterUnits="userSpaceOnUse"><feFlood flood-opacity="0" result="BackgroundImageFix"/><feColorMatrix in="SourceAlpha" result="hardAlpha" values="0 0 0 0 0 0 0 0 0 0 0 0 0 0 0 0 0 0 127 0"/><feOffset dx="2.093" dy="1.046"/><feGaussianBlur stdDeviation="2.773"/><feComposite in2="hardAlpha" operator="out"/><feColorMatrix values="0 0 0 0 0 0 0 0 0 0 0 0 0 0 0 0 0 0 0.78 0"/><feBlend in2="BackgroundImageFix" result="effect1_dropShadow_450_12880"/><feBlend in="SourceGraphic" in2="effect1_dropShadow_450_12880" result="shape"/></filter><filter id="f" width="10.715" height="10.129" x="3.378" y="24.846" color-interpolation-filters="sRGB" filterUnits="userSpaceOnUse"><feFlood flood-opacity="0" result="BackgroundImageFix"/><feBlend in="SourceGraphic" in2="BackgroundImageFix" result="shape"/><feColorMatrix in="SourceAlpha" result="hardAlpha" values="0 0 0 0 0 0 0 0 0 0 0 0 0 0 0 0 0 0 127 0"/><feOffset dx="-1.004" dy=".167"/><feGaussianBlur stdDeviation="1.193"/><feComposite in2="hardAlpha" k2="-1" k3="1" operator="arithmetic"/><feColorMatrix values="0 0 0 0 0.490196 0 0 0 0 0.227451 0 0 0 0 0.972549 0 0 0 1 0"/><feBlend in2="shape" result="effect1_innerShadow_450_12880"/><feColorMatrix in="SourceAlpha" result="hardAlpha" values="0 0 0 0 0 0 0 0 0 0 0 0 0 0 0 0 0 0 127 0"/><feOffset dx="-1.004" dy=".167"/><feGaussianBlur stdDeviation="1.712"/><feComposite in2="hardAlpha" k2="-1" k3="1" operator="arithmetic"/><feColorMatrix values="0 0 0 0 0.196078 0 0 0 0 0.160784 0 0 0 0 0.654902 0 0 0 1 0"/><feBlend in2="effect1_innerShadow_450_12880" result="effect2_innerShadow_450_12880"/><feColorMatrix in="SourceAlpha" result="hardAlpha" values="0 0 0 0 0 0 0 0 0 0 0 0 0 0 0 0 0 0 127 0"/><feOffset dx="-.335" dy="-.502"/><feGaussianBlur stdDeviation=".682"/><feComposite in2="hardAlpha" k2="-1" k3="1" operator="arithmetic"/><feColorMatrix values="0 0 0 0 1 0 0 0 0 1 0 0 0 0 1 0 0 0 0.57 0"/><feBlend in2="effect2_innerShadow_450_12880" result="effect3_innerShadow_450_12880"/><feColorMatrix in="SourceAlpha" result="hardAlpha" values="0 0 0 0 0 0 0 0 0 0 0 0 0 0 0 0 0 0 127 0"/><feOffset dx=".251" dy=".167"/><feGaussianBlur stdDeviation=".326"/><feComposite in2="hardAlpha" k2="-1" k3="1" operator="arithmetic"/><feColorMatrix values="0 0 0 0 1 0 0 0 0 1 0 0 0 0 1 0 0 0 0.88 0"/><feBlend in2="effect3_innerShadow_450_12880" result="effect4_innerShadow_450_12880"/><feColorMatrix in="SourceAlpha" result="hardAlpha" values="0 0 0 0 0 0 0 0 0 0 0 0 0 0 0 0 0 0 127 0"/><feOffset dx=".084" dy=".084"/><feGaussianBlur stdDeviation=".088"/><feComposite in2="hardAlpha" k2="-1" k3="1" operator="arithmetic"/><feColorMatrix values="0 0 0 0 1 0 0 0 0 1 0 0 0 0 1 0 0 0 1 0"/><feBlend in2="effect4_innerShadow_450_12880" result="effect5_innerShadow_450_12880"/><feColorMatrix in="SourceAlpha" result="hardAlpha" values="0 0 0 0 0 0 0 0 0 0 0 0 0 0 0 0 0 0 127 0"/><feMorphology in="SourceAlpha" radius=".084" result="effect6_innerShadow_450_12880"/><feOffset dx="-.251" dy="-.084"/><feGaussianBlur stdDeviation=".339"/><feComposite in2="hardAlpha" k2="-1" k3="1" operator="arithmetic"/><feColorMatrix values="0 0 0 0 1 0 0 0 0 1 0 0 0 0 1 0 0 0 0.65 0"/><feBlend in2="effect5_innerShadow_450_12880" result="effect6_innerShadow_450_12880"/></filter><filter id="g" width="9.124" height="9.124" x="4.549" y="25.516" color-interpolation-filters="sRGB" filterUnits="userSpaceOnUse"><feFlood flood-opacity="0" result="BackgroundImageFix"/><feBlend in="SourceGraphic" in2="BackgroundImageFix" result="shape"/><feGaussianBlur result="effect1_foregroundBlur_450_12880" stdDeviation=".293"/></filter><filter id="i" width="9.459" height="9.747" x="4.383" y="25.348" color-interpolation-filters="sRGB" filterUnits="userSpaceOnUse"><feFlood flood-opacity="0" result="BackgroundImageFix"/><feBlend in="SourceGraphic" in2="BackgroundImageFix" result="shape"/><feColorMatrix in="SourceAlpha" result="hardAlpha" values="0 0 0 0 0 0 0 0 0 0 0 0 0 0 0 0 0 0 127 0"/><feMorphology in="SourceAlpha" radius=".144" result="effect1_innerShadow_450_12880"/><feOffset dy=".288"/><feGaussianBlur stdDeviation=".144"/><feComposite in2="hardAlpha" k2="-1" k3="1" operator="arithmetic"/><feColorMatrix values="0 0 0 0 0.137255 0 0 0 0 0.324471 0 0 0 0 0.988235 0 0 0 1 0"/><feBlend in2="shape" result="effect1_innerShadow_450_12880"/></filter><filter id="j" width="9.544" height="10.789" x="5.093" y="25.056" color-interpolation-filters="sRGB" filterUnits="userSpaceOnUse"><feFlood flood-opacity="0" result="BackgroundImageFix"/><feBlend in="SourceGraphic" in2="BackgroundImageFix" result="shape"/><feGaussianBlur result="effect1_foregroundBlur_450_12880" stdDeviation=".9"/></filter><filter id="k" width="7.952" height="9.37" x="3.588" y="25.138" color-interpolation-filters="sRGB" filterUnits="userSpaceOnUse"><feFlood flood-opacity="0" result="BackgroundImageFix"/><feBlend in="SourceGraphic" in2="BackgroundImageFix" result="shape"/><feGaussianBlur result="effect1_foregroundBlur_450_12880" stdDeviation=".984"/></filter><filter id="l" width="4.47" height="5.056" x="5.162" y="26.713" color-interpolation-filters="sRGB" filterUnits="userSpaceOnUse"><feFlood flood-opacity="0" result="BackgroundImageFix"/><feBlend in="SourceGraphic" in2="BackgroundImageFix" result="shape"/><feGaussianBlur result="effect1_foregroundBlur_450_12880" stdDeviation=".615"/></filter><filter id="m" width="9.731" height="8.108" x="3.88" y="27.521" color-interpolation-filters="sRGB" filterUnits="userSpaceOnUse"><feFlood flood-opacity="0" result="BackgroundImageFix"/><feBlend in="SourceGraphic" in2="BackgroundImageFix" result="shape"/><feGaussianBlur result="effect1_foregroundBlur_450_12880" stdDeviation=".795"/></filter><filter id="n" width="5.686" height="3.901" x="7.577" y="30.929" color-interpolation-filters="sRGB" filterUnits="userSpaceOnUse"><feFlood flood-opacity="0" result="BackgroundImageFix"/><feBlend in="SourceGraphic" in2="BackgroundImageFix" result="shape"/><feGaussianBlur result="effect1_foregroundBlur_450_12880" stdDeviation=".498"/></filter><filter id="o" width="3.504" height="3.827" x="5.598" y="29.576" color-interpolation-filters="sRGB" filterUnits="userSpaceOnUse"><feFlood flood-opacity="0" result="BackgroundImageFix"/><feBlend in="SourceGraphic" in2="BackgroundImageFix" result="shape"/><feGaussianBlur result="effect1_foregroundBlur_450_12880" stdDeviation=".506"/></filter><filter id="p" width="3.811" height="2.931" x="8.532" y="31.456" color-interpolation-filters="sRGB" filterUnits="userSpaceOnUse"><feFlood flood-opacity="0" result="BackgroundImageFix"/><feBlend in="SourceGraphic" in2="BackgroundImageFix" result="shape"/><feGaussianBlur result="effect1_foregroundBlur_450_12880" stdDeviation=".498"/></filter><filter id="q" width="5.908" height="5.003" x="7.819" y="28.852" color-interpolation-filters="sRGB" filterUnits="userSpaceOnUse"><feFlood flood-opacity="0" result="BackgroundImageFix"/><feBlend in="SourceGraphic" in2="BackgroundImageFix" result="shape"/><feGaussianBlur result="effect1_foregroundBlur_450_12880" stdDeviation=".599"/></filter><linearGradient id="b" x1="29.864" x2="29.864" y1="-6.812" y2="39.998" gradientUnits="userSpaceOnUse"><stop stop-color="#fff"/><stop offset=".75" stop-color="#fff" stop-opacity=".3"/></linearGradient><linearGradient id="h" x1="10.022" x2="11.459" y1="31.132" y2="33.288" gradientUnits="userSpaceOnUse"><stop stop-color="#98A2FF" stop-opacity="0"/><stop offset="1" stop-color="#001BFF"/></linearGradient></defs></svg>