<svg width="57" height="42" viewBox="0 0 57 42" fill="none" xmlns="http://www.w3.org/2000/svg">
<mask id="path-1-inside-1_450_12880" fill="white">
<path fill-rule="evenodd" clip-rule="evenodd" d="M43.7094 16.4479H45.4845V0.000242442V3.83325e-05L43.7094 0L43.7094 16.4479ZM51.0292 16.4456H56.4908V14.896H51.2266C49.8452 14.896 49.1545 14.1335 49.1545 12.7561V11.0344H56.7274V7.54166C56.7274 5.25418 55.3461 3.90138 53.1013 3.90138H51.0292C48.7598 3.90138 47.3784 5.25418 47.3784 7.54166V12.8053C47.3784 15.0928 48.7598 16.4456 51.0292 16.4456ZM54.976 9.73075H49.1545V7.59085C49.1545 6.21345 49.8452 5.47555 51.2266 5.47555H52.904C54.2854 5.47555 54.976 6.21345 54.976 7.59085V9.73075ZM37.3999 15.8023H36.0185C33.7738 15.8023 32.4664 14.4471 32.4664 12.1556V7.54803C32.4664 5.25655 33.8478 3.90138 36.1172 3.90138H41.8154V16.4675C41.8154 18.7344 40.434 20.1142 38.1646 20.1142H33.2557V18.5126H37.9426C39.3486 18.5126 40.0147 17.7734 40.0147 16.3936V15.8023H37.3999ZM40.0147 14.2253V5.47831H36.3392C34.9331 5.47831 34.2671 6.24213 34.2671 7.62195V12.0817C34.2671 13.4862 34.9331 14.2253 36.3392 14.2253H40.0147ZM24.7769 15.8023H26.1583H28.773V16.3936C28.773 17.7734 28.107 18.5126 26.701 18.5126H22.0141V20.1142H26.923C29.1924 20.1142 30.5738 18.7344 30.5738 16.4675V3.90138H24.8756C22.6062 3.90138 21.2248 5.25655 21.2248 7.54803V12.1556C21.2248 14.4471 22.5322 15.8023 24.7769 15.8023ZM28.773 5.47831V14.2253H25.0976C23.6915 14.2253 23.0255 13.4862 23.0255 12.0817V7.62195C23.0255 6.24213 23.6915 5.47831 25.0976 5.47831H28.773ZM15.6647 16.4456H13.5333C11.2532 16.4456 9.8653 15.0928 9.8653 12.8053V7.54166C9.8653 5.25418 11.2532 3.90138 13.5333 3.90138H15.6647C17.9448 3.90138 19.3326 5.25418 19.3326 7.54166V12.8053C19.3326 15.0928 17.9448 16.4456 15.6647 16.4456ZM13.7315 14.8714H15.4664C16.8543 14.8714 17.5482 14.1335 17.5482 12.7561V7.59085C17.5482 6.21345 16.8543 5.47555 15.4664 5.47555H13.7315C12.3437 5.47555 11.6497 6.21345 11.6497 7.59085V12.7561C11.6497 14.1335 12.3437 14.8714 13.7315 14.8714ZM3 1.06425V3.51144V5.51808V12.8759C3 15.1517 4.4931 16.4487 6.75763 16.4487H8.32538V14.8825H6.98159C5.58803 14.8825 4.79172 14.1729 4.79172 12.8025L4.79172 5.44289H7.85201L7.85201 3.90445H4.77513V1.06425H3ZM53.1835 36.3298H48.3256L48.3255 34.8048H52.9357C54.1997 34.8048 54.8689 34.3621 54.8689 33.3782V32.9109C54.8689 32.1238 54.5467 31.4843 53.6049 31.1153L50.6802 29.8855C49.0196 29.1968 48.3256 28.3851 48.3256 26.811C48.3256 24.8678 49.317 23.7856 51.6716 23.7856H56.7278V25.3106H51.9938C50.705 25.3106 50.1845 25.9501 50.1845 26.5404V26.9585C50.1845 27.7948 50.7545 28.213 51.5972 28.5327L54.5219 29.8363C56.3561 30.5496 56.7278 31.6811 56.7278 33.2306C56.7278 35.3705 55.5877 36.3298 53.1835 36.3298ZM36.9633 39.9984H38.7725V36.3901H41.3996H42.8866C45.1419 36.3901 46.4306 35.0308 46.4306 32.7323V27.4434C46.4306 25.1449 45.1419 23.7856 42.8866 23.7856H41.3996H38.4255L36.9633 23.7856L36.9633 39.9984ZM42.5396 34.8083H38.7725V25.3674H42.5396C43.9523 25.3674 44.6462 26.1335 44.6462 27.5175V32.6582C44.6462 34.0422 43.9523 34.8083 42.5396 34.8083ZM27.4117 39.9984H25.6025L25.6025 23.7856L27.0647 23.7856H30.0387H31.5257C33.781 23.7856 35.0698 25.1449 35.0698 27.4434V32.7323C35.0698 35.0308 33.781 36.3901 31.5257 36.3901H30.0387H27.4117V39.9984ZM27.4117 34.8083H31.1788C32.5914 34.8083 33.2854 34.0422 33.2854 32.6582V27.5175C33.2854 26.1335 32.5914 25.3674 31.1788 25.3674H27.4117V34.8083ZM9.30816 23.7856C5.82426 23.7856 3 26.5937 3 30.0577C3 33.5217 5.82426 36.3298 9.30816 36.3298H23.7098V30.2944C23.7098 26.6997 20.779 23.7856 17.1636 23.7856H9.30816ZM13.7687 30.0562C13.7687 32.5399 11.7554 34.5532 9.27176 34.5532C6.78814 34.5532 4.77477 32.5399 4.77477 30.0562C4.77477 27.5726 6.78814 25.5593 9.27176 25.5593C11.7554 25.5593 13.7687 27.5726 13.7687 30.0562Z"/>
</mask>
<g filter="url(#filter0_ii_450_12880)">
<path fill-rule="evenodd" clip-rule="evenodd" d="M43.7094 16.4479H45.4845V0.000242442V3.83325e-05L43.7094 0L43.7094 16.4479ZM51.0292 16.4456H56.4908V14.896H51.2266C49.8452 14.896 49.1545 14.1335 49.1545 12.7561V11.0344H56.7274V7.54166C56.7274 5.25418 55.3461 3.90138 53.1013 3.90138H51.0292C48.7598 3.90138 47.3784 5.25418 47.3784 7.54166V12.8053C47.3784 15.0928 48.7598 16.4456 51.0292 16.4456ZM54.976 9.73075H49.1545V7.59085C49.1545 6.21345 49.8452 5.47555 51.2266 5.47555H52.904C54.2854 5.47555 54.976 6.21345 54.976 7.59085V9.73075ZM37.3999 15.8023H36.0185C33.7738 15.8023 32.4664 14.4471 32.4664 12.1556V7.54803C32.4664 5.25655 33.8478 3.90138 36.1172 3.90138H41.8154V16.4675C41.8154 18.7344 40.434 20.1142 38.1646 20.1142H33.2557V18.5126H37.9426C39.3486 18.5126 40.0147 17.7734 40.0147 16.3936V15.8023H37.3999ZM40.0147 14.2253V5.47831H36.3392C34.9331 5.47831 34.2671 6.24213 34.2671 7.62195V12.0817C34.2671 13.4862 34.9331 14.2253 36.3392 14.2253H40.0147ZM24.7769 15.8023H26.1583H28.773V16.3936C28.773 17.7734 28.107 18.5126 26.701 18.5126H22.0141V20.1142H26.923C29.1924 20.1142 30.5738 18.7344 30.5738 16.4675V3.90138H24.8756C22.6062 3.90138 21.2248 5.25655 21.2248 7.54803V12.1556C21.2248 14.4471 22.5322 15.8023 24.7769 15.8023ZM28.773 5.47831V14.2253H25.0976C23.6915 14.2253 23.0255 13.4862 23.0255 12.0817V7.62195C23.0255 6.24213 23.6915 5.47831 25.0976 5.47831H28.773ZM15.6647 16.4456H13.5333C11.2532 16.4456 9.8653 15.0928 9.8653 12.8053V7.54166C9.8653 5.25418 11.2532 3.90138 13.5333 3.90138H15.6647C17.9448 3.90138 19.3326 5.25418 19.3326 7.54166V12.8053C19.3326 15.0928 17.9448 16.4456 15.6647 16.4456ZM13.7315 14.8714H15.4664C16.8543 14.8714 17.5482 14.1335 17.5482 12.7561V7.59085C17.5482 6.21345 16.8543 5.47555 15.4664 5.47555H13.7315C12.3437 5.47555 11.6497 6.21345 11.6497 7.59085V12.7561C11.6497 14.1335 12.3437 14.8714 13.7315 14.8714ZM3 1.06425V3.51144V5.51808V12.8759C3 15.1517 4.4931 16.4487 6.75763 16.4487H8.32538V14.8825H6.98159C5.58803 14.8825 4.79172 14.1729 4.79172 12.8025L4.79172 5.44289H7.85201L7.85201 3.90445H4.77513V1.06425H3ZM53.1835 36.3298H48.3256L48.3255 34.8048H52.9357C54.1997 34.8048 54.8689 34.3621 54.8689 33.3782V32.9109C54.8689 32.1238 54.5467 31.4843 53.6049 31.1153L50.6802 29.8855C49.0196 29.1968 48.3256 28.3851 48.3256 26.811C48.3256 24.8678 49.317 23.7856 51.6716 23.7856H56.7278V25.3106H51.9938C50.705 25.3106 50.1845 25.9501 50.1845 26.5404V26.9585C50.1845 27.7948 50.7545 28.213 51.5972 28.5327L54.5219 29.8363C56.3561 30.5496 56.7278 31.6811 56.7278 33.2306C56.7278 35.3705 55.5877 36.3298 53.1835 36.3298ZM36.9633 39.9984H38.7725V36.3901H41.3996H42.8866C45.1419 36.3901 46.4306 35.0308 46.4306 32.7323V27.4434C46.4306 25.1449 45.1419 23.7856 42.8866 23.7856H41.3996H38.4255L36.9633 23.7856L36.9633 39.9984ZM42.5396 34.8083H38.7725V25.3674H42.5396C43.9523 25.3674 44.6462 26.1335 44.6462 27.5175V32.6582C44.6462 34.0422 43.9523 34.8083 42.5396 34.8083ZM27.4117 39.9984H25.6025L25.6025 23.7856L27.0647 23.7856H30.0387H31.5257C33.781 23.7856 35.0698 25.1449 35.0698 27.4434V32.7323C35.0698 35.0308 33.781 36.3901 31.5257 36.3901H30.0387H27.4117V39.9984ZM27.4117 34.8083H31.1788C32.5914 34.8083 33.2854 34.0422 33.2854 32.6582V27.5175C33.2854 26.1335 32.5914 25.3674 31.1788 25.3674H27.4117V34.8083ZM9.30816 23.7856C5.82426 23.7856 3 26.5937 3 30.0577C3 33.5217 5.82426 36.3298 9.30816 36.3298H23.7098V30.2944C23.7098 26.6997 20.779 23.7856 17.1636 23.7856H9.30816ZM13.7687 30.0562C13.7687 32.5399 11.7554 34.5532 9.27176 34.5532C6.78814 34.5532 4.77477 32.5399 4.77477 30.0562C4.77477 27.5726 6.78814 25.5593 9.27176 25.5593C11.7554 25.5593 13.7687 27.5726 13.7687 30.0562Z" fill="url(#paint0_linear_450_12880)"/>
</g>
<path d="M2.90541 3.51144V5.51808H3.09459V3.51144H2.90541ZM45.4845 16.4479V16.6371H45.6737V16.4479H45.4845ZM43.7094 16.4479H43.5202L43.5202 16.6371H43.7094V16.4479ZM45.4845 3.83325e-05H45.6737V-0.189138L45.4845 -0.189142L45.4845 3.83325e-05ZM43.7094 0L43.7094 -0.18918L43.5202 -0.189184V-3.51006e-07L43.7094 0ZM56.4908 16.4456V16.6348H56.6799V16.4456H56.4908ZM56.4908 14.896H56.6799V14.7068H56.4908V14.896ZM49.1545 11.0344V10.8452H48.9653V11.0344H49.1545ZM56.7274 11.0344V11.2235H56.9166V11.0344H56.7274ZM49.1545 9.73075H48.9653V9.91993H49.1545V9.73075ZM54.976 9.73075V9.91993H55.1652V9.73075H54.976ZM41.8154 3.90138H42.0046V3.71219H41.8154V3.90138ZM33.2557 20.1142H33.0666V20.3034H33.2557V20.1142ZM33.2557 18.5126V18.3235H33.0666V18.5126H33.2557ZM40.0147 15.8023H40.2038V15.6131H40.0147V15.8023ZM40.0147 5.47831H40.2038V5.28913H40.0147V5.47831ZM40.0147 14.2253V14.4145H40.2038V14.2253H40.0147ZM28.773 15.8023H28.9622V15.6131H28.773V15.8023ZM22.0141 18.5126V18.3235H21.825V18.5126H22.0141ZM22.0141 20.1142H21.825V20.3034H22.0141V20.1142ZM30.5738 3.90138H30.763V3.71219H30.5738V3.90138ZM28.773 14.2253V14.4145H28.9622V14.2253H28.773ZM28.773 5.47831H28.9622V5.28913H28.773V5.47831ZM3 1.06425V0.875067H2.81082V1.06425H3ZM8.32538 16.4487V16.6379H8.51456V16.4487H8.32538ZM8.32538 14.8825H8.51456V14.6933H8.32538V14.8825ZM4.79172 12.8025H4.60254H4.79172ZM4.79172 5.44289V5.25371H4.60254V5.44289H4.79172ZM7.85201 5.44289V5.63207H8.04119L8.04119 5.44289H7.85201ZM7.85201 3.90445H8.04119V3.71527H7.85201V3.90445ZM4.77513 3.90445H4.58595V4.09363H4.77513V3.90445ZM4.77513 1.06425H4.96431V0.875067H4.77513V1.06425ZM48.3256 36.3298L48.1364 36.3298L48.1364 36.519H48.3256V36.3298ZM48.3255 34.8048V34.6156H48.1363L48.1363 34.8048L48.3255 34.8048ZM53.6049 31.1153L53.5315 31.2898L53.5359 31.2915L53.6049 31.1153ZM50.6802 29.8855L50.7535 29.7111L50.7527 29.7108L50.6802 29.8855ZM56.7278 23.7856H56.917V23.5964H56.7278V23.7856ZM56.7278 25.3106V25.4998H56.917V25.3106H56.7278ZM51.5972 28.5327L51.6744 28.3596L51.6644 28.3558L51.5972 28.5327ZM54.5219 29.8363L54.4448 30.0093L54.4534 30.0126L54.5219 29.8363ZM38.7725 39.9984V40.1876H38.9617V39.9984H38.7725ZM36.9633 39.9984H36.7741V40.1876H36.9633V39.9984ZM38.7725 36.3901V36.2009H38.5833V36.3901H38.7725ZM38.4255 23.7856L38.4255 23.9748H38.4255V23.7856ZM36.9633 23.7856L36.9633 23.5964L36.7741 23.5964V23.7856H36.9633ZM38.7725 34.8083H38.5833V34.9975H38.7725V34.8083ZM38.7725 25.3674V25.1782H38.5833V25.3674H38.7725ZM25.6025 39.9984H25.4133V40.1876H25.6025V39.9984ZM27.4117 39.9984V40.1876H27.6008V39.9984H27.4117ZM25.6025 23.7856L25.6025 23.5964L25.4133 23.5964V23.7856H25.6025ZM27.0647 23.7856L27.0647 23.9748H27.0647V23.7856ZM27.4117 36.3901V36.2009H27.2225V36.3901H27.4117ZM27.4117 34.8083H27.2225V34.9975H27.4117V34.8083ZM27.4117 25.3674V25.1782H27.2225V25.3674H27.4117ZM23.7098 36.3298V36.519H23.899V36.3298H23.7098ZM45.4845 16.2587H43.7094V16.6371H45.4845V16.2587ZM45.2953 0.000242442V16.4479H45.6737V0.000242442H45.2953ZM45.2953 3.83325e-05V0.000242442H45.6737V3.83325e-05H45.2953ZM43.7094 0.18918L45.4845 0.189218L45.4845 -0.189142L43.7094 -0.18918L43.7094 0.18918ZM43.8985 16.4479L43.8986 3.51006e-07L43.5202 -3.51006e-07L43.5202 16.4479H43.8985ZM56.4908 16.2564H51.0292V16.6348H56.4908V16.2564ZM56.3016 14.896V16.4456H56.6799V14.896H56.3016ZM51.2266 15.0852H56.4908V14.7068H51.2266V15.0852ZM48.9653 12.7561C48.9653 13.4741 49.1454 14.0632 49.5355 14.473C49.9271 14.8845 50.5018 15.0852 51.2266 15.0852V14.7068C50.57 14.7068 50.1086 14.5263 49.8096 14.2122C49.509 13.8964 49.3437 13.4155 49.3437 12.7561H48.9653ZM48.9653 11.0344V12.7561H49.3437V11.0344H48.9653ZM56.7274 10.8452H49.1545V11.2235H56.7274V10.8452ZM56.5383 7.54166V11.0344H56.9166V7.54166H56.5383ZM53.1013 4.09056C54.1856 4.09056 55.0398 4.41655 55.6226 4.99768C56.2053 5.57868 56.5383 6.43623 56.5383 7.54166H56.9166C56.9166 6.35962 56.5589 5.39702 55.8897 4.72975C55.2207 4.0626 54.2618 3.71219 53.1013 3.71219V4.09056ZM51.0292 4.09056H53.1013V3.71219H51.0292V4.09056ZM47.5676 7.54166C47.5676 6.43624 47.9006 5.57892 48.4861 4.99801C49.0717 4.41688 49.9321 4.09056 51.0292 4.09056V3.71219C49.857 3.71219 48.8919 4.06228 48.2196 4.72942C47.547 5.39679 47.1893 6.3596 47.1893 7.54166H47.5676ZM47.5676 12.8053V7.54166H47.1893V12.8053H47.5676ZM51.0292 16.2564C49.9321 16.2564 49.0717 15.9301 48.4861 15.349C47.9006 14.7681 47.5676 13.9107 47.5676 12.8053H47.1893C47.1893 13.9874 47.547 14.9502 48.2196 15.6176C48.8919 16.2847 49.857 16.6348 51.0292 16.6348V16.2564ZM49.1545 9.91993H54.976V9.54157H49.1545V9.91993ZM48.9653 7.59085V9.73075H49.3437V7.59085H48.9653ZM51.2266 5.28637C50.5035 5.28637 49.9289 5.48 49.5366 5.88508C49.1454 6.28907 48.9653 6.87286 48.9653 7.59085H49.3437C49.3437 6.93144 49.5089 6.45758 49.8084 6.14828C50.1069 5.84005 50.5683 5.66473 51.2266 5.66473V5.28637ZM52.904 5.28637H51.2266V5.66473H52.904V5.28637ZM55.1652 7.59085C55.1652 6.87286 54.9851 6.28907 54.5939 5.88508C54.2017 5.48 53.6271 5.28637 52.904 5.28637V5.66473C53.5623 5.66473 54.0237 5.84005 54.3221 6.14828C54.6216 6.45758 54.7869 6.93144 54.7869 7.59085H55.1652ZM55.1652 9.73075V7.59085H54.7869V9.73075H55.1652ZM36.0185 15.9915H37.3999V15.6131H36.0185V15.9915ZM32.2772 12.1556C32.2772 13.3367 32.6147 14.3007 33.265 14.9701C33.916 15.6402 34.8577 15.9915 36.0185 15.9915V15.6131C34.9346 15.6131 34.1002 15.2868 33.5364 14.7064C32.9718 14.1253 32.6556 13.266 32.6556 12.1556H32.2772ZM32.2772 7.54803V12.1556H32.6556V7.54803H32.2772ZM36.1172 3.71219C34.9448 3.71219 33.9797 4.06293 33.3074 4.73122C32.6349 5.3997 32.2772 6.36407 32.2772 7.54803H32.6556C32.6556 6.44051 32.9886 5.58156 33.5741 4.99957C34.1598 4.41741 35.0201 4.09056 36.1172 4.09056V3.71219ZM41.8154 3.71219H36.1172V4.09056H41.8154V3.71219ZM42.0046 16.4675V3.90138H41.6262V16.4675H42.0046ZM38.1646 20.3034C39.3379 20.3034 40.3028 19.9459 40.9747 19.2748C41.6467 18.6036 42.0046 17.6397 42.0046 16.4675H41.6262C41.6262 17.5623 41.2934 18.4217 40.7073 19.0071C40.1212 19.5925 39.2607 19.925 38.1646 19.925V20.3034ZM33.2557 20.3034H38.1646V19.925H33.2557V20.3034ZM33.0666 18.5126V20.1142H33.4449V18.5126H33.0666ZM37.9426 18.3235H33.2557V18.7018H37.9426V18.3235ZM39.8255 16.3936C39.8255 17.056 39.6655 17.5305 39.3693 17.8397C39.0745 18.1474 38.614 18.3235 37.9426 18.3235V18.7018C38.6772 18.7018 39.2528 18.5082 39.6425 18.1014C40.0308 17.6961 40.2038 17.1111 40.2038 16.3936H39.8255ZM39.8255 15.8023V16.3936H40.2038V15.8023H39.8255ZM37.3999 15.9915H40.0147V15.6131H37.3999V15.9915ZM39.8255 5.47831V14.2253H40.2038V5.47831H39.8255ZM36.3392 5.66749H40.0147V5.28913H36.3392V5.66749ZM34.4563 7.62195C34.4563 6.95958 34.6163 6.47813 34.9136 6.1624C35.209 5.84873 35.6695 5.66749 36.3392 5.66749V5.28913C35.6028 5.28913 35.0273 5.48979 34.6382 5.903C34.251 6.31413 34.0779 6.9045 34.0779 7.62195H34.4563ZM34.4563 12.0817V7.62195H34.0779V12.0817H34.4563ZM36.3392 14.0362C35.6678 14.0362 35.2077 13.8602 34.9131 13.5499C34.6166 13.2378 34.4563 12.7572 34.4563 12.0817H34.0779C34.0779 12.8107 34.2506 13.4019 34.6387 13.8105C35.0286 14.2209 35.6045 14.4145 36.3392 14.4145V14.0362ZM40.0147 14.0362H36.3392V14.4145H40.0147V14.0362ZM26.1583 15.6131H24.7769V15.9915H26.1583V15.6131ZM28.773 15.6131H26.1583V15.9915H28.773V15.6131ZM28.9622 16.3936V15.8023H28.5839V16.3936H28.9622ZM26.701 18.7018C27.4356 18.7018 28.0112 18.5082 28.4009 18.1014C28.7892 17.6961 28.9622 17.1111 28.9622 16.3936H28.5839C28.5839 17.056 28.4239 17.5305 28.1277 17.8397C27.8329 18.1474 27.3724 18.3235 26.701 18.3235V18.7018ZM22.0141 18.7018H26.701V18.3235H22.0141V18.7018ZM22.2033 20.1142V18.5126H21.825V20.1142H22.2033ZM26.923 19.925H22.0141V20.3034H26.923V19.925ZM30.3846 16.4675C30.3846 17.5623 30.0518 18.4217 29.4657 19.0071C28.8796 19.5925 28.0191 19.925 26.923 19.925V20.3034C28.0963 20.3034 29.0612 19.9459 29.7331 19.2748C30.4051 18.6036 30.763 17.6397 30.763 16.4675H30.3846ZM30.3846 3.90138V16.4675H30.763V3.90138H30.3846ZM24.8756 4.09056H30.5738V3.71219H24.8756V4.09056ZM21.414 7.54803C21.414 6.44051 21.747 5.58156 22.3325 4.99957C22.9182 4.41741 23.7785 4.09056 24.8756 4.09056V3.71219C23.7032 3.71219 22.7381 4.06293 22.0658 4.73122C21.3933 5.3997 21.0356 6.36407 21.0356 7.54803H21.414ZM21.414 12.1556V7.54803H21.0356V12.1556H21.414ZM24.7769 15.6131C23.6929 15.6131 22.8586 15.2868 22.2948 14.7064C21.7302 14.1253 21.414 13.266 21.414 12.1556H21.0356C21.0356 13.3367 21.3731 14.3007 22.0234 14.9701C22.6744 15.6402 23.6161 15.9915 24.7769 15.9915V15.6131ZM28.9622 14.2253V5.47831H28.5839V14.2253H28.9622ZM25.0976 14.4145H28.773V14.0362H25.0976V14.4145ZM22.8363 12.0817C22.8363 12.8107 23.009 13.4019 23.3971 13.8105C23.787 14.2209 24.3629 14.4145 25.0976 14.4145V14.0362C24.4262 14.0362 23.9661 13.8602 23.6714 13.5499C23.375 13.2378 23.2147 12.7572 23.2147 12.0817H22.8363ZM22.8363 7.62195V12.0817H23.2147V7.62195H22.8363ZM25.0976 5.28913C24.3612 5.28913 23.7857 5.48979 23.3966 5.903C23.0094 6.31413 22.8363 6.9045 22.8363 7.62195H23.2147C23.2147 6.95958 23.3747 6.47813 23.672 6.1624C23.9674 5.84873 24.4279 5.66749 25.0976 5.66749V5.28913ZM28.773 5.28913H25.0976V5.66749H28.773V5.28913ZM13.5333 16.6348H15.6647V16.2564H13.5333V16.6348ZM9.67612 12.8053C9.67612 13.9876 10.0356 14.9506 10.7113 15.6179C11.3867 16.2848 12.3559 16.6348 13.5333 16.6348V16.2564C12.4305 16.2564 11.5658 15.9299 10.9772 15.3487C10.3889 14.7677 10.0545 13.9105 10.0545 12.8053H9.67612ZM9.67612 7.54166V12.8053H10.0545V7.54166H9.67612ZM13.5333 3.71219C12.3559 3.71219 11.3867 4.06213 10.7113 4.72911C10.0356 5.39642 9.67612 6.35935 9.67612 7.54166H10.0545C10.0545 6.4365 10.3889 5.57928 10.9772 4.99832C11.5658 4.41703 12.4305 4.09056 13.5333 4.09056V3.71219ZM15.6647 3.71219H13.5333V4.09056H15.6647V3.71219ZM19.5218 7.54166C19.5218 6.35935 19.1623 5.39642 18.4866 4.72911C17.8113 4.06213 16.842 3.71219 15.6647 3.71219V4.09056C16.7674 4.09056 17.6322 4.41703 18.2208 4.99832C18.809 5.57928 19.1435 6.4365 19.1435 7.54166H19.5218ZM19.5218 12.8053V7.54166H19.1435V12.8053H19.5218ZM15.6647 16.6348C16.842 16.6348 17.8113 16.2848 18.4866 15.6179C19.1623 14.9506 19.5218 13.9876 19.5218 12.8053H19.1435C19.1435 13.9105 18.809 14.7677 18.2208 15.3487C17.6322 15.9299 16.7674 16.2564 15.6647 16.2564V16.6348ZM15.4664 14.6822H13.7315V15.0606H15.4664V14.6822ZM17.359 12.7561C17.359 13.4153 17.1931 13.8891 16.8922 14.1984C16.5921 14.5068 16.1282 14.6822 15.4664 14.6822V15.0606C16.1925 15.0606 16.7695 14.8671 17.1634 14.4622C17.5564 14.0582 17.7374 13.4743 17.7374 12.7561H17.359ZM17.359 7.59085V12.7561H17.7374V7.59085H17.359ZM15.4664 5.66473C16.1282 5.66473 16.5921 5.84019 16.8922 6.14859C17.1931 6.45792 17.359 6.93166 17.359 7.59085H17.7374C17.7374 6.87264 17.5564 6.28873 17.1634 5.88476C16.7695 5.47987 16.1925 5.28637 15.4664 5.28637V5.66473ZM13.7315 5.66473H15.4664V5.28637H13.7315V5.66473ZM11.8389 7.59085C11.8389 6.93166 12.0048 6.45792 12.3058 6.14859C12.6058 5.84019 13.0698 5.66473 13.7315 5.66473V5.28637C13.0054 5.28637 12.4285 5.47987 12.0346 5.88476C11.6416 6.28873 11.4605 6.87264 11.4605 7.59085H11.8389ZM11.8389 12.7561V7.59085H11.4605V12.7561H11.8389ZM13.7315 14.6822C13.0698 14.6822 12.6058 14.5068 12.3058 14.1984C12.0048 13.8891 11.8389 13.4153 11.8389 12.7561H11.4605C11.4605 13.4743 11.6416 14.0582 12.0346 14.4622C12.4285 14.8671 13.0054 15.0606 13.7315 15.0606V14.6822ZM3.18918 3.51144V1.06425H2.81082V3.51144H3.18918ZM3.18918 5.51808V3.51144H2.81082V5.51808H3.18918ZM3.18918 12.8759V5.51808H2.81082V12.8759H3.18918ZM6.75763 16.2595C5.6606 16.2595 4.77143 15.9457 4.15826 15.377C3.54702 14.8101 3.18918 13.9707 3.18918 12.8759H2.81082C2.81082 14.0569 3.19953 15.0039 3.90097 15.6544C4.60048 16.3032 5.59013 16.6379 6.75763 16.6379V16.2595ZM8.32538 16.2595H6.75763V16.6379H8.32538V16.2595ZM8.1362 14.8825V16.4487H8.51456V14.8825H8.1362ZM6.98159 15.0717H8.32538V14.6933H6.98159V15.0717ZM4.60254 12.8025C4.60254 13.5244 4.81325 14.1007 5.23492 14.4946C5.65446 14.8866 6.25483 15.0717 6.98159 15.0717V14.6933C6.3148 14.6933 5.82022 14.5236 5.49322 14.2181C5.16834 13.9146 4.9809 13.4509 4.9809 12.8025H4.60254ZM4.60254 5.44289L4.60254 12.8025H4.9809L4.9809 5.44289H4.60254ZM7.85201 5.25371H4.79172V5.63207H7.85201V5.25371ZM7.66283 3.90445L7.66283 5.44289H8.04119L8.04119 3.90445H7.66283ZM4.77513 4.09363H7.85201V3.71527H4.77513V4.09363ZM4.58595 1.06425V3.90445H4.96431V1.06425H4.58595ZM3 1.25343H4.77513V0.875067H3V1.25343ZM48.3256 36.519H53.1835V36.1406H48.3256V36.519ZM48.1363 34.8048L48.1364 36.3298L48.5148 36.3298L48.5147 34.8048L48.1363 34.8048ZM52.9357 34.6156H48.3255V34.994H52.9357V34.6156ZM54.6797 33.3782C54.6797 33.8222 54.5321 34.1157 54.266 34.3068C53.9877 34.5067 53.5516 34.6156 52.9357 34.6156V34.994C53.5837 34.994 54.1143 34.8816 54.4867 34.6141C54.8712 34.338 55.0581 33.9181 55.0581 33.3782H54.6797ZM54.6797 32.9109V33.3782H55.0581V32.9109H54.6797ZM53.5359 31.2915C53.9782 31.4648 54.2591 31.6949 54.4316 31.9596C54.6046 32.2251 54.6797 32.543 54.6797 32.9109H55.0581C55.0581 32.4917 54.9722 32.0963 54.7486 31.7531C54.5245 31.409 54.1733 31.1349 53.6739 30.9392L53.5359 31.2915ZM50.6069 30.0599L53.5315 31.2897L53.6782 30.941L50.7535 29.7111L50.6069 30.0599ZM48.1364 26.811C48.1364 27.6274 48.3171 28.269 48.7313 28.7971C49.1416 29.3201 49.7649 29.7108 50.6077 30.0603L50.7527 29.7108C49.9348 29.3716 49.3809 29.0121 49.029 28.5635C48.681 28.12 48.5148 27.5686 48.5148 26.811H48.1364ZM51.6716 23.5964C50.469 23.5964 49.5767 23.8724 48.9855 24.4322C48.3923 24.994 48.1364 25.8092 48.1364 26.811H48.5148C48.5148 25.8696 48.7545 25.1721 49.2457 24.707C49.7389 24.2399 50.5196 23.9748 51.6716 23.9748V23.5964ZM56.7278 23.5964H51.6716V23.9748H56.7278V23.5964ZM56.917 25.3106V23.7856H56.5387V25.3106H56.917ZM51.9938 25.4998H56.7278V25.1214H51.9938V25.4998ZM50.3737 26.5404C50.3737 26.3032 50.4773 26.0498 50.7242 25.8517C50.9729 25.6521 51.3794 25.4998 51.9938 25.4998V25.1214C51.3194 25.1214 50.8212 25.2888 50.4874 25.5566C50.1519 25.8258 49.9953 26.1873 49.9953 26.5404H50.3737ZM50.3737 26.9585V26.5404H49.9953V26.9585H50.3737ZM51.6644 28.3558C51.2515 28.1992 50.9283 28.0263 50.7089 27.8059C50.4966 27.5925 50.3737 27.3269 50.3737 26.9585H49.9953C49.9953 27.4264 50.1574 27.7881 50.4408 28.0728C50.7171 28.3504 51.1003 28.5465 51.5301 28.7096L51.6644 28.3558ZM54.599 29.6635L51.6743 28.3599L51.5202 28.7055L54.4449 30.0091L54.599 29.6635ZM56.917 33.2306C56.917 32.4442 56.8235 31.7345 56.4771 31.1263C56.1278 30.513 55.5362 30.0278 54.5905 29.66L54.4534 30.0126C55.3418 30.3582 55.8531 30.7953 56.1483 31.3135C56.4463 31.8367 56.5387 32.4675 56.5387 33.2306H56.917ZM53.1835 36.519C54.4052 36.519 55.3456 36.2762 55.9811 35.7257C56.6225 35.17 56.917 34.3332 56.917 33.2306H56.5387C56.5387 34.268 56.2631 34.9807 55.7334 35.4397C55.1978 35.9038 54.3661 36.1406 53.1835 36.1406V36.519ZM38.7725 39.8092H36.9633V40.1876H38.7725V39.8092ZM38.5833 36.3901V39.9984H38.9617V36.3901H38.5833ZM41.3996 36.2009H38.7725V36.5793H41.3996V36.2009ZM42.8866 36.2009H41.3996V36.5793H42.8866V36.2009ZM46.2415 32.7323C46.2415 33.847 45.9294 34.7092 45.3681 35.2919C44.8078 35.8736 43.9758 36.2009 42.8866 36.2009V36.5793C44.0526 36.5793 44.9927 36.2269 45.6406 35.5544C46.2875 34.8828 46.6198 33.9161 46.6198 32.7323H46.2415ZM46.2415 27.4434V32.7323H46.6198V27.4434H46.2415ZM42.8866 23.9748C43.9758 23.9748 44.8078 24.3021 45.3681 24.8838C45.9294 25.4665 46.2415 26.3287 46.2415 27.4434H46.6198C46.6198 26.2596 46.2875 25.2929 45.6406 24.6213C44.9927 23.9488 44.0526 23.5964 42.8866 23.5964V23.9748ZM41.3996 23.9748H42.8866V23.5964H41.3996V23.9748ZM38.4255 23.9748H41.3996V23.5964H38.4255V23.9748ZM36.9633 23.9748L38.4255 23.9748L38.4255 23.5964L36.9633 23.5964L36.9633 23.9748ZM37.1525 39.9984L37.1525 23.7856H36.7741L36.7741 39.9984H37.1525ZM38.7725 34.9975H42.5396V34.6192H38.7725V34.9975ZM38.5833 25.3674V34.8083H38.9617V25.3674H38.5833ZM42.5396 25.1782H38.7725V25.5565H42.5396V25.1782ZM44.8354 27.5175C44.8354 26.7962 44.6545 26.2041 44.2591 25.7924C43.8624 25.3793 43.2791 25.1782 42.5396 25.1782V25.5565C43.2128 25.5565 43.6828 25.7385 43.9862 26.0545C44.291 26.3718 44.457 26.8548 44.457 27.5175H44.8354ZM44.8354 32.6582V27.5175H44.457V32.6582H44.8354ZM42.5396 34.9975C43.2791 34.9975 43.8624 34.7964 44.2591 34.3833C44.6545 33.9716 44.8354 33.3795 44.8354 32.6582H44.457C44.457 33.3209 44.291 33.8039 43.9862 34.1212C43.6828 34.4372 43.2128 34.6192 42.5396 34.6192V34.9975ZM25.6025 40.1876H27.4117V39.8092H25.6025V40.1876ZM25.4133 23.7856L25.4133 39.9984H25.7917L25.7916 23.7856H25.4133ZM27.0647 23.5964L25.6025 23.5964L25.6025 23.9748L27.0647 23.9748L27.0647 23.5964ZM30.0387 23.5964H27.0647V23.9748H30.0387V23.5964ZM31.5257 23.5964H30.0387V23.9748H31.5257V23.5964ZM35.259 27.4434C35.259 26.2596 34.9267 25.2929 34.2798 24.6213C33.6319 23.9488 32.6918 23.5964 31.5257 23.5964V23.9748C32.615 23.9748 33.4469 24.3021 34.0073 24.8838C34.5686 25.4665 34.8806 26.3287 34.8806 27.4434H35.259ZM35.259 32.7323V27.4434H34.8806V32.7323H35.259ZM31.5257 36.5793C32.6918 36.5793 33.6319 36.2269 34.2798 35.5544C34.9267 34.8828 35.259 33.9161 35.259 32.7323H34.8806C34.8806 33.847 34.5686 34.7092 34.0073 35.2919C33.4469 35.8736 32.615 36.2009 31.5257 36.2009V36.5793ZM30.0387 36.5793H31.5257V36.2009H30.0387V36.5793ZM27.4117 36.5793H30.0387V36.2009H27.4117V36.5793ZM27.6008 39.9984V36.3901H27.2225V39.9984H27.6008ZM31.1788 34.6192H27.4117V34.9975H31.1788V34.6192ZM33.0962 32.6582C33.0962 33.3209 32.9301 33.8039 32.6254 34.1212C32.3219 34.4372 31.8519 34.6192 31.1788 34.6192V34.9975C31.9183 34.9975 32.5016 34.7964 32.8983 34.3833C33.2937 33.9716 33.4746 33.3795 33.4746 32.6582H33.0962ZM33.0962 27.5175V32.6582H33.4746V27.5175H33.0962ZM31.1788 25.5565C31.8519 25.5565 32.3219 25.7385 32.6254 26.0545C32.9301 26.3718 33.0962 26.8548 33.0962 27.5175H33.4746C33.4746 26.7962 33.2937 26.2041 32.8983 25.7924C32.5016 25.3793 31.9183 25.1782 31.1788 25.1782V25.5565ZM27.4117 25.5565H31.1788V25.1782H27.4117V25.5565ZM27.6008 34.8083V25.3674H27.2225V34.8083H27.6008ZM3.18918 30.0577C3.18918 26.6992 5.92772 23.9748 9.30816 23.9748V23.5964C5.7208 23.5964 2.81082 26.4882 2.81082 30.0577H3.18918ZM9.30816 36.1406C5.92772 36.1406 3.18918 33.4162 3.18918 30.0577H2.81082C2.81082 33.6272 5.7208 36.519 9.30816 36.519V36.1406ZM23.7098 36.1406H9.30816V36.519H23.7098V36.1406ZM23.5206 30.2944V36.3298H23.899V30.2944H23.5206ZM17.1636 23.9748C20.6755 23.9748 23.5206 26.8052 23.5206 30.2944H23.899C23.899 26.5942 20.8824 23.5964 17.1636 23.5964V23.9748ZM9.30816 23.9748H17.1636V23.5964H9.30816V23.9748ZM9.27176 34.7424C11.8599 34.7424 13.9579 32.6443 13.9579 30.0562H13.5796C13.5796 32.4354 11.6509 34.364 9.27176 34.364V34.7424ZM4.58559 30.0562C4.58559 32.6443 6.68366 34.7424 9.27176 34.7424V34.364C6.89262 34.364 4.96395 32.4354 4.96395 30.0562H4.58559ZM9.27176 25.3701C6.68366 25.3701 4.58559 27.4681 4.58559 30.0562H4.96395C4.96395 27.6771 6.89262 25.7484 9.27176 25.7484V25.3701ZM13.9579 30.0562C13.9579 27.4681 11.8599 25.3701 9.27176 25.3701V25.7484C11.6509 25.7484 13.5796 27.6771 13.5796 30.0562H13.9579Z" fill="white" fill-opacity="0.2" mask="url(#path-1-inside-1_450_12880)"/>
<g filter="url(#filter1_d_450_12880)">
<mask id="mask0_450_12880" style="mask-type:luminance" maskUnits="userSpaceOnUse" x="4" y="25" width="10" height="10">
<circle cx="9.11183" cy="30.0776" r="4.7295" fill="white"/>
</mask>
<g mask="url(#mask0_450_12880)">
<g filter="url(#filter2_iiiiii_450_12880)">
<circle cx="9.11232" cy="30.0776" r="4.7295" fill="black"/>
</g>
<g filter="url(#filter3_f_450_12880)">
<circle cx="9.11139" cy="30.0782" r="3.97613" fill="url(#paint1_linear_450_12880)"/>
</g>
<g style="mix-blend-mode:plus-lighter" filter="url(#filter4_i_450_12880)">
<circle cx="9.11232" cy="30.0776" r="4.7295" fill="white" fill-opacity="0.01"/>
</g>
<g filter="url(#filter5_f_450_12880)">
<g style="mix-blend-mode:screen">
<path d="M10.4928 27.9442C10.4928 28.8988 9.28017 28.8231 8.23267 28.8231C7.18517 28.8231 6.97705 29.5393 6.97705 28.5846C6.97705 27.6299 7.82622 26.856 8.87372 26.856C9.92123 26.856 10.4928 26.9895 10.4928 27.9442Z" fill="#4E00CC"/>
</g>
<g style="mix-blend-mode:screen">
<path d="M12.8368 31.2162C12.8368 32.1649 11.2339 34.0445 10.053 34.0445C8.87212 34.0445 6.89355 34.0808 6.89355 33.1321C6.89355 32.1833 8.87212 32.8809 10.053 32.8809C11.2339 32.8809 12.8368 30.2675 12.8368 31.2162Z" fill="#FD18BD"/>
</g>
</g>
<g filter="url(#filter6_f_450_12880)">
<path d="M9.57046 28.3097C9.59566 27.9784 9.40133 27.7821 9.19961 27.5426C8.91 27.1989 8.76415 27.1055 8.32068 27.1055C6.52726 27.1055 6.01056 28.3108 5.60854 30.1717C5.51335 30.6123 5.55283 31.1338 5.66071 31.568C5.73233 31.8562 5.88466 32.1419 6.13023 32.3203C6.38213 32.5034 6.6876 32.5701 6.99442 32.5304C7.58714 32.4539 6.71643 30.7093 7.56147 30.2395C7.90429 30.0489 8.02392 29.6179 8.32068 29.3605C8.62272 29.0986 9.53741 28.7443 9.57046 28.3097Z" fill="#5045E9"/>
<path d="M9.10358 27.6235C9.1184 27.6411 9.13292 27.6583 9.14709 27.675C9.33619 27.898 9.46435 28.0491 9.44526 28.3002C9.44023 28.3664 9.39991 28.4437 9.31342 28.5332C9.22821 28.6213 9.11074 28.7084 8.97807 28.7946C8.87747 28.8599 8.77277 28.9217 8.67078 28.982C8.6383 29.0012 8.60609 29.0202 8.57438 29.0392C8.44705 29.1152 8.32365 29.1918 8.23841 29.2657C8.0958 29.3894 7.9901 29.5494 7.89637 29.6914C7.88202 29.7131 7.86795 29.7344 7.85408 29.7551C7.74444 29.9185 7.64308 30.0505 7.50046 30.1297C7.24654 30.2709 7.12758 30.507 7.07663 30.7601C7.0264 31.0096 7.03914 31.2897 7.05812 31.5419C7.06203 31.5939 7.06616 31.6444 7.07015 31.6932C7.08626 31.8902 7.1002 32.0608 7.0891 32.196C7.08225 32.2793 7.06666 32.3323 7.04748 32.3633C7.0326 32.3874 7.01454 32.4012 6.97834 32.4059C6.7001 32.4418 6.42749 32.3811 6.20404 32.2187C5.98949 32.0628 5.84951 31.8071 5.78256 31.5377C5.67788 31.1164 5.64123 30.615 5.73127 30.1982C5.93229 29.2677 6.15774 28.5262 6.543 28.0165C6.91978 27.518 7.4579 27.231 8.32068 27.231C8.53507 27.231 8.6585 27.254 8.76011 27.3066C8.86429 27.3606 8.95954 27.4526 9.10358 27.6235Z" stroke="#5045E9" stroke-width="0.251124" stroke-linecap="round"/>
</g>
<g filter="url(#filter7_f_450_12880)">
<path d="M8.39998 28.5187C8.41257 28.3606 8.31541 28.2669 8.21455 28.1525C8.06975 27.9884 7.99682 27.9438 7.77508 27.9438C6.87838 27.9438 6.62003 28.5192 6.41902 29.4076C6.37142 29.6179 6.39116 29.8669 6.4451 30.0741C6.48091 30.2117 6.55708 30.3481 6.67986 30.4332C6.80581 30.5206 6.95855 30.5525 7.11196 30.5335C7.40831 30.497 6.97296 29.6642 7.39548 29.4399C7.56689 29.3489 7.62671 29.1432 7.77508 29.0203C7.92611 28.8953 8.38345 28.7262 8.39998 28.5187Z" fill="#ECEAFF"/>
<path d="M8.1204 28.2356C8.12513 28.241 8.12975 28.2462 8.13425 28.2513C8.23749 28.3681 8.282 28.4185 8.27481 28.5087C8.27421 28.5163 8.26751 28.539 8.22836 28.5777C8.19089 28.6147 8.13694 28.6534 8.07182 28.6937C8.02271 28.7242 7.97193 28.7528 7.9212 28.7814C7.90476 28.7907 7.88832 28.8 7.87195 28.8093C7.80904 28.8451 7.74254 28.8843 7.69501 28.9236C7.61626 28.9888 7.55783 29.0735 7.51141 29.1408C7.5044 29.1509 7.49767 29.1607 7.49119 29.1699C7.43677 29.2473 7.39355 29.2988 7.33661 29.329C7.18838 29.4077 7.12005 29.5401 7.09175 29.6744C7.0644 29.8041 7.07175 29.9466 7.08123 30.067C7.08334 30.0937 7.0855 30.1191 7.08755 30.1431C7.09549 30.2362 7.10177 30.3099 7.09677 30.368C7.09535 30.3845 7.09318 30.3966 7.09082 30.4053C7.09035 30.407 7.0899 30.4085 7.08948 30.4098C6.96568 30.4235 6.84736 30.3966 6.75143 30.3301C6.66003 30.2667 6.59722 30.16 6.56661 30.0425C6.51615 29.8486 6.49952 29.6207 6.54148 29.4353C6.64193 28.9914 6.75216 28.651 6.93461 28.4205C7.10876 28.2006 7.35847 28.0694 7.77508 28.0694C7.87908 28.0694 7.92975 28.0803 7.96803 28.0992C8.00834 28.1191 8.049 28.1547 8.1204 28.2356Z" stroke="#5045E9" stroke-width="0.251124" stroke-linecap="round"/>
</g>
<g filter="url(#filter8_f_450_12880)">
<path d="M6.87268 33.1589C5.8157 32.2548 5.11709 31.0915 5.65891 29.8106C5.77029 29.5472 5.81351 29.3628 6.0356 29.1827C6.68022 28.6601 6.46649 31.1779 7.04006 31.7777C8.17929 32.969 7.90342 33.072 9.5513 33.0333C10.0805 33.0208 11.2301 32.4341 11.7277 32.6148C12.585 32.9261 11.3779 33.4942 10.514 33.7867C9.14721 34.2495 7.96928 34.0968 6.87268 33.1589Z" fill="#F451FF"/>
</g>
<g style="mix-blend-mode:screen" filter="url(#filter9_f_450_12880)">
<path d="M12.2618 32.003C12.3458 32.413 11.4726 33.4382 10.7068 33.5951C9.94097 33.7519 8.66106 34.0303 8.57709 33.6203C8.49312 33.2103 9.83798 33.249 10.6038 33.0922C11.3696 32.9353 12.1778 31.5929 12.2618 32.003Z" fill="white"/>
</g>
<g style="mix-blend-mode:screen" filter="url(#filter10_f_450_12880)">
<path d="M8.0555 32.3726C7.84509 32.4738 7.17163 32.1409 6.9826 31.7479C6.79357 31.3549 6.46881 30.7003 6.67923 30.5991C6.88964 30.4979 7.05164 31.2307 7.24067 31.6237C7.4297 32.0167 8.26592 32.2714 8.0555 32.3726Z" fill="white"/>
</g>
<g style="mix-blend-mode:screen" filter="url(#filter11_f_450_12880)">
<path d="M11.3436 32.4901C11.3849 32.6919 10.9551 33.1965 10.5782 33.2737C10.2013 33.3509 9.57132 33.4879 9.52999 33.2861C9.48867 33.0843 10.1506 33.1034 10.5275 33.0262C10.9044 32.949 11.3022 32.2883 11.3436 32.4901Z" fill="white"/>
</g>
<g filter="url(#filter12_f_450_12880)">
<path d="M12.5039 30.2475C12.7285 30.6568 11.4705 31.305 10.3992 31.893C9.32785 32.481 9.28352 32.9049 9.05887 32.4955C8.83422 32.0862 9.52059 31.2777 10.5919 30.6897C11.6633 30.1017 12.2792 29.8382 12.5039 30.2475Z" fill="black"/>
</g>
<circle opacity="0.77" cx="9.25917" cy="27.1034" r="0.0432318" transform="rotate(-52 9.25917 27.1034)" fill="white"/>
<circle opacity="0.77" cx="10.4557" cy="27.2638" r="0.0148054" transform="rotate(-153 10.4557 27.2638)" fill="white"/>
<circle opacity="0.88" cx="10.6624" cy="28.2573" r="0.0515229" transform="rotate(95 10.6624 28.2573)" fill="white"/>
<circle opacity="0.73" cx="12.0433" cy="28.8358" r="0.0432318" transform="rotate(142 12.0433 28.8358)" fill="white"/>
<circle opacity="0.76" cx="8.3884" cy="27.7043" r="0.0420474" transform="rotate(-127 8.3884 27.7043)" fill="white"/>
<circle opacity="0.84" cx="9.55904" cy="29.0491" r="0.0532995" transform="rotate(78 9.55904 29.0491)" fill="white"/>
<circle opacity="0.93" cx="10.2123" cy="29.2803" r="0.0148054" transform="rotate(139 10.2123 29.2803)" fill="white"/>
<circle opacity="0.99" cx="10.6787" cy="29.9194" r="0.0509306" transform="rotate(166 10.6787 29.9194)" fill="white"/>
<circle opacity="0.83" cx="11.1622" cy="30.5861" r="0.0331641" transform="rotate(139 11.1622 30.5861)" fill="white"/>
<circle opacity="0.9" cx="7.17098" cy="28.6649" r="0.0307953" transform="rotate(51 7.17098 28.6649)" fill="white"/>
<circle opacity="0.95" cx="7.31344" cy="28.8817" r="0.0296108" transform="rotate(36 7.31344 28.8817)" fill="white"/>
<circle opacity="0.74" cx="9.08604" cy="29.32" r="0.0509306" transform="rotate(153 9.08604 29.32)" fill="white"/>
<circle opacity="0.89" cx="9.46684" cy="30.5174" r="0.0367174" transform="rotate(-49 9.46684 30.5174)" fill="white"/>
<circle opacity="0.87" cx="9.46359" cy="30.9608" r="0.0296108" transform="rotate(114 9.46359 30.9608)" fill="white"/>
<circle opacity="0.71" cx="10.6944" cy="30.9616" r="0.0296108" transform="rotate(-177 10.6944 30.9616)" fill="white"/>
<circle opacity="0.79" cx="6.73162" cy="28.846" r="0.0651438" transform="rotate(114 6.73162 28.846)" fill="white"/>
<circle opacity="0.76" cx="7.21283" cy="28.9538" r="0.0296108" transform="rotate(-175 7.21283 28.9538)" fill="white"/>
<circle opacity="0.97" cx="7.4894" cy="30.4137" r="0.0377538" transform="rotate(-95 7.4894 30.4137)" fill="white"/>
<circle opacity="0.92" cx="8.57529" cy="31.0284" r="0.0176185" transform="rotate(85 8.57529 31.0284)" fill="white"/>
<circle opacity="0.92" cx="9.07364" cy="31.896" r="0.0315355" transform="rotate(-171 9.07364 31.896)" fill="white"/>
<circle opacity="0.86" cx="9.66381" cy="32.6672" r="0.0148054" transform="rotate(6 9.66381 32.6672)" fill="white"/>
<circle opacity="0.92" cx="10.5691" cy="33.1408" r="0.0148054" transform="rotate(-154 10.5691 33.1408)" fill="white"/>
<circle opacity="0.79" cx="6.72918" cy="30.5043" r="0.0497462" transform="rotate(31 6.72918 30.5043)" fill="white"/>
<circle opacity="0.74" cx="6.79855" cy="31.1657" r="0.0657361" transform="rotate(152 6.79855 31.1657)" fill="white"/>
<circle opacity="0.76" cx="7.51463" cy="31.2217" r="0.0148054" transform="rotate(-152 7.51463 31.2217)" fill="white"/>
<circle opacity="0.82" cx="7.48657" cy="32.6696" r="0.0296108" transform="rotate(-133 7.48657 32.6696)" fill="white"/>
<circle opacity="0.94" cx="8.64388" cy="32.7667" r="0.0165821" transform="rotate(-29 8.64388 32.7667)" fill="white"/>
<circle opacity="0.77" cx="8.1097" cy="28.9211" r="0.0239244" transform="rotate(-97 8.1097 28.9211)" fill="white"/>
<circle opacity="0.77" cx="8.6405" cy="28.5157" r="0.00823862" transform="rotate(162 8.6405 28.5157)" fill="white"/>
<circle opacity="0.88" cx="9.11074" cy="28.8239" r="0.0285126" transform="rotate(50 9.11074 28.8239)" fill="white"/>
<circle opacity="0.73" cx="9.8769" cy="28.5086" r="0.0239244" transform="rotate(97 9.8769 28.5086)" fill="white"/>
<circle opacity="0.76" cx="8.00461" cy="29.5006" r="0.0232689" transform="rotate(-172 8.00461 29.5006)" fill="white"/>
<circle opacity="0.84" cx="8.98572" cy="29.5677" r="0.0294958" transform="rotate(33 8.98572 29.5677)" fill="white"/>
<circle opacity="0.93" cx="9.33569" cy="29.3997" r="0.00823862" transform="rotate(94 9.33569 29.3997)" fill="white"/>
<circle opacity="0.99" cx="9.76772" cy="29.473" r="0.0281849" transform="rotate(121 9.76772 29.473)" fill="white"/>
<circle opacity="0.83" cx="10.2172" cy="29.5439" r="0.018353" transform="rotate(94 10.2172 29.5439)" fill="white"/>
<circle opacity="0.9" cx="7.90408" cy="30.3483" r="0.017042" transform="rotate(6 7.90408 30.3483)" fill="white"/>
<circle opacity="0.95" cx="8.04048" cy="30.3764" r="0.0163866" transform="rotate(-9 8.04048 30.3764)" fill="white"/>
<circle opacity="0.74" cx="8.91151" cy="29.8545" r="0.0281849" transform="rotate(108 8.91151 29.8545)" fill="white"/>
<circle opacity="0.89" cx="9.52764" cy="30.1761" r="0.0203194" transform="rotate(-94 9.52764 30.1761)" fill="white"/>
<circle opacity="0.87" cx="9.69956" cy="30.3508" r="0.0163866" transform="rotate(69 9.69956 30.3508)" fill="white"/>
<circle opacity="0.71" cx="10.1807" cy="29.8684" r="0.0163866" transform="rotate(138 10.1807 29.8684)" fill="white"/>
<circle opacity="0.79" cx="7.80226" cy="30.5959" r="0.0360505" transform="rotate(69 7.80226 30.5959)" fill="white"/>
<circle opacity="0.76" cx="8.0316" cy="30.4487" r="0.0163866" transform="rotate(140 8.0316 30.4487)" fill="white"/>
<circle opacity="0.97" cx="8.71276" cy="30.9066" r="0.0208929" transform="rotate(-140 8.71276 30.9066)" fill="white"/>
<circle opacity="0.92" cx="9.37718" cy="30.7223" r="0.00980396" transform="rotate(40 9.37718 30.7223)" fill="white"/>
<circle opacity="0.92" cx="9.91215" cy="30.8716" r="0.0174517" transform="rotate(144 9.91215 30.8716)" fill="white"/>
<circle opacity="0.86" cx="10.4442" cy="30.9373" r="0.00823862" transform="rotate(-39 10.4442 30.9373)" fill="white"/>
<circle opacity="0.92" cx="10.9842" cy="30.7688" r="0.00823862" transform="rotate(161 10.9842 30.7688)" fill="white"/>
<circle opacity="0.79" cx="8.44841" cy="31.2403" r="0.0275294" transform="rotate(-14 8.44841 31.2403)" fill="white"/>
<circle opacity="0.74" cx="8.73583" cy="31.47" r="0.0363782" transform="rotate(107 8.73583 31.47)" fill="white"/>
<circle opacity="0.76" cx="9.03659" cy="31.2147" r="0.00823862" transform="rotate(163 9.03659 31.2147)" fill="white"/>
<circle opacity="0.82" cx="9.59455" cy="31.796" r="0.0163866" transform="rotate(-178 9.59455 31.796)" fill="white"/>
<circle opacity="0.94" cx="10.0837" cy="31.3789" r="0.00922726" transform="rotate(-74 10.0837 31.3789)" fill="white"/>
</g>
</g>
<defs>
<filter id="filter0_ii_450_12880" x="3" y="0" width="53.7278" height="40.7553" filterUnits="userSpaceOnUse" color-interpolation-filters="sRGB">
<feFlood flood-opacity="0" result="BackgroundImageFix"/>
<feBlend mode="normal" in="SourceGraphic" in2="BackgroundImageFix" result="shape"/>
<feColorMatrix in="SourceAlpha" type="matrix" values="0 0 0 0 0 0 0 0 0 0 0 0 0 0 0 0 0 0 127 0" result="hardAlpha"/>
<feOffset dy="0.75672"/>
<feGaussianBlur stdDeviation="0.75672"/>
<feComposite in2="hardAlpha" operator="arithmetic" k2="-1" k3="1"/>
<feColorMatrix type="matrix" values="0 0 0 0 1 0 0 0 0 1 0 0 0 0 1 0 0 0 0.25 0"/>
<feBlend mode="normal" in2="shape" result="effect1_innerShadow_450_12880"/>
<feColorMatrix in="SourceAlpha" type="matrix" values="0 0 0 0 0 0 0 0 0 0 0 0 0 0 0 0 0 0 127 0" result="hardAlpha"/>
<feOffset/>
<feGaussianBlur stdDeviation="0.28377"/>
<feComposite in2="hardAlpha" operator="arithmetic" k2="-1" k3="1"/>
<feColorMatrix type="matrix" values="0 0 0 0 1 0 0 0 0 1 0 0 0 0 1 0 0 0 0.4 0"/>
<feBlend mode="normal" in2="effect1_innerShadow_450_12880" result="effect2_innerShadow_450_12880"/>
</filter>
<filter id="filter1_d_450_12880" x="0.929383" y="20.8482" width="20.5513" height="20.5518" filterUnits="userSpaceOnUse" color-interpolation-filters="sRGB">
<feFlood flood-opacity="0" result="BackgroundImageFix"/>
<feColorMatrix in="SourceAlpha" type="matrix" values="0 0 0 0 0 0 0 0 0 0 0 0 0 0 0 0 0 0 127 0" result="hardAlpha"/>
<feOffset dx="2.09299" dy="1.04649"/>
<feGaussianBlur stdDeviation="2.77321"/>
<feComposite in2="hardAlpha" operator="out"/>
<feColorMatrix type="matrix" values="0 0 0 0 0 0 0 0 0 0 0 0 0 0 0 0 0 0 0.78 0"/>
<feBlend mode="normal" in2="BackgroundImageFix" result="effect1_dropShadow_450_12880"/>
<feBlend mode="normal" in="SourceGraphic" in2="effect1_dropShadow_450_12880" result="shape"/>
</filter>
<filter id="filter2_iiiiii_450_12880" x="3.37832" y="24.8459" width="10.7146" height="10.1286" filterUnits="userSpaceOnUse" color-interpolation-filters="sRGB">
<feFlood flood-opacity="0" result="BackgroundImageFix"/>
<feBlend mode="normal" in="SourceGraphic" in2="BackgroundImageFix" result="shape"/>
<feColorMatrix in="SourceAlpha" type="matrix" values="0 0 0 0 0 0 0 0 0 0 0 0 0 0 0 0 0 0 127 0" result="hardAlpha"/>
<feOffset dx="-1.0045" dy="0.167416"/>
<feGaussianBlur stdDeviation="1.19284"/>
<feComposite in2="hardAlpha" operator="arithmetic" k2="-1" k3="1"/>
<feColorMatrix type="matrix" values="0 0 0 0 0.490196 0 0 0 0 0.227451 0 0 0 0 0.972549 0 0 0 1 0"/>
<feBlend mode="normal" in2="shape" result="effect1_innerShadow_450_12880"/>
<feColorMatrix in="SourceAlpha" type="matrix" values="0 0 0 0 0 0 0 0 0 0 0 0 0 0 0 0 0 0 127 0" result="hardAlpha"/>
<feOffset dx="-1.0045" dy="0.167416"/>
<feGaussianBlur stdDeviation="1.71183"/>
<feComposite in2="hardAlpha" operator="arithmetic" k2="-1" k3="1"/>
<feColorMatrix type="matrix" values="0 0 0 0 0.196078 0 0 0 0 0.160784 0 0 0 0 0.654902 0 0 0 1 0"/>
<feBlend mode="normal" in2="effect1_innerShadow_450_12880" result="effect2_innerShadow_450_12880"/>
<feColorMatrix in="SourceAlpha" type="matrix" values="0 0 0 0 0 0 0 0 0 0 0 0 0 0 0 0 0 0 127 0" result="hardAlpha"/>
<feOffset dx="-0.334832" dy="-0.502248"/>
<feGaussianBlur stdDeviation="0.68222"/>
<feComposite in2="hardAlpha" operator="arithmetic" k2="-1" k3="1"/>
<feColorMatrix type="matrix" values="0 0 0 0 1 0 0 0 0 1 0 0 0 0 1 0 0 0 0.57 0"/>
<feBlend mode="normal" in2="effect2_innerShadow_450_12880" result="effect3_innerShadow_450_12880"/>
<feColorMatrix in="SourceAlpha" type="matrix" values="0 0 0 0 0 0 0 0 0 0 0 0 0 0 0 0 0 0 127 0" result="hardAlpha"/>
<feOffset dx="0.251124" dy="0.167416"/>
<feGaussianBlur stdDeviation="0.326461"/>
<feComposite in2="hardAlpha" operator="arithmetic" k2="-1" k3="1"/>
<feColorMatrix type="matrix" values="0 0 0 0 1 0 0 0 0 1 0 0 0 0 1 0 0 0 0.88 0"/>
<feBlend mode="normal" in2="effect3_innerShadow_450_12880" result="effect4_innerShadow_450_12880"/>
<feColorMatrix in="SourceAlpha" type="matrix" values="0 0 0 0 0 0 0 0 0 0 0 0 0 0 0 0 0 0 127 0" result="hardAlpha"/>
<feOffset dx="0.083708" dy="0.083708"/>
<feGaussianBlur stdDeviation="0.0878934"/>
<feComposite in2="hardAlpha" operator="arithmetic" k2="-1" k3="1"/>
<feColorMatrix type="matrix" values="0 0 0 0 1 0 0 0 0 1 0 0 0 0 1 0 0 0 1 0"/>
<feBlend mode="normal" in2="effect4_innerShadow_450_12880" result="effect5_innerShadow_450_12880"/>
<feColorMatrix in="SourceAlpha" type="matrix" values="0 0 0 0 0 0 0 0 0 0 0 0 0 0 0 0 0 0 127 0" result="hardAlpha"/>
<feMorphology radius="0.083708" operator="erode" in="SourceAlpha" result="effect6_innerShadow_450_12880"/>
<feOffset dx="-0.251124" dy="-0.083708"/>
<feGaussianBlur stdDeviation="0.339018"/>
<feComposite in2="hardAlpha" operator="arithmetic" k2="-1" k3="1"/>
<feColorMatrix type="matrix" values="0 0 0 0 1 0 0 0 0 1 0 0 0 0 1 0 0 0 0.65 0"/>
<feBlend mode="normal" in2="effect5_innerShadow_450_12880" result="effect6_innerShadow_450_12880"/>
</filter>
<filter id="filter3_f_450_12880" x="4.5493" y="25.5161" width="9.12406" height="9.12406" filterUnits="userSpaceOnUse" color-interpolation-filters="sRGB">
<feFlood flood-opacity="0" result="BackgroundImageFix"/>
<feBlend mode="normal" in="SourceGraphic" in2="BackgroundImageFix" result="shape"/>
<feGaussianBlur stdDeviation="0.292978" result="effect1_foregroundBlur_450_12880"/>
</filter>
<filter id="filter4_i_450_12880" x="4.38281" y="25.3481" width="9.45898" height="9.74701" filterUnits="userSpaceOnUse" color-interpolation-filters="sRGB">
<feFlood flood-opacity="0" result="BackgroundImageFix"/>
<feBlend mode="normal" in="SourceGraphic" in2="BackgroundImageFix" result="shape"/>
<feColorMatrix in="SourceAlpha" type="matrix" values="0 0 0 0 0 0 0 0 0 0 0 0 0 0 0 0 0 0 127 0" result="hardAlpha"/>
<feMorphology radius="0.144012" operator="erode" in="SourceAlpha" result="effect1_innerShadow_450_12880"/>
<feOffset dy="0.288024"/>
<feGaussianBlur stdDeviation="0.144012"/>
<feComposite in2="hardAlpha" operator="arithmetic" k2="-1" k3="1"/>
<feColorMatrix type="matrix" values="0 0 0 0 0.137255 0 0 0 0 0.324471 0 0 0 0 0.988235 0 0 0 1 0"/>
<feBlend mode="normal" in2="shape" result="effect1_innerShadow_450_12880"/>
</filter>
<filter id="filter5_f_450_12880" x="5.0934" y="25.0558" width="9.54366" height="10.7893" filterUnits="userSpaceOnUse" color-interpolation-filters="sRGB">
<feFlood flood-opacity="0" result="BackgroundImageFix"/>
<feBlend mode="normal" in="SourceGraphic" in2="BackgroundImageFix" result="shape"/>
<feGaussianBlur stdDeviation="0.900076" result="effect1_foregroundBlur_450_12880"/>
</filter>
<filter id="filter6_f_450_12880" x="3.58755" y="25.1383" width="7.95234" height="9.37031" filterUnits="userSpaceOnUse" color-interpolation-filters="sRGB">
<feFlood flood-opacity="0" result="BackgroundImageFix"/>
<feBlend mode="normal" in="SourceGraphic" in2="BackgroundImageFix" result="shape"/>
<feGaussianBlur stdDeviation="0.983569" result="effect1_foregroundBlur_450_12880"/>
</filter>
<filter id="filter7_f_450_12880" x="5.16158" y="26.7133" width="4.47005" height="5.05574" filterUnits="userSpaceOnUse" color-interpolation-filters="sRGB">
<feFlood flood-opacity="0" result="BackgroundImageFix"/>
<feBlend mode="normal" in="SourceGraphic" in2="BackgroundImageFix" result="shape"/>
<feGaussianBlur stdDeviation="0.615254" result="effect1_foregroundBlur_450_12880"/>
</filter>
<filter id="filter8_f_450_12880" x="3.88049" y="27.5214" width="9.73144" height="8.10815" filterUnits="userSpaceOnUse" color-interpolation-filters="sRGB">
<feFlood flood-opacity="0" result="BackgroundImageFix"/>
<feBlend mode="normal" in="SourceGraphic" in2="BackgroundImageFix" result="shape"/>
<feGaussianBlur stdDeviation="0.795226" result="effect1_foregroundBlur_450_12880"/>
</filter>
<filter id="filter9_f_450_12880" x="7.57712" y="30.9292" width="5.68634" height="3.90094" filterUnits="userSpaceOnUse" color-interpolation-filters="sRGB">
<feFlood flood-opacity="0" result="BackgroundImageFix"/>
<feBlend mode="normal" in="SourceGraphic" in2="BackgroundImageFix" result="shape"/>
<feGaussianBlur stdDeviation="0.498063" result="effect1_foregroundBlur_450_12880"/>
</filter>
<filter id="filter10_f_450_12880" x="5.59797" y="29.5765" width="3.50401" height="3.82749" filterUnits="userSpaceOnUse" color-interpolation-filters="sRGB">
<feFlood flood-opacity="0" result="BackgroundImageFix"/>
<feBlend mode="normal" in="SourceGraphic" in2="BackgroundImageFix" result="shape"/>
<feGaussianBlur stdDeviation="0.506434" result="effect1_foregroundBlur_450_12880"/>
</filter>
<filter id="filter11_f_450_12880" x="8.53195" y="31.456" width="3.81061" height="2.93122" filterUnits="userSpaceOnUse" color-interpolation-filters="sRGB">
<feFlood flood-opacity="0" result="BackgroundImageFix"/>
<feBlend mode="normal" in="SourceGraphic" in2="BackgroundImageFix" result="shape"/>
<feGaussianBlur stdDeviation="0.498063" result="effect1_foregroundBlur_450_12880"/>
</filter>
<filter id="filter12_f_450_12880" x="7.81933" y="28.8523" width="5.90797" height="5.00294" filterUnits="userSpaceOnUse" color-interpolation-filters="sRGB">
<feFlood flood-opacity="0" result="BackgroundImageFix"/>
<feBlend mode="normal" in="SourceGraphic" in2="BackgroundImageFix" result="shape"/>
<feGaussianBlur stdDeviation="0.598512" result="effect1_foregroundBlur_450_12880"/>
</filter>
<linearGradient id="paint0_linear_450_12880" x1="29.8639" y1="-6.81211" x2="29.8639" y2="39.9984" gradientUnits="userSpaceOnUse">
<stop stop-color="white"/>
<stop offset="0.75" stop-color="white" stop-opacity="0.3"/>
</linearGradient>
<linearGradient id="paint1_linear_450_12880" x1="10.0216" y1="31.1321" x2="11.4587" y2="33.2878" gradientUnits="userSpaceOnUse">
<stop stop-color="#98A2FF" stop-opacity="0"/>
<stop offset="1" stop-color="#001BFF"/>
</linearGradient>
</defs>
</svg>
