<svg width="137" height="24" viewBox="0 0 137 24" fill="none" xmlns="http://www.w3.org/2000/svg">
<mask id="path-1-inside-1_435_2317" fill="white">
<path d="M48.5664 19.6202H50.6841V-0.00117562L48.5664 -0.00146484L48.5664 19.6202Z"/>
<path fill-rule="evenodd" clip-rule="evenodd" d="M63.812 19.6209H57.2966C54.5893 19.6209 52.9414 18.0071 52.9414 15.2782V8.99892C52.9414 6.27007 54.5893 4.65623 57.2966 4.65623H59.7685C62.4464 4.65623 64.0944 6.27007 64.0944 8.99892V13.1656H55.0602V15.2195C55.0602 16.8627 55.8841 17.7723 57.5321 17.7723H63.812V19.6209ZM55.0602 11.6104H62.005V9.05761C62.005 7.41443 61.181 6.53415 59.5331 6.53415H57.5321C55.8841 6.53415 55.0602 7.41443 55.0602 9.05761V11.6104Z"/>
<path fill-rule="evenodd" clip-rule="evenodd" d="M101.123 24.0013H98.9649L98.9648 4.66013L106.031 4.66018C108.722 4.66018 110.259 6.28177 110.259 9.02373V15.3332C110.259 18.0751 108.722 19.6967 106.031 19.6967H101.123V24.0013ZM101.123 17.8098H105.617C107.302 17.8098 108.13 16.8958 108.13 15.2447V9.11218C108.13 7.4611 107.302 6.54712 105.617 6.54712H101.123V17.8098Z"/>
<path fill-rule="evenodd" clip-rule="evenodd" d="M112.52 24.0013H114.678V19.6967H119.586C122.276 19.6967 123.814 18.0751 123.814 15.3332V9.02373C123.814 6.28177 122.276 4.66018 119.586 4.66018L112.52 4.66013L112.52 24.0013ZM119.172 17.8098H114.678V6.54712H119.172C120.857 6.54712 121.685 7.4611 121.685 9.11218V15.2447C121.685 16.8958 120.857 17.8098 119.172 17.8098Z"/>
<path d="M126.07 19.6248H131.866C134.734 19.6248 136.094 18.4805 136.094 15.9277C136.094 14.0791 135.65 12.7293 133.462 11.8784L129.973 10.3232C128.968 9.94179 128.288 9.44297 128.288 8.44532V7.9465C128.288 7.24228 128.909 6.47937 130.446 6.47937H136.094V4.66013H130.062C127.253 4.66013 126.07 5.95121 126.07 8.26927C126.07 10.1472 126.898 11.1155 128.879 11.9371L132.368 13.4042C133.492 13.8444 133.876 14.6073 133.876 15.5462V16.1037C133.876 17.2774 133.078 17.8056 131.57 17.8056H126.07L126.07 19.6248Z"/>
<path fill-rule="evenodd" clip-rule="evenodd" d="M39.3899 18.8535C36.712 18.8535 35.1523 17.2368 35.1523 14.5032V9.00652C35.1523 6.27289 36.8003 4.65623 39.5076 4.65623H46.3053V19.6471C46.3053 22.3513 44.6574 23.9974 41.95 23.9974H36.094V22.0868H41.6852C43.3626 22.0868 44.1571 21.205 44.1571 19.5589V18.8535H39.3899ZM44.1571 16.9723V6.53744H39.7724C38.0951 6.53744 37.3005 7.44865 37.3005 9.0947V14.415C37.3005 16.0905 38.0951 16.9723 39.7724 16.9723H44.1571Z"/>
<path fill-rule="evenodd" clip-rule="evenodd" d="M25.9758 18.8535H30.743V19.5589C30.743 21.205 29.9485 22.0868 28.2711 22.0868H22.68V23.9974H28.536C31.2433 23.9974 32.8912 22.3513 32.8912 19.6471V4.65623H26.0935C23.3862 4.65623 21.7383 6.27289 21.7383 9.00652V14.5032C21.7383 17.2368 23.2979 18.8535 25.9758 18.8535ZM30.743 6.53744V16.9723H26.3584C24.681 16.9723 23.8865 16.0905 23.8865 14.415V9.0947C23.8865 7.44865 24.681 6.53744 26.3584 6.53744H30.743Z"/>
<path fill-rule="evenodd" clip-rule="evenodd" d="M15.1059 19.6209H12.5632C9.84318 19.6209 8.1875 18.0071 8.1875 15.2782V8.99892C8.1875 6.27007 9.84318 4.65623 12.5632 4.65623H15.1059C17.8259 4.65623 19.4816 6.27007 19.4816 8.99892V15.2782C19.4816 18.0071 17.8259 19.6209 15.1059 19.6209ZM12.7998 17.743H14.8694C16.525 17.743 17.3529 16.8627 17.3529 15.2195V9.05761C17.3529 7.41443 16.525 6.53415 14.8694 6.53415H12.7998C11.1441 6.53415 10.3162 7.41443 10.3162 9.05761V15.2195C10.3162 16.8627 11.1441 17.743 12.7998 17.743Z"/>
<path d="M0 1.26951V15.3603C0 18.0752 1.7812 19.6224 4.48268 19.6224H6.35294V17.7541H4.74986C3.08741 17.7541 2.13744 16.9075 2.13744 15.2727V6.49304H5.78824L5.78824 4.65774H2.11765V1.26951H0Z"/>
</mask>
<g filter="url(#filter0_ii_435_2317)">
<path d="M48.5664 19.6202H50.6841V-0.00117562L48.5664 -0.00146484L48.5664 19.6202Z" fill="url(#paint0_linear_435_2317)"/>
<path fill-rule="evenodd" clip-rule="evenodd" d="M63.812 19.6209H57.2966C54.5893 19.6209 52.9414 18.0071 52.9414 15.2782V8.99892C52.9414 6.27007 54.5893 4.65623 57.2966 4.65623H59.7685C62.4464 4.65623 64.0944 6.27007 64.0944 8.99892V13.1656H55.0602V15.2195C55.0602 16.8627 55.8841 17.7723 57.5321 17.7723H63.812V19.6209ZM55.0602 11.6104H62.005V9.05761C62.005 7.41443 61.181 6.53415 59.5331 6.53415H57.5321C55.8841 6.53415 55.0602 7.41443 55.0602 9.05761V11.6104Z" fill="url(#paint1_linear_435_2317)"/>
<path fill-rule="evenodd" clip-rule="evenodd" d="M101.123 24.0013H98.9649L98.9648 4.66013L106.031 4.66018C108.722 4.66018 110.259 6.28177 110.259 9.02373V15.3332C110.259 18.0751 108.722 19.6967 106.031 19.6967H101.123V24.0013ZM101.123 17.8098H105.617C107.302 17.8098 108.13 16.8958 108.13 15.2447V9.11218C108.13 7.4611 107.302 6.54712 105.617 6.54712H101.123V17.8098Z" fill="url(#paint2_linear_435_2317)"/>
<path fill-rule="evenodd" clip-rule="evenodd" d="M112.52 24.0013H114.678V19.6967H119.586C122.276 19.6967 123.814 18.0751 123.814 15.3332V9.02373C123.814 6.28177 122.276 4.66018 119.586 4.66018L112.52 4.66013L112.52 24.0013ZM119.172 17.8098H114.678V6.54712H119.172C120.857 6.54712 121.685 7.4611 121.685 9.11218V15.2447C121.685 16.8958 120.857 17.8098 119.172 17.8098Z" fill="url(#paint3_linear_435_2317)"/>
<path d="M126.07 19.6248H131.866C134.734 19.6248 136.094 18.4805 136.094 15.9277C136.094 14.0791 135.65 12.7293 133.462 11.8784L129.973 10.3232C128.968 9.94179 128.288 9.44297 128.288 8.44532V7.9465C128.288 7.24228 128.909 6.47937 130.446 6.47937H136.094V4.66013H130.062C127.253 4.66013 126.07 5.95121 126.07 8.26927C126.07 10.1472 126.898 11.1155 128.879 11.9371L132.368 13.4042C133.492 13.8444 133.876 14.6073 133.876 15.5462V16.1037C133.876 17.2774 133.078 17.8056 131.57 17.8056H126.07L126.07 19.6248Z" fill="url(#paint4_linear_435_2317)"/>
<path fill-rule="evenodd" clip-rule="evenodd" d="M39.3899 18.8535C36.712 18.8535 35.1523 17.2368 35.1523 14.5032V9.00652C35.1523 6.27289 36.8003 4.65623 39.5076 4.65623H46.3053V19.6471C46.3053 22.3513 44.6574 23.9974 41.95 23.9974H36.094V22.0868H41.6852C43.3626 22.0868 44.1571 21.205 44.1571 19.5589V18.8535H39.3899ZM44.1571 16.9723V6.53744H39.7724C38.0951 6.53744 37.3005 7.44865 37.3005 9.0947V14.415C37.3005 16.0905 38.0951 16.9723 39.7724 16.9723H44.1571Z" fill="url(#paint5_linear_435_2317)"/>
<path fill-rule="evenodd" clip-rule="evenodd" d="M25.9758 18.8535H30.743V19.5589C30.743 21.205 29.9485 22.0868 28.2711 22.0868H22.68V23.9974H28.536C31.2433 23.9974 32.8912 22.3513 32.8912 19.6471V4.65623H26.0935C23.3862 4.65623 21.7383 6.27289 21.7383 9.00652V14.5032C21.7383 17.2368 23.2979 18.8535 25.9758 18.8535ZM30.743 6.53744V16.9723H26.3584C24.681 16.9723 23.8865 16.0905 23.8865 14.415V9.0947C23.8865 7.44865 24.681 6.53744 26.3584 6.53744H30.743Z" fill="url(#paint6_linear_435_2317)"/>
<path fill-rule="evenodd" clip-rule="evenodd" d="M15.1059 19.6209H12.5632C9.84318 19.6209 8.1875 18.0071 8.1875 15.2782V8.99892C8.1875 6.27007 9.84318 4.65623 12.5632 4.65623H15.1059C17.8259 4.65623 19.4816 6.27007 19.4816 8.99892V15.2782C19.4816 18.0071 17.8259 19.6209 15.1059 19.6209ZM12.7998 17.743H14.8694C16.525 17.743 17.3529 16.8627 17.3529 15.2195V9.05761C17.3529 7.41443 16.525 6.53415 14.8694 6.53415H12.7998C11.1441 6.53415 10.3162 7.41443 10.3162 9.05761V15.2195C10.3162 16.8627 11.1441 17.743 12.7998 17.743Z" fill="url(#paint7_linear_435_2317)"/>
<path d="M0 1.26951V15.3603C0 18.0752 1.7812 19.6224 4.48268 19.6224H6.35294V17.7541H4.74986C3.08741 17.7541 2.13744 16.9075 2.13744 15.2727V6.49304H5.78824L5.78824 4.65774H2.11765V1.26951H0Z" fill="url(#paint8_linear_435_2317)"/>
</g>
<path d="M48.5664 19.6202H50.6841V-0.00117562L48.5664 -0.00146484L48.5664 19.6202Z" stroke="white" stroke-opacity="0.2" stroke-width="4.09412" mask="url(#path-1-inside-1_435_2317)"/>
<path fill-rule="evenodd" clip-rule="evenodd" d="M63.812 19.6209H57.2966C54.5893 19.6209 52.9414 18.0071 52.9414 15.2782V8.99892C52.9414 6.27007 54.5893 4.65623 57.2966 4.65623H59.7685C62.4464 4.65623 64.0944 6.27007 64.0944 8.99892V13.1656H55.0602V15.2195C55.0602 16.8627 55.8841 17.7723 57.5321 17.7723H63.812V19.6209ZM55.0602 11.6104H62.005V9.05761C62.005 7.41443 61.181 6.53415 59.5331 6.53415H57.5321C55.8841 6.53415 55.0602 7.41443 55.0602 9.05761V11.6104Z" stroke="white" stroke-opacity="0.2" stroke-width="4.09412" mask="url(#path-1-inside-1_435_2317)"/>
<path fill-rule="evenodd" clip-rule="evenodd" d="M101.123 24.0013H98.9649L98.9648 4.66013L106.031 4.66018C108.722 4.66018 110.259 6.28177 110.259 9.02373V15.3332C110.259 18.0751 108.722 19.6967 106.031 19.6967H101.123V24.0013ZM101.123 17.8098H105.617C107.302 17.8098 108.13 16.8958 108.13 15.2447V9.11218C108.13 7.4611 107.302 6.54712 105.617 6.54712H101.123V17.8098Z" stroke="white" stroke-opacity="0.2" stroke-width="4.09412" mask="url(#path-1-inside-1_435_2317)"/>
<path fill-rule="evenodd" clip-rule="evenodd" d="M112.52 24.0013H114.678V19.6967H119.586C122.276 19.6967 123.814 18.0751 123.814 15.3332V9.02373C123.814 6.28177 122.276 4.66018 119.586 4.66018L112.52 4.66013L112.52 24.0013ZM119.172 17.8098H114.678V6.54712H119.172C120.857 6.54712 121.685 7.4611 121.685 9.11218V15.2447C121.685 16.8958 120.857 17.8098 119.172 17.8098Z" stroke="white" stroke-opacity="0.2" stroke-width="4.09412" mask="url(#path-1-inside-1_435_2317)"/>
<path d="M126.07 19.6248H131.866C134.734 19.6248 136.094 18.4805 136.094 15.9277C136.094 14.0791 135.65 12.7293 133.462 11.8784L129.973 10.3232C128.968 9.94179 128.288 9.44297 128.288 8.44532V7.9465C128.288 7.24228 128.909 6.47937 130.446 6.47937H136.094V4.66013H130.062C127.253 4.66013 126.07 5.95121 126.07 8.26927C126.07 10.1472 126.898 11.1155 128.879 11.9371L132.368 13.4042C133.492 13.8444 133.876 14.6073 133.876 15.5462V16.1037C133.876 17.2774 133.078 17.8056 131.57 17.8056H126.07L126.07 19.6248Z" stroke="white" stroke-opacity="0.2" stroke-width="4.09412" mask="url(#path-1-inside-1_435_2317)"/>
<path fill-rule="evenodd" clip-rule="evenodd" d="M39.3899 18.8535C36.712 18.8535 35.1523 17.2368 35.1523 14.5032V9.00652C35.1523 6.27289 36.8003 4.65623 39.5076 4.65623H46.3053V19.6471C46.3053 22.3513 44.6574 23.9974 41.95 23.9974H36.094V22.0868H41.6852C43.3626 22.0868 44.1571 21.205 44.1571 19.5589V18.8535H39.3899ZM44.1571 16.9723V6.53744H39.7724C38.0951 6.53744 37.3005 7.44865 37.3005 9.0947V14.415C37.3005 16.0905 38.0951 16.9723 39.7724 16.9723H44.1571Z" stroke="white" stroke-opacity="0.2" stroke-width="4.09412" mask="url(#path-1-inside-1_435_2317)"/>
<path fill-rule="evenodd" clip-rule="evenodd" d="M25.9758 18.8535H30.743V19.5589C30.743 21.205 29.9485 22.0868 28.2711 22.0868H22.68V23.9974H28.536C31.2433 23.9974 32.8912 22.3513 32.8912 19.6471V4.65623H26.0935C23.3862 4.65623 21.7383 6.27289 21.7383 9.00652V14.5032C21.7383 17.2368 23.2979 18.8535 25.9758 18.8535ZM30.743 6.53744V16.9723H26.3584C24.681 16.9723 23.8865 16.0905 23.8865 14.415V9.0947C23.8865 7.44865 24.681 6.53744 26.3584 6.53744H30.743Z" stroke="white" stroke-opacity="0.2" stroke-width="4.09412" mask="url(#path-1-inside-1_435_2317)"/>
<path fill-rule="evenodd" clip-rule="evenodd" d="M15.1059 19.6209H12.5632C9.84318 19.6209 8.1875 18.0071 8.1875 15.2782V8.99892C8.1875 6.27007 9.84318 4.65623 12.5632 4.65623H15.1059C17.8259 4.65623 19.4816 6.27007 19.4816 8.99892V15.2782C19.4816 18.0071 17.8259 19.6209 15.1059 19.6209ZM12.7998 17.743H14.8694C16.525 17.743 17.3529 16.8627 17.3529 15.2195V9.05761C17.3529 7.41443 16.525 6.53415 14.8694 6.53415H12.7998C11.1441 6.53415 10.3162 7.41443 10.3162 9.05761V15.2195C10.3162 16.8627 11.1441 17.743 12.7998 17.743Z" stroke="white" stroke-opacity="0.2" stroke-width="4.09412" mask="url(#path-1-inside-1_435_2317)"/>
<path d="M0 1.26951V15.3603C0 18.0752 1.7812 19.6224 4.48268 19.6224H6.35294V17.7541H4.74986C3.08741 17.7541 2.13744 16.9075 2.13744 15.2727V6.49304H5.78824L5.78824 4.65774H2.11765V1.26951H0Z" stroke="white" stroke-opacity="0.2" stroke-width="4.09412" mask="url(#path-1-inside-1_435_2317)"/>
<path fill-rule="evenodd" clip-rule="evenodd" d="M72 12.2716C72 8.13858 75.3698 4.78809 79.5265 4.78809H88.8992C93.2129 4.78809 96.7098 8.26502 96.7098 12.554V19.7552H79.5265C75.3698 19.7552 72 16.4047 72 12.2716ZM79.4815 17.6352C82.4448 17.6352 84.8471 15.2329 84.8471 12.2696C84.8471 9.3063 82.4448 6.90405 79.4815 6.90405C76.5182 6.90405 74.116 9.3063 74.116 12.2696C74.116 15.2329 76.5182 17.6352 79.4815 17.6352Z" fill="url(#paint9_linear_435_2317)"/>
<mask id="mask0_435_2317" style="mask-type:luminance" maskUnits="userSpaceOnUse" x="73" y="6" width="13" height="12">
<circle cx="79.654" cy="12.1306" r="5.80246" fill="white"/>
</mask>
<g mask="url(#mask0_435_2317)" class="circle" >
<g filter="url(#filter1_iiiiii_435_2317)">
<circle cx="79.654" cy="12.1306" r="5.80246" fill="black"/>
</g>
<g filter="url(#filter2_f_435_2317)">
<circle cx="79.6555" cy="12.1321" r="4.87818" fill="url(#paint10_linear_435_2317)"/>
</g>
<g style="mix-blend-mode:plus-lighter" filter="url(#filter3_i_435_2317)">
<circle cx="79.654" cy="12.1306" r="5.80246" fill="white" fill-opacity="0.01"/>
</g>
<g filter="url(#filter4_f_435_2317)">
<g style="mix-blend-mode:screen">
<path d="M81.3485 9.51477C81.3485 10.686 79.8608 10.5931 78.5756 10.5931C77.2905 10.5931 77.0352 11.4717 77.0352 10.3005C77.0352 9.12919 78.077 8.17969 79.3621 8.17969C80.6473 8.17969 81.3485 8.3435 81.3485 9.51477Z" fill="#4E00CC"/>
</g>
<g style="mix-blend-mode:screen">
<path d="M84.2252 13.5318C84.2252 14.6958 82.2586 17.0018 80.8098 17.0018C79.361 17.0018 76.9336 17.0463 76.9336 15.8823C76.9336 14.7184 79.361 15.5742 80.8098 15.5742C82.2586 15.5742 84.2252 12.3679 84.2252 13.5318Z" fill="#FD18BD"/>
</g>
</g>
<g filter="url(#filter5_f_435_2317)">
<path d="M80.2159 9.96179C80.2468 9.5554 80.0084 9.31453 79.7609 9.02073C79.4056 8.59895 79.2266 8.48438 78.6826 8.48438C76.4823 8.48438 75.8484 9.96316 75.3551 12.2462C75.2384 12.7868 75.2868 13.4266 75.4191 13.9593C75.507 14.3129 75.6939 14.6634 75.9952 14.8823C76.3042 15.1069 76.679 15.1887 77.0554 15.1401C77.7826 15.0462 76.7144 12.9058 77.7511 12.3294C78.1717 12.0956 78.3185 11.5668 78.6826 11.2511C79.0531 10.9297 80.1753 10.495 80.2159 9.96179Z" fill="#5045E9"/>
<path d="M79.6431 9.11998C79.6613 9.14157 79.6791 9.16257 79.6965 9.18308C79.9284 9.45668 80.0857 9.64212 80.0623 9.95011C80.0561 10.0313 80.0066 10.1262 79.9005 10.236C79.796 10.3441 79.6519 10.451 79.4891 10.5567C79.3657 10.6368 79.2372 10.7127 79.1121 10.7866C79.0722 10.8102 79.0327 10.8335 78.9938 10.8567C78.8376 10.95 78.6862 11.044 78.5816 11.1347C78.4067 11.2864 78.277 11.4828 78.162 11.6569C78.1444 11.6836 78.1271 11.7097 78.1101 11.7351C77.9756 11.9356 77.8512 12.0975 77.6763 12.1948C77.3647 12.3679 77.2188 12.6576 77.1563 12.9681C77.0947 13.2742 77.1103 13.6178 77.1336 13.9272C77.1384 13.991 77.1434 14.053 77.1483 14.1129C77.1681 14.3546 77.1852 14.5639 77.1716 14.7297C77.1632 14.832 77.1441 14.8969 77.1205 14.935C77.1023 14.9646 77.0801 14.9816 77.0357 14.9873C76.6943 15.0314 76.3599 14.9569 76.0857 14.7577C75.8225 14.5664 75.6508 14.2526 75.5686 13.9221C75.4402 13.4053 75.3952 12.7901 75.5057 12.2788C75.7523 11.1372 76.0289 10.2274 76.5016 9.60204C76.9639 8.9905 77.624 8.63842 78.6826 8.63842C78.9456 8.63842 79.097 8.66664 79.2217 8.73118C79.3495 8.79736 79.4664 8.9102 79.6431 9.11998Z" stroke="#5045E9" stroke-width="0.308095" stroke-linecap="round"/>
</g>
<g filter="url(#filter6_f_435_2317)">
<path d="M78.7798 10.217C78.7953 10.023 78.6761 9.90801 78.5523 9.76776C78.3747 9.56641 78.2852 9.51172 78.0132 9.51172C76.913 9.51172 76.5961 10.2176 76.3494 11.3075C76.2911 11.5655 76.3153 11.871 76.3814 12.1252C76.4254 12.294 76.5188 12.4614 76.6695 12.5659C76.824 12.6731 77.0114 12.7121 77.1996 12.6889C77.5632 12.6441 77.0291 11.6223 77.5474 11.3472C77.7577 11.2356 77.8311 10.9831 78.0132 10.8324C78.1984 10.679 78.7595 10.4715 78.7798 10.217Z" fill="#ECEAFF"/>
<path d="M78.4368 9.86968C78.4426 9.87625 78.4483 9.88266 78.4538 9.88892C78.5805 10.0322 78.6351 10.0941 78.6263 10.2048C78.6255 10.2141 78.6173 10.2419 78.5693 10.2894C78.5233 10.3348 78.4571 10.3822 78.3772 10.4317C78.317 10.469 78.2547 10.5042 78.1924 10.5393C78.1722 10.5507 78.1521 10.5621 78.132 10.5735C78.0548 10.6175 77.9732 10.6655 77.9149 10.7138C77.8183 10.7938 77.7466 10.8976 77.6897 10.9802C77.6811 10.9926 77.6728 11.0046 77.6648 11.0159C77.5981 11.1109 77.5451 11.174 77.4752 11.2111C77.2933 11.3077 77.2095 11.4701 77.1748 11.6348C77.1412 11.794 77.1503 11.9689 77.1619 12.1165C77.1645 12.1493 77.1671 12.1804 77.1696 12.2099C77.1794 12.3242 77.1871 12.4146 77.1809 12.4859C77.1792 12.506 77.1765 12.5209 77.1736 12.5315C77.1731 12.5336 77.1725 12.5355 77.172 12.5371C77.0201 12.5539 76.875 12.5209 76.7573 12.4393C76.6451 12.3615 76.5681 12.2307 76.5305 12.0864C76.4686 11.8486 76.4482 11.569 76.4997 11.3415C76.6229 10.7969 76.7582 10.3793 76.982 10.0965C77.1957 9.82666 77.502 9.66577 78.0132 9.66577C78.1407 9.66577 78.2029 9.67912 78.2499 9.70233C78.2993 9.72678 78.3492 9.7704 78.4368 9.86968Z" stroke="#5045E9" stroke-width="0.308095" stroke-linecap="round"/>
</g>
<g filter="url(#filter7_f_435_2317)">
<path d="M76.9072 15.9144C75.6105 14.8053 74.7534 13.3781 75.4181 11.8065C75.5548 11.4834 75.6078 11.2572 75.8802 11.0362C76.6711 10.395 76.4089 13.484 77.1126 14.2199C78.5103 15.6814 78.1718 15.8078 80.1935 15.7603C80.8429 15.745 82.2532 15.0252 82.8637 15.2469C83.9155 15.6289 82.4345 16.3258 81.3746 16.6846C79.6978 17.2524 78.2526 17.0651 76.9072 15.9144Z" fill="#F451FF"/>
</g>
<g style="mix-blend-mode:screen" filter="url(#filter8_f_435_2317)">
<path d="M83.5207 14.4932C83.6238 14.9962 82.5525 16.254 81.613 16.4464C80.6734 16.6388 79.1031 16.9805 79.0001 16.4774C78.8971 15.9744 80.547 16.0219 81.4866 15.8295C82.4262 15.637 83.4177 13.9901 83.5207 14.4932Z" fill="white"/>
</g>
<g style="mix-blend-mode:screen" filter="url(#filter9_f_435_2317)">
<path d="M78.3568 14.9421C78.0987 15.0662 77.2724 14.6578 77.0405 14.1756C76.8086 13.6934 76.4102 12.8903 76.6683 12.7662C76.9265 12.642 77.1252 13.5412 77.3572 14.0233C77.5891 14.5055 78.615 14.8179 78.3568 14.9421Z" fill="white"/>
</g>
<g style="mix-blend-mode:screen" filter="url(#filter10_f_435_2317)">
<path d="M82.3892 15.0931C82.44 15.3407 81.9127 15.9598 81.4503 16.0545C80.9878 16.1492 80.215 16.3173 80.1643 16.0697C80.1136 15.8222 80.9256 15.8455 81.3881 15.7508C81.8505 15.6561 82.3385 14.8455 82.3892 15.0931Z" fill="white"/>
</g>
<g filter="url(#filter11_f_435_2317)">
<path d="M83.8155 12.3426C84.0911 12.8448 82.5477 13.64 81.2333 14.3614C79.9189 15.0828 79.8645 15.6029 79.5889 15.1007C79.3133 14.5985 80.1554 13.6066 81.4697 12.8852C82.7841 12.1638 83.5399 11.8404 83.8155 12.3426Z" fill="black"/>
</g>
<circle opacity="0.77" cx="79.84" cy="8.48305" r="0.0530117" transform="rotate(-52 79.84 8.48305)" fill="white"/>
<circle opacity="0.77" cx="81.3046" cy="8.67871" r="0.0181547" transform="rotate(-153 81.3046 8.67871)" fill="white"/>
<circle opacity="0.88" cx="81.5605" cy="9.90118" r="0.0631783" transform="rotate(95 81.5605 9.90118)" fill="white"/>
<circle opacity="0.73" cx="83.2537" cy="10.6081" r="0.0530117" transform="rotate(142 83.2537 10.6081)" fill="white"/>
<circle opacity="0.76" cx="78.768" cy="9.22076" r="0.0515593" transform="rotate(-127 78.768 9.22076)" fill="white"/>
<circle opacity="0.84" cx="80.2036" cy="10.8666" r="0.0653568" transform="rotate(78 80.2036 10.8666)" fill="white"/>
<circle opacity="0.93" cx="81.0056" cy="11.1545" r="0.0181547" transform="rotate(139 81.0056 11.1545)" fill="white"/>
<circle opacity="0.99" cx="81.5805" cy="11.9389" r="0.0624521" transform="rotate(166 81.5805 11.9389)" fill="white"/>
<circle opacity="0.83" cx="82.1692" cy="12.7577" r="0.0406665" transform="rotate(139 82.1692 12.7577)" fill="white"/>
<circle opacity="0.9" cx="77.2757" cy="10.3969" r="0.0377617" transform="rotate(51 77.2757 10.3969)" fill="white"/>
<circle opacity="0.95" cx="77.4494" cy="10.6601" r="0.0363094" transform="rotate(36 77.4494 10.6601)" fill="white"/>
<circle opacity="0.74" cx="79.6269" cy="11.2032" r="0.0624521" transform="rotate(153 79.6269 11.2032)" fill="white"/>
<circle opacity="0.89" cx="80.087" cy="12.6713" r="0.0450236" transform="rotate(-49 80.087 12.6713)" fill="white"/>
<circle opacity="0.87" cx="80.0888" cy="13.2137" r="0.0363094" transform="rotate(114 80.0888 13.2137)" fill="white"/>
<circle opacity="0.71" cx="81.5984" cy="13.2157" r="0.0363094" transform="rotate(-177 81.5984 13.2157)" fill="white"/>
<circle opacity="0.79" cx="76.7344" cy="10.6186" r="0.0798806" transform="rotate(114 76.7344 10.6186)" fill="white"/>
<circle opacity="0.76" cx="77.3264" cy="10.7536" r="0.0363094" transform="rotate(-175 77.3264 10.7536)" fill="white"/>
<circle opacity="0.97" cx="77.6671" cy="12.5475" r="0.0462944" transform="rotate(-95 77.6671 12.5475)" fill="white"/>
<circle opacity="0.92" cx="78.9999" cy="13.2968" r="0.0216041" transform="rotate(85 78.9999 13.2968)" fill="white"/>
<circle opacity="0.92" cx="79.6124" cy="14.3659" r="0.0386695" transform="rotate(-171 79.6124 14.3659)" fill="white"/>
<circle opacity="0.86" cx="80.3326" cy="15.309" r="0.0181547" transform="rotate(6 80.3326 15.309)" fill="white"/>
<circle opacity="0.92" cx="81.4448" cy="15.8898" r="0.0181547" transform="rotate(-154 81.4448 15.8898)" fill="white"/>
<circle opacity="0.79" cx="76.7357" cy="12.654" r="0.0609997" transform="rotate(31 76.7357 12.654)" fill="white"/>
<circle opacity="0.74" cx="76.8168" cy="13.4667" r="0.0806068" transform="rotate(152 76.8168 13.4667)" fill="white"/>
<circle opacity="0.76" cx="77.6956" cy="13.534" r="0.0181547" transform="rotate(-152 77.6956 13.534)" fill="white"/>
<circle opacity="0.82" cx="77.6619" cy="15.312" r="0.0363094" transform="rotate(-133 77.6619 15.312)" fill="white"/>
<circle opacity="0.94" cx="79.0823" cy="15.4298" r="0.0203332" transform="rotate(-29 79.0823 15.4298)" fill="white"/>
<circle opacity="0.77" cx="78.424" cy="10.7095" r="0.0293366" transform="rotate(-97 78.424 10.7095)" fill="white"/>
<circle opacity="0.77" cx="79.0773" cy="10.2163" r="0.00992818" transform="rotate(162 79.0773 10.2163)" fill="white"/>
<circle opacity="0.88" cx="79.6519" cy="10.5922" r="0.0349627" transform="rotate(50 79.6519 10.5922)" fill="white"/>
<circle opacity="0.73" cx="80.5962" cy="10.2052" r="0.0293366" transform="rotate(97 80.5962 10.2052)" fill="white"/>
<circle opacity="0.76" cx="78.296" cy="11.4209" r="0.0285328" transform="rotate(-172 78.296 11.4209)" fill="white"/>
<circle opacity="0.84" cx="79.5028" cy="11.5032" r="0.0361684" transform="rotate(33 79.5028 11.5032)" fill="white"/>
<circle opacity="0.93" cx="79.9269" cy="11.2983" r="0.00992818" transform="rotate(94 79.9269 11.2983)" fill="white"/>
<circle opacity="0.99" cx="80.4604" cy="11.3829" r="0.0345609" transform="rotate(121 80.4604 11.3829)" fill="white"/>
<circle opacity="0.83" cx="81.0111" cy="11.474" r="0.0225048" transform="rotate(94 81.0111 11.474)" fill="white"/>
<circle opacity="0.9" cx="78.1709" cy="12.4605" r="0.0208973" transform="rotate(6 78.1709 12.4605)" fill="white"/>
<circle opacity="0.95" cx="78.3433" cy="12.4972" r="0.0200935" transform="rotate(-9 78.3433 12.4972)" fill="white"/>
<circle opacity="0.74" cx="79.4057" cy="11.8581" r="0.0345609" transform="rotate(108 79.4057 11.8581)" fill="white"/>
<circle opacity="0.89" cx="80.1637" cy="12.2508" r="0.024916" transform="rotate(-94 80.1637 12.2508)" fill="white"/>
<circle opacity="0.87" cx="80.3752" cy="12.4635" r="0.0200935" transform="rotate(69 80.3752 12.4635)" fill="white"/>
<circle opacity="0.71" cx="80.9677" cy="11.8735" r="0.0200935" transform="rotate(138 80.9677 11.8735)" fill="white"/>
<circle opacity="0.79" cx="78.0488" cy="12.7641" r="0.0442058" transform="rotate(69 78.0488 12.7641)" fill="white"/>
<circle opacity="0.76" cx="78.3311" cy="12.5835" r="0.0200935" transform="rotate(140 78.3311 12.5835)" fill="white"/>
<circle opacity="0.97" cx="79.1648" cy="13.1514" r="0.0256192" transform="rotate(-140 79.1648 13.1514)" fill="white"/>
<circle opacity="0.92" cx="79.9819" cy="12.9229" r="0.0118145" transform="rotate(40 79.9819 12.9229)" fill="white"/>
<circle opacity="0.92" cx="80.6381" cy="13.1007" r="0.0213996" transform="rotate(144 80.6381 13.1007)" fill="white"/>
<circle opacity="0.86" cx="81.2913" cy="13.189" r="0.00992818" transform="rotate(-39 81.2913 13.189)" fill="white"/>
<circle opacity="0.92" cx="81.9522" cy="12.9782" r="0.00992818" transform="rotate(161 81.9522 12.9782)" fill="white"/>
<circle opacity="0.79" cx="78.8417" cy="13.5558" r="0.0337571" transform="rotate(-14 78.8417 13.5558)" fill="white"/>
<circle opacity="0.74" cx="79.1943" cy="13.8421" r="0.0446076" transform="rotate(107 79.1943 13.8421)" fill="white"/>
<circle opacity="0.76" cx="79.5657" cy="13.5247" r="0.00992818" transform="rotate(163 79.5657 13.5247)" fill="white"/>
<circle opacity="0.82" cx="80.2462" cy="14.237" r="0.0200935" transform="rotate(-178 80.2462 14.237)" fill="white"/>
<circle opacity="0.94" cx="80.8497" cy="13.7268" r="0.0111196" transform="rotate(-74 80.8497 13.7268)" fill="white"/>
</g>
<defs>
<filter id="filter0_ii_435_2317" x="0" y="-0.00146484" width="136.094" height="24.7597" filterUnits="userSpaceOnUse" color-interpolation-filters="sRGB">
<feFlood flood-opacity="0" result="BackgroundImageFix"/>
<feBlend mode="normal" in="SourceGraphic" in2="BackgroundImageFix" result="shape"/>
<feColorMatrix in="SourceAlpha" type="matrix" values="0 0 0 0 0 0 0 0 0 0 0 0 0 0 0 0 0 0 127 0" result="hardAlpha"/>
<feOffset dy="0.75672"/>
<feGaussianBlur stdDeviation="0.75672"/>
<feComposite in2="hardAlpha" operator="arithmetic" k2="-1" k3="1"/>
<feColorMatrix type="matrix" values="0 0 0 0 1 0 0 0 0 1 0 0 0 0 1 0 0 0 0.25 0"/>
<feBlend mode="normal" in2="shape" result="effect1_innerShadow_435_2317"/>
<feColorMatrix in="SourceAlpha" type="matrix" values="0 0 0 0 0 0 0 0 0 0 0 0 0 0 0 0 0 0 127 0" result="hardAlpha"/>
<feOffset/>
<feGaussianBlur stdDeviation="0.28377"/>
<feComposite in2="hardAlpha" operator="arithmetic" k2="-1" k3="1"/>
<feColorMatrix type="matrix" values="0 0 0 0 1 0 0 0 0 1 0 0 0 0 1 0 0 0 0.4 0"/>
<feBlend mode="normal" in2="effect1_innerShadow_435_2317" result="effect2_innerShadow_435_2317"/>
</filter>
<filter id="filter1_iiiiii_435_2317" x="72.6192" y="5.71193" width="13.1455" height="12.4266" filterUnits="userSpaceOnUse" color-interpolation-filters="sRGB">
<feFlood flood-opacity="0" result="BackgroundImageFix"/>
<feBlend mode="normal" in="SourceGraphic" in2="BackgroundImageFix" result="shape"/>
<feColorMatrix in="SourceAlpha" type="matrix" values="0 0 0 0 0 0 0 0 0 0 0 0 0 0 0 0 0 0 127 0" result="hardAlpha"/>
<feOffset dx="-1.23238" dy="0.205397"/>
<feGaussianBlur stdDeviation="1.46345"/>
<feComposite in2="hardAlpha" operator="arithmetic" k2="-1" k3="1"/>
<feColorMatrix type="matrix" values="0 0 0 0 0.490196 0 0 0 0 0.227451 0 0 0 0 0.972549 0 0 0 1 0"/>
<feBlend mode="normal" in2="shape" result="effect1_innerShadow_435_2317"/>
<feColorMatrix in="SourceAlpha" type="matrix" values="0 0 0 0 0 0 0 0 0 0 0 0 0 0 0 0 0 0 127 0" result="hardAlpha"/>
<feOffset dx="-1.23238" dy="0.205397"/>
<feGaussianBlur stdDeviation="2.10018"/>
<feComposite in2="hardAlpha" operator="arithmetic" k2="-1" k3="1"/>
<feColorMatrix type="matrix" values="0 0 0 0 0.196078 0 0 0 0 0.160784 0 0 0 0 0.654902 0 0 0 1 0"/>
<feBlend mode="normal" in2="effect1_innerShadow_435_2317" result="effect2_innerShadow_435_2317"/>
<feColorMatrix in="SourceAlpha" type="matrix" values="0 0 0 0 0 0 0 0 0 0 0 0 0 0 0 0 0 0 127 0" result="hardAlpha"/>
<feOffset dx="-0.410794" dy="-0.616191"/>
<feGaussianBlur stdDeviation="0.836992"/>
<feComposite in2="hardAlpha" operator="arithmetic" k2="-1" k3="1"/>
<feColorMatrix type="matrix" values="0 0 0 0 1 0 0 0 0 1 0 0 0 0 1 0 0 0 0.57 0"/>
<feBlend mode="normal" in2="effect2_innerShadow_435_2317" result="effect3_innerShadow_435_2317"/>
<feColorMatrix in="SourceAlpha" type="matrix" values="0 0 0 0 0 0 0 0 0 0 0 0 0 0 0 0 0 0 127 0" result="hardAlpha"/>
<feOffset dx="0.308095" dy="0.205397"/>
<feGaussianBlur stdDeviation="0.400524"/>
<feComposite in2="hardAlpha" operator="arithmetic" k2="-1" k3="1"/>
<feColorMatrix type="matrix" values="0 0 0 0 1 0 0 0 0 1 0 0 0 0 1 0 0 0 0.88 0"/>
<feBlend mode="normal" in2="effect3_innerShadow_435_2317" result="effect4_innerShadow_435_2317"/>
<feColorMatrix in="SourceAlpha" type="matrix" values="0 0 0 0 0 0 0 0 0 0 0 0 0 0 0 0 0 0 127 0" result="hardAlpha"/>
<feOffset dx="0.102698" dy="0.102698"/>
<feGaussianBlur stdDeviation="0.107833"/>
<feComposite in2="hardAlpha" operator="arithmetic" k2="-1" k3="1"/>
<feColorMatrix type="matrix" values="0 0 0 0 1 0 0 0 0 1 0 0 0 0 1 0 0 0 1 0"/>
<feBlend mode="normal" in2="effect4_innerShadow_435_2317" result="effect5_innerShadow_435_2317"/>
<feColorMatrix in="SourceAlpha" type="matrix" values="0 0 0 0 0 0 0 0 0 0 0 0 0 0 0 0 0 0 127 0" result="hardAlpha"/>
<feMorphology radius="0.102698" operator="erode" in="SourceAlpha" result="effect6_innerShadow_435_2317"/>
<feOffset dx="-0.308095" dy="-0.102698"/>
<feGaussianBlur stdDeviation="0.415929"/>
<feComposite in2="hardAlpha" operator="arithmetic" k2="-1" k3="1"/>
<feColorMatrix type="matrix" values="0 0 0 0 1 0 0 0 0 1 0 0 0 0 1 0 0 0 0.65 0"/>
<feBlend mode="normal" in2="effect5_innerShadow_435_2317" result="effect6_innerShadow_435_2317"/>
</filter>
<filter id="filter2_f_435_2317" x="74.0585" y="6.53502" width="11.1941" height="11.1941" filterUnits="userSpaceOnUse" color-interpolation-filters="sRGB">
<feFlood flood-opacity="0" result="BackgroundImageFix"/>
<feBlend mode="normal" in="SourceGraphic" in2="BackgroundImageFix" result="shape"/>
<feGaussianBlur stdDeviation="0.359445" result="effect1_foregroundBlur_435_2317"/>
</filter>
<filter id="filter3_i_435_2317" x="73.8516" y="6.32812" width="11.605" height="11.9583" filterUnits="userSpaceOnUse" color-interpolation-filters="sRGB">
<feFlood flood-opacity="0" result="BackgroundImageFix"/>
<feBlend mode="normal" in="SourceGraphic" in2="BackgroundImageFix" result="shape"/>
<feColorMatrix in="SourceAlpha" type="matrix" values="0 0 0 0 0 0 0 0 0 0 0 0 0 0 0 0 0 0 127 0" result="hardAlpha"/>
<feMorphology radius="0.176684" operator="erode" in="SourceAlpha" result="effect1_innerShadow_435_2317"/>
<feOffset dy="0.353367"/>
<feGaussianBlur stdDeviation="0.176684"/>
<feComposite in2="hardAlpha" operator="arithmetic" k2="-1" k3="1"/>
<feColorMatrix type="matrix" values="0 0 0 0 0.137255 0 0 0 0 0.324471 0 0 0 0 0.988235 0 0 0 1 0"/>
<feBlend mode="normal" in2="shape" result="effect1_innerShadow_435_2317"/>
</filter>
<filter id="filter4_f_435_2317" x="74.725" y="5.97114" width="11.7086" height="13.2394" filterUnits="userSpaceOnUse" color-interpolation-filters="sRGB">
<feFlood flood-opacity="0" result="BackgroundImageFix"/>
<feBlend mode="normal" in="SourceGraphic" in2="BackgroundImageFix" result="shape"/>
<feGaussianBlur stdDeviation="1.10427" result="effect1_foregroundBlur_435_2317"/>
</filter>
<filter id="filter5_f_435_2317" x="72.8756" y="6.07096" width="9.75627" height="11.4963" filterUnits="userSpaceOnUse" color-interpolation-filters="sRGB">
<feFlood flood-opacity="0" result="BackgroundImageFix"/>
<feBlend mode="normal" in="SourceGraphic" in2="BackgroundImageFix" result="shape"/>
<feGaussianBlur stdDeviation="1.20671" result="effect1_foregroundBlur_435_2317"/>
</filter>
<filter id="filter6_f_435_2317" x="74.8067" y="8.00205" width="5.48418" height="6.20293" filterUnits="userSpaceOnUse" color-interpolation-filters="sRGB">
<feFlood flood-opacity="0" result="BackgroundImageFix"/>
<feBlend mode="normal" in="SourceGraphic" in2="BackgroundImageFix" result="shape"/>
<feGaussianBlur stdDeviation="0.754834" result="effect1_foregroundBlur_435_2317"/>
</filter>
<filter id="filter7_f_435_2317" x="73.2362" y="8.99795" width="11.9392" height="9.94795" filterUnits="userSpaceOnUse" color-interpolation-filters="sRGB">
<feFlood flood-opacity="0" result="BackgroundImageFix"/>
<feBlend mode="normal" in="SourceGraphic" in2="BackgroundImageFix" result="shape"/>
<feGaussianBlur stdDeviation="0.975635" result="effect1_foregroundBlur_435_2317"/>
</filter>
<filter id="filter8_f_435_2317" x="77.7735" y="13.1758" width="6.97621" height="4.78602" filterUnits="userSpaceOnUse" color-interpolation-filters="sRGB">
<feFlood flood-opacity="0" result="BackgroundImageFix"/>
<feBlend mode="normal" in="SourceGraphic" in2="BackgroundImageFix" result="shape"/>
<feGaussianBlur stdDeviation="0.611056" result="effect1_foregroundBlur_435_2317"/>
</filter>
<filter id="filter9_f_435_2317" x="75.3418" y="11.5117" width="4.29902" height="4.69526" filterUnits="userSpaceOnUse" color-interpolation-filters="sRGB">
<feFlood flood-opacity="0" result="BackgroundImageFix"/>
<feBlend mode="normal" in="SourceGraphic" in2="BackgroundImageFix" result="shape"/>
<feGaussianBlur stdDeviation="0.621326" result="effect1_foregroundBlur_435_2317"/>
</filter>
<filter id="filter10_f_435_2317" x="78.94" y="13.8243" width="4.67469" height="3.59657" filterUnits="userSpaceOnUse" color-interpolation-filters="sRGB">
<feFlood flood-opacity="0" result="BackgroundImageFix"/>
<feBlend mode="normal" in="SourceGraphic" in2="BackgroundImageFix" result="shape"/>
<feGaussianBlur stdDeviation="0.611056" result="effect1_foregroundBlur_435_2317"/>
</filter>
<filter id="filter11_f_435_2317" x="78.068" y="10.631" width="7.24821" height="6.13786" filterUnits="userSpaceOnUse" color-interpolation-filters="sRGB">
<feFlood flood-opacity="0" result="BackgroundImageFix"/>
<feBlend mode="normal" in="SourceGraphic" in2="BackgroundImageFix" result="shape"/>
<feGaussianBlur stdDeviation="0.734294" result="effect1_foregroundBlur_435_2317"/>
</filter>
<linearGradient id="paint0_linear_435_2317" x1="68.047" y1="-3.00146" x2="68.047" y2="24.0013" gradientUnits="userSpaceOnUse">
<stop stop-color="white"/>
<stop offset="0.85" stop-color="white" stop-opacity="0.2"/>
</linearGradient>
<linearGradient id="paint1_linear_435_2317" x1="68.047" y1="-3.00146" x2="68.047" y2="24.0013" gradientUnits="userSpaceOnUse">
<stop stop-color="white"/>
<stop offset="0.85" stop-color="white" stop-opacity="0.2"/>
</linearGradient>
<linearGradient id="paint2_linear_435_2317" x1="68.047" y1="-3.00146" x2="68.047" y2="24.0013" gradientUnits="userSpaceOnUse">
<stop stop-color="white"/>
<stop offset="0.85" stop-color="white" stop-opacity="0.2"/>
</linearGradient>
<linearGradient id="paint3_linear_435_2317" x1="68.047" y1="-3.00146" x2="68.047" y2="24.0013" gradientUnits="userSpaceOnUse">
<stop stop-color="white"/>
<stop offset="0.85" stop-color="white" stop-opacity="0.2"/>
</linearGradient>
<linearGradient id="paint4_linear_435_2317" x1="68.047" y1="-3.00146" x2="68.047" y2="24.0013" gradientUnits="userSpaceOnUse">
<stop stop-color="white"/>
<stop offset="0.85" stop-color="white" stop-opacity="0.2"/>
</linearGradient>
<linearGradient id="paint5_linear_435_2317" x1="68.047" y1="-3.00146" x2="68.047" y2="24.0013" gradientUnits="userSpaceOnUse">
<stop stop-color="white"/>
<stop offset="0.85" stop-color="white" stop-opacity="0.2"/>
</linearGradient>
<linearGradient id="paint6_linear_435_2317" x1="68.047" y1="-3.00146" x2="68.047" y2="24.0013" gradientUnits="userSpaceOnUse">
<stop stop-color="white"/>
<stop offset="0.85" stop-color="white" stop-opacity="0.2"/>
</linearGradient>
<linearGradient id="paint7_linear_435_2317" x1="68.047" y1="-3.00146" x2="68.047" y2="24.0013" gradientUnits="userSpaceOnUse">
<stop stop-color="white"/>
<stop offset="0.85" stop-color="white" stop-opacity="0.2"/>
</linearGradient>
<linearGradient id="paint8_linear_435_2317" x1="68.047" y1="-3.00146" x2="68.047" y2="24.0013" gradientUnits="userSpaceOnUse">
<stop stop-color="white"/>
<stop offset="0.85" stop-color="white" stop-opacity="0.2"/>
</linearGradient>
<linearGradient id="paint9_linear_435_2317" x1="84.3549" y1="-2.50098" x2="84.3549" y2="19.7552" gradientUnits="userSpaceOnUse">
<stop stop-color="white"/>
<stop offset="1" stop-color="white" stop-opacity="0.3"/>
</linearGradient>
<linearGradient id="paint10_linear_435_2317" x1="80.7722" y1="13.4251" x2="82.5354" y2="16.0699" gradientUnits="userSpaceOnUse">
<stop stop-color="#98A2FF" stop-opacity="0"/>
<stop offset="1" stop-color="#001BFF"/>
</linearGradient>
</defs>

  <style>
    svg {
      filter: drop-shadow(0px 3.85172px 5.13563px rgba(0, 0, 0, 0.25));
    }
    .circle {
      opacity: 0;
    }

    @media (min-width: 768px) {
      .circle {
        opacity: 1;
        filter: drop-shadow(2.56781px 1.28391px 6.80471px rgba(0, 0, 0, 0.78));
      }
    }
  </style>
</svg>

