<svg xmlns="http://www.w3.org/2000/svg" width="137" height="24" fill="none" style="filter:drop-shadow(0 3.85172px 5.13563px rgba(0,0,0,.25))"><mask id="k" fill="#fff"><path d="M48.566 19.62h2.118V0h-2.118z"/><path fill-rule="evenodd" d="M63.812 19.62h-6.515c-2.708 0-4.356-1.613-4.356-4.342v-6.28c0-2.728 1.648-4.342 4.356-4.342h2.472c2.677 0 4.325 1.614 4.325 4.343v4.167H55.06v2.053c0 1.644.824 2.553 2.472 2.553h6.28zm-8.752-8.01h6.945V9.058c0-1.644-.824-2.524-2.472-2.524h-2c-1.649 0-2.473.88-2.473 2.524zm46.063 12.391h-2.158V4.661h7.066c2.691 0 4.228 1.62 4.228 4.363v6.31c0 2.741-1.537 4.363-4.228 4.363h-4.908zm0-6.191h4.494c1.685 0 2.513-.914 2.513-2.565V9.112c0-1.65-.828-2.565-2.513-2.565h-4.494zm11.397 6.191h2.158v-4.304h4.908c2.69 0 4.228-1.622 4.228-4.364v-6.31c0-2.741-1.538-4.363-4.228-4.363h-7.066zm6.652-6.191h-4.494V6.547h4.494c1.685 0 2.513.914 2.513 2.565v6.133c0 1.65-.828 2.565-2.513 2.565" clip-rule="evenodd"/><path d="M126.07 19.625h5.796c2.868 0 4.228-1.145 4.228-3.697 0-1.849-.444-3.199-2.632-4.05l-3.489-1.555c-1.005-.381-1.685-.88-1.685-1.878v-.498c0-.705.621-1.468 2.158-1.468h5.648V4.66h-6.032c-2.809 0-3.992 1.291-3.992 3.61 0 1.877.828 2.846 2.809 3.667l3.489 1.467c1.124.44 1.508 1.203 1.508 2.142v.558c0 1.173-.798 1.702-2.306 1.702h-5.5z"/><path fill-rule="evenodd" d="M39.39 18.854c-2.678 0-4.238-1.617-4.238-4.35V9.006c0-2.734 1.648-4.35 4.356-4.35h6.797v14.99c0 2.704-1.648 4.35-4.355 4.35h-5.856v-1.91h5.591c1.678 0 2.472-.882 2.472-2.528v-.706zm4.767-1.882V6.537h-4.385c-1.677 0-2.471.912-2.471 2.558v5.32c0 1.675.794 2.557 2.471 2.557zm-18.181 1.882h4.767v.705c0 1.646-.794 2.528-2.472 2.528H22.68v1.91h5.856c2.707 0 4.355-1.646 4.355-4.35V4.657h-6.797c-2.708 0-4.356 1.616-4.356 4.35v5.496c0 2.734 1.56 4.35 4.238 4.35m4.767-12.317v10.435h-4.385c-1.677 0-2.471-.882-2.471-2.557v-5.32c0-1.646.794-2.558 2.471-2.558zM15.106 19.62h-2.543c-2.72 0-4.376-1.613-4.376-4.342v-6.28c0-2.728 1.656-4.342 4.376-4.342h2.543c2.72 0 4.376 1.614 4.376 4.343v6.28c0 2.728-1.656 4.342-4.376 4.342M12.8 17.744h2.07c1.655 0 2.483-.88 2.483-2.523V9.058c0-1.644-.828-2.524-2.484-2.524H12.8c-1.655 0-2.483.88-2.483 2.524v6.162c0 1.643.828 2.523 2.484 2.523" clip-rule="evenodd"/><path d="M0 1.27v14.09c0 2.715 1.781 4.262 4.483 4.262h1.87v-1.868H4.75c-1.663 0-2.613-.847-2.613-2.481v-8.78h3.651V4.658h-3.67V1.27z"/></mask><g filter="url(#a)"><path fill="url(#b)" d="M48.566 19.62h2.118V0h-2.118z"/><path fill="url(#c)" fill-rule="evenodd" d="M63.812 19.62h-6.515c-2.708 0-4.356-1.613-4.356-4.342v-6.28c0-2.728 1.648-4.342 4.356-4.342h2.472c2.677 0 4.325 1.614 4.325 4.343v4.167H55.06v2.053c0 1.644.824 2.553 2.472 2.553h6.28zm-8.752-8.01h6.945V9.058c0-1.644-.824-2.524-2.472-2.524h-2c-1.649 0-2.473.88-2.473 2.524z" clip-rule="evenodd"/><path fill="url(#d)" fill-rule="evenodd" d="M101.123 24.001h-2.158V4.661h7.066c2.691 0 4.228 1.62 4.228 4.363v6.31c0 2.741-1.537 4.363-4.228 4.363h-4.908zm0-6.191h4.494c1.685 0 2.513-.914 2.513-2.565V9.112c0-1.65-.828-2.565-2.513-2.565h-4.494z" clip-rule="evenodd"/><path fill="url(#e)" fill-rule="evenodd" d="M112.52 24.001h2.158v-4.304h4.908c2.69 0 4.228-1.622 4.228-4.364v-6.31c0-2.741-1.538-4.363-4.228-4.363h-7.066zm6.652-6.191h-4.494V6.547h4.494c1.685 0 2.513.914 2.513 2.565v6.133c0 1.65-.828 2.565-2.513 2.565" clip-rule="evenodd"/><path fill="url(#f)" d="M126.07 19.625h5.796c2.868 0 4.228-1.145 4.228-3.697 0-1.849-.444-3.199-2.632-4.05l-3.489-1.555c-1.005-.381-1.685-.88-1.685-1.878v-.498c0-.705.621-1.468 2.158-1.468h5.648V4.66h-6.032c-2.809 0-3.992 1.291-3.992 3.61 0 1.877.828 2.846 2.809 3.667l3.489 1.467c1.124.44 1.508 1.203 1.508 2.142v.558c0 1.173-.798 1.702-2.306 1.702h-5.5z"/><path fill="url(#g)" fill-rule="evenodd" d="M39.39 18.854c-2.678 0-4.238-1.617-4.238-4.35V9.006c0-2.734 1.648-4.35 4.356-4.35h6.797v14.99c0 2.704-1.648 4.35-4.355 4.35h-5.856v-1.91h5.591c1.678 0 2.472-.882 2.472-2.528v-.706zm4.767-1.882V6.537h-4.385c-1.677 0-2.471.912-2.471 2.558v5.32c0 1.675.794 2.557 2.471 2.557z" clip-rule="evenodd"/><path fill="url(#h)" fill-rule="evenodd" d="M25.976 18.854h4.767v.705c0 1.646-.794 2.528-2.472 2.528H22.68v1.91h5.856c2.707 0 4.355-1.646 4.355-4.35V4.657h-6.797c-2.708 0-4.356 1.616-4.356 4.35v5.496c0 2.734 1.56 4.35 4.238 4.35m4.767-12.317v10.435h-4.385c-1.677 0-2.471-.882-2.471-2.557v-5.32c0-1.646.794-2.558 2.471-2.558z" clip-rule="evenodd"/><path fill="url(#i)" fill-rule="evenodd" d="M15.106 19.62h-2.543c-2.72 0-4.376-1.613-4.376-4.342v-6.28c0-2.728 1.656-4.342 4.376-4.342h2.543c2.72 0 4.376 1.614 4.376 4.343v6.28c0 2.728-1.656 4.342-4.376 4.342M12.8 17.744h2.07c1.655 0 2.483-.88 2.483-2.523V9.058c0-1.644-.828-2.524-2.484-2.524H12.8c-1.655 0-2.483.88-2.483 2.524v6.162c0 1.643.828 2.523 2.484 2.523" clip-rule="evenodd"/><path fill="url(#j)" d="M0 1.27v14.09c0 2.715 1.781 4.262 4.483 4.262h1.87v-1.868H4.75c-1.663 0-2.613-.847-2.613-2.481v-8.78h3.651V4.658h-3.67V1.27z"/></g><path stroke="#fff" stroke-opacity=".2" stroke-width="4.094" d="M48.566 19.62h2.118V0h-2.118z" mask="url(#k)"/><path stroke="#fff" stroke-opacity=".2" stroke-width="4.094" d="M63.812 19.62h-6.515c-2.708 0-4.356-1.613-4.356-4.342v-6.28c0-2.728 1.648-4.342 4.356-4.342h2.472c2.677 0 4.325 1.614 4.325 4.343v4.167H55.06v2.053c0 1.644.824 2.553 2.472 2.553h6.28zm-8.752-8.01h6.945V9.058c0-1.644-.824-2.524-2.472-2.524h-2c-1.649 0-2.473.88-2.473 2.524zm46.063 12.391h-2.158V4.661h7.066c2.691 0 4.228 1.62 4.228 4.363v6.31c0 2.741-1.537 4.363-4.228 4.363h-4.908zm0-6.191h4.494c1.685 0 2.513-.914 2.513-2.565V9.112c0-1.65-.828-2.565-2.513-2.565h-4.494zm11.397 6.191h2.158v-4.304h4.908c2.69 0 4.228-1.622 4.228-4.364v-6.31c0-2.741-1.538-4.363-4.228-4.363h-7.066zm6.652-6.191h-4.494V6.547h4.494c1.685 0 2.513.914 2.513 2.565v6.133c0 1.65-.828 2.565-2.513 2.565Z" clip-rule="evenodd" mask="url(#k)"/><path stroke="#fff" stroke-opacity=".2" stroke-width="4.094" d="M126.07 19.625h5.796c2.868 0 4.228-1.145 4.228-3.697 0-1.849-.444-3.199-2.632-4.05l-3.489-1.555c-1.005-.381-1.685-.88-1.685-1.878v-.498c0-.705.621-1.468 2.158-1.468h5.648V4.66h-6.032c-2.809 0-3.992 1.291-3.992 3.61 0 1.877.828 2.846 2.809 3.667l3.489 1.467c1.124.44 1.508 1.203 1.508 2.142v.558c0 1.173-.798 1.702-2.306 1.702h-5.5z" mask="url(#k)"/><path stroke="#fff" stroke-opacity=".2" stroke-width="4.094" d="M39.39 18.854c-2.678 0-4.238-1.617-4.238-4.35V9.006c0-2.734 1.648-4.35 4.356-4.35h6.797v14.99c0 2.704-1.648 4.35-4.355 4.35h-5.856v-1.91h5.591c1.678 0 2.472-.882 2.472-2.528v-.706zm4.767-1.882V6.537h-4.385c-1.677 0-2.471.912-2.471 2.558v5.32c0 1.675.794 2.557 2.471 2.557zm-18.181 1.882h4.767v.705c0 1.646-.794 2.528-2.472 2.528H22.68v1.91h5.856c2.707 0 4.355-1.646 4.355-4.35V4.657h-6.797c-2.708 0-4.356 1.616-4.356 4.35v5.496c0 2.734 1.56 4.35 4.238 4.35Zm4.767-12.317v10.435h-4.385c-1.677 0-2.471-.882-2.471-2.557v-5.32c0-1.646.794-2.558 2.471-2.558zM15.106 19.62h-2.543c-2.72 0-4.376-1.613-4.376-4.342v-6.28c0-2.728 1.656-4.342 4.376-4.342h2.543c2.72 0 4.376 1.614 4.376 4.343v6.28c0 2.728-1.656 4.342-4.376 4.342ZM12.8 17.744h2.07c1.655 0 2.483-.88 2.483-2.523V9.058c0-1.644-.828-2.524-2.484-2.524H12.8c-1.655 0-2.483.88-2.483 2.524v6.162c0 1.643.828 2.523 2.484 2.523Z" clip-rule="evenodd" mask="url(#k)"/><path stroke="#fff" stroke-opacity=".2" stroke-width="4.094" d="M0 1.27v14.09c0 2.715 1.781 4.262 4.483 4.262h1.87v-1.868H4.75c-1.663 0-2.613-.847-2.613-2.481v-8.78h3.651V4.658h-3.67V1.27z" mask="url(#k)"/><path fill="url(#l)" fill-rule="evenodd" d="M72 12.272c0-4.133 3.37-7.484 7.526-7.484H88.9c4.314 0 7.81 3.477 7.81 7.766v7.201H79.527c-4.156 0-7.526-3.35-7.526-7.483m7.481 5.363a5.366 5.366 0 1 0 0-10.731 5.366 5.366 0 0 0 0 10.731" clip-rule="evenodd"/><defs><linearGradient id="b" x1="68.047" x2="68.047" y1="-3.001" y2="24.001" gradientUnits="userSpaceOnUse"><stop stop-color="#fff"/><stop offset=".85" stop-color="#fff" stop-opacity=".2"/></linearGradient><linearGradient id="c" x1="68.047" x2="68.047" y1="-3.001" y2="24.001" gradientUnits="userSpaceOnUse"><stop stop-color="#fff"/><stop offset=".85" stop-color="#fff" stop-opacity=".2"/></linearGradient><linearGradient id="d" x1="68.047" x2="68.047" y1="-3.001" y2="24.001" gradientUnits="userSpaceOnUse"><stop stop-color="#fff"/><stop offset=".85" stop-color="#fff" stop-opacity=".2"/></linearGradient><linearGradient id="e" x1="68.047" x2="68.047" y1="-3.001" y2="24.001" gradientUnits="userSpaceOnUse"><stop stop-color="#fff"/><stop offset=".85" stop-color="#fff" stop-opacity=".2"/></linearGradient><linearGradient id="f" x1="68.047" x2="68.047" y1="-3.001" y2="24.001" gradientUnits="userSpaceOnUse"><stop stop-color="#fff"/><stop offset=".85" stop-color="#fff" stop-opacity=".2"/></linearGradient><linearGradient id="g" x1="68.047" x2="68.047" y1="-3.001" y2="24.001" gradientUnits="userSpaceOnUse"><stop stop-color="#fff"/><stop offset=".85" stop-color="#fff" stop-opacity=".2"/></linearGradient><linearGradient id="h" x1="68.047" x2="68.047" y1="-3.001" y2="24.001" gradientUnits="userSpaceOnUse"><stop stop-color="#fff"/><stop offset=".85" stop-color="#fff" stop-opacity=".2"/></linearGradient><linearGradient id="i" x1="68.047" x2="68.047" y1="-3.001" y2="24.001" gradientUnits="userSpaceOnUse"><stop stop-color="#fff"/><stop offset=".85" stop-color="#fff" stop-opacity=".2"/></linearGradient><linearGradient id="j" x1="68.047" x2="68.047" y1="-3.001" y2="24.001" gradientUnits="userSpaceOnUse"><stop stop-color="#fff"/><stop offset=".85" stop-color="#fff" stop-opacity=".2"/></linearGradient><linearGradient id="l" x1="84.355" x2="84.355" y1="-2.501" y2="19.755" gradientUnits="userSpaceOnUse"><stop stop-color="#fff"/><stop offset="1" stop-color="#fff" stop-opacity=".3"/></linearGradient><filter id="a" width="136.094" height="24.76" x="0" y="-.001" color-interpolation-filters="sRGB" filterUnits="userSpaceOnUse"><feFlood flood-opacity="0" result="BackgroundImageFix"/><feBlend in="SourceGraphic" in2="BackgroundImageFix" result="shape"/><feColorMatrix in="SourceAlpha" result="hardAlpha" values="0 0 0 0 0 0 0 0 0 0 0 0 0 0 0 0 0 0 127 0"/><feOffset dy=".757"/><feGaussianBlur stdDeviation=".757"/><feComposite in2="hardAlpha" k2="-1" k3="1" operator="arithmetic"/><feColorMatrix values="0 0 0 0 1 0 0 0 0 1 0 0 0 0 1 0 0 0 0.25 0"/><feBlend in2="shape" result="effect1_innerShadow_435_2317"/><feColorMatrix in="SourceAlpha" result="hardAlpha" values="0 0 0 0 0 0 0 0 0 0 0 0 0 0 0 0 0 0 127 0"/><feOffset/><feGaussianBlur stdDeviation=".284"/><feComposite in2="hardAlpha" k2="-1" k3="1" operator="arithmetic"/><feColorMatrix values="0 0 0 0 1 0 0 0 0 1 0 0 0 0 1 0 0 0 0.4 0"/><feBlend in2="effect1_innerShadow_435_2317" result="effect2_innerShadow_435_2317"/></filter></defs></svg>