<svg xmlns="http://www.w3.org/2000/svg" width="1440" height="900" fill="none"><ellipse cx="879.903" cy="329.35" fill="#D9D9D9" fill-opacity=".7" rx=".365" ry=".37"/><ellipse cx="902.338" cy="316.201" fill="#D9D9D9" fill-opacity=".5" rx=".182" ry=".185"/><ellipse cx="964.357" cy="324.715" fill="#D9D9D9" rx=".182" ry=".185"/><ellipse cx=".366" cy=".369" fill="#D9D9D9" rx=".366" ry=".369" transform="matrix(-.86274 .50565 -.49437 -.86925 1023.22 195.564)"/><ellipse cx=".366" cy=".369" fill="#D9D9D9" fill-opacity=".7" rx=".366" ry=".369" transform="matrix(-.86274 .50565 -.49437 -.86925 1007.69 234.172)"/><ellipse cx=".183" cy=".184" fill="#D9D9D9" fill-opacity=".5" rx=".183" ry=".184" transform="matrix(-.86274 .50565 -.49437 -.86925 994.484 256.881)"/><ellipse cx=".183" cy=".184" fill="#D9D9D9" rx=".183" ry=".184" transform="matrix(-.86274 .50565 -.49437 -.86925 1044.3 234.101)"/><ellipse cx=".183" cy=".184" fill="#D9D9D9" rx=".183" ry=".184" transform="matrix(-.86274 .50565 -.49437 -.86925 936.581 280.979)"/><circle cx=".367" cy=".367" r=".367" fill="#D9D9D9" transform="scale(-.99246 -1.00749)rotate(-45 -513.975 1170.85)"/><circle cx=".367" cy=".367" r=".367" fill="#D9D9D9" fill-opacity=".7" transform="matrix(-.70177 .7124 -.70177 -.7124 965.914 62.024)"/><circle cx=".183" cy=".183" r=".183" fill="#D9D9D9" fill-opacity=".5" transform="scale(-.99246 -1.00749)rotate(-45 -587.87 1122.964)"/><circle cx=".183" cy=".183" r=".183" fill="#D9D9D9" transform="scale(-.99246 -1.00749)rotate(-45 -567.14 1191.829)"/><circle cx=".183" cy=".183" r=".183" fill="#D9D9D9" transform="scale(-.99246 -1.00749)rotate(-45 -608.91 1043.308)"/><circle cx=".367" cy=".367" r=".367" fill="#D9D9D9" transform="matrix(.25687 -.97316 .95864 .26076 957.249 259.513)"/><circle cx=".367" cy=".367" r=".367" fill="#D9D9D9" fill-opacity=".7" transform="matrix(.25687 -.97316 .95864 .26076 941.339 221.062)"/><circle cx=".183" cy=".183" r=".183" fill="#D9D9D9" fill-opacity=".5" transform="matrix(.25687 -.97316 .95864 .26076 934.859 195.529)"/><circle cx=".183" cy=".183" r=".183" fill="#D9D9D9" transform="matrix(.25687 -.97316 .95864 .26076 915.507 247.383)"/><circle cx=".183" cy=".183" r=".183" fill="#D9D9D9" transform="matrix(.25687 -.97316 .95864 .26076 959.015 136.919)"/><circle cx=".367" cy=".367" r=".367" fill="#D9D9D9" transform="scale(.99246 1.00749)rotate(45 351.558 1407.335)"/><circle cx=".367" cy=".367" r=".367" fill="#D9D9D9" fill-opacity=".7" transform="scale(.99246 1.00749)rotate(45 365.813 1459.497)"/><circle cx=".183" cy=".183" r=".183" fill="#D9D9D9" fill-opacity=".5" transform="scale(.99246 1.00749)rotate(45 369.947 1493.451)"/><circle cx=".183" cy=".183" r=".183" fill="#D9D9D9" transform="scale(.99246 1.00749)rotate(45 403.988 1430.09)"/><circle cx=".183" cy=".183" r=".183" fill="#D9D9D9" transform="scale(.99246 1.00749)rotate(45 328.497 1564.641)"/><circle cx=".367" cy=".367" r=".367" fill="#D9D9D9" transform="matrix(-.95864 -.26076 .25687 -.97316 1325.11 178.863)"/><circle cx=".367" cy=".367" r=".367" fill="#D9D9D9" fill-opacity=".7" transform="matrix(-.95864 -.26076 .25687 -.97316 1287.23 195.013)"/><circle cx=".183" cy=".183" r=".183" fill="#D9D9D9" fill-opacity=".5" transform="matrix(-.95864 -.26076 .25687 -.97316 1262.08 201.596)"/><circle cx=".183" cy=".183" r=".183" fill="#D9D9D9" transform="matrix(-.95864 -.26076 .25687 -.97316 1313.16 221.24)"/><circle cx=".183" cy=".183" r=".183" fill="#D9D9D9" transform="matrix(-.95864 -.26076 .25687 -.97316 1204.34 177.073)"/><ellipse cx="1282.4" cy=".37" fill="#D9D9D9" rx=".37" ry=".365" transform="rotate(90 1282.4 .37)"/><ellipse cx="1307.57" cy="33.332" fill="#D9D9D9" fill-opacity=".7" rx=".37" ry=".365" transform="rotate(90 1307.57 33.332)"/><ellipse cx="1320.52" cy="56.104" fill="#D9D9D9" fill-opacity=".5" rx=".185" ry=".182" transform="rotate(90 1320.52 56.104)"/><ellipse cx="1325.99" cy=".921" fill="#D9D9D9" rx=".185" ry=".182" transform="rotate(90 1325.99 .921)"/><ellipse cx="1312.13" cy="119.058" fill="#D9D9D9" rx=".185" ry=".182" transform="rotate(90 1312.13 119.058)"/><ellipse cx=".369" cy=".366" fill="#D9D9D9" rx=".369" ry=".366" transform="matrix(-.49437 -.86925 .86274 -.50565 1439.37 178.817)"/><ellipse cx=".369" cy=".366" fill="#D9D9D9" fill-opacity=".7" rx=".369" ry=".366" transform="matrix(-.49437 -.86925 .86274 -.50565 1401.34 163.052)"/><ellipse cx=".184" cy=".183" fill="#D9D9D9" fill-opacity=".5" rx=".184" ry=".183" transform="matrix(-.49437 -.86925 .86274 -.50565 1378.96 149.644)"/><ellipse cx=".184" cy=".183" fill="#D9D9D9" rx=".184" ry=".183" transform="matrix(-.49437 -.86925 .86274 -.50565 1401.41 200.216)"/><ellipse cx=".184" cy=".183" fill="#D9D9D9" rx=".184" ry=".183" transform="matrix(-.49437 -.86925 .86274 -.50565 1355.23 90.865)"/><ellipse cx="864.341" cy="653.512" fill="#D9D9D9" rx=".37" ry=".365" transform="rotate(-90 864.341 653.512)"/><ellipse cx="839.173" cy="620.55" fill="#D9D9D9" fill-opacity=".7" rx=".37" ry=".365" transform="rotate(-90 839.173 620.55)"/><ellipse cx="826.225" cy="597.774" fill="#D9D9D9" fill-opacity=".5" rx=".185" ry=".182" transform="rotate(-90 826.225 597.774)"/><ellipse cx="820.748" cy="652.957" fill="#D9D9D9" rx=".185" ry=".182" transform="rotate(-90 820.748 652.957)"/><ellipse cx="834.612" cy="534.824" fill="#D9D9D9" rx=".185" ry=".182" transform="rotate(-90 834.612 534.824)"/><ellipse cx=".369" cy=".366" fill="#D9D9D9" rx=".369" ry=".366" transform="matrix(.49437 .86925 -.86274 .50565 707.375 475.068)"/><ellipse cx=".369" cy=".366" fill="#D9D9D9" fill-opacity=".7" rx=".369" ry=".366" transform="matrix(.49437 .86925 -.86274 .50565 745.406 490.833)"/><ellipse cx=".184" cy=".183" fill="#D9D9D9" fill-opacity=".5" rx=".184" ry=".183" transform="matrix(.49437 .86925 -.86274 .50565 767.777 504.242)"/><ellipse cx=".184" cy=".183" fill="#D9D9D9" rx=".184" ry=".183" transform="matrix(.49437 .86925 -.86274 .50565 745.335 453.669)"/><ellipse cx=".184" cy=".183" fill="#D9D9D9" rx=".184" ry=".183" transform="matrix(.49437 .86925 -.86274 .50565 791.515 563.021)"/><circle cx=".367" cy=".367" r=".367" fill="#D9D9D9" transform="scale(.99246 1.00749)rotate(45 -363.051 912.848)"/><circle cx=".367" cy=".367" r=".367" fill="#D9D9D9" fill-opacity=".7" transform="scale(.99246 1.00749)rotate(45 -348.794 965.015)"/><circle cx=".183" cy=".183" r=".183" fill="#D9D9D9" fill-opacity=".5" transform="scale(.99246 1.00749)rotate(45 -344.661 998.966)"/><circle cx=".183" cy=".183" r=".183" fill="#D9D9D9" transform="scale(.99246 1.00749)rotate(45 -310.621 935.605)"/><circle cx=".183" cy=".183" r=".183" fill="#D9D9D9" transform="scale(.99246 1.00749)rotate(45 -386.11 1070.16)"/><circle cx=".367" cy=".367" r=".367" fill="#D9D9D9" transform="matrix(-.95864 -.26076 .25687 -.97316 770.375 542.035)"/><circle cx=".367" cy=".367" r=".367" fill="#D9D9D9" fill-opacity=".7" transform="matrix(-.95864 -.26076 .25687 -.97316 732.496 558.186)"/><circle cx=".183" cy=".183" r=".183" fill="#D9D9D9" fill-opacity=".5" transform="matrix(-.95864 -.26076 .25687 -.97316 707.343 564.768)"/><circle cx=".183" cy=".183" r=".183" fill="#D9D9D9" transform="matrix(-.95864 -.26076 .25687 -.97316 758.425 584.412)"/><circle cx=".183" cy=".183" r=".183" fill="#D9D9D9" transform="matrix(-.95864 -.26076 .25687 -.97316 649.609 540.245)"/><circle cx=".367" cy=".367" r=".367" fill="#D9D9D9" fill-opacity=".7" transform="scale(.99246 1.00749)rotate(-45 782.351 -648.143)"/><circle cx=".183" cy=".183" r=".183" fill="#D9D9D9" fill-opacity=".5" transform="scale(.99246 1.00749)rotate(-45 755.433 -669.218)"/><circle cx=".367" cy=".367" r=".367" fill="#D9D9D9" fill-opacity=".7" transform="matrix(-.25687 .97316 -.95864 -.26076 706.839 207.071)"/><circle cx=".183" cy=".183" r=".183" fill="#D9D9D9" fill-opacity=".5" transform="matrix(-.25687 .97316 -.95864 -.26076 713.32 232.605)"/><circle cx=".183" cy=".183" r=".183" fill="#D9D9D9" transform="matrix(-.25687 .97316 -.95864 -.26076 732.671 180.747)"/><ellipse cx="515.099" cy="211.961" fill="#D9D9D9" rx=".365" ry=".37"/><ellipse cx="547.567" cy="186.411" fill="#D9D9D9" fill-opacity=".7" rx=".365" ry=".37"/><ellipse cx="570.006" cy="173.266" fill="#D9D9D9" fill-opacity=".5" rx=".182" ry=".185"/><ellipse cx="515.643" cy="167.707" fill="#D9D9D9" rx=".182" ry=".185"/><ellipse cx="632.018" cy="181.78" fill="#D9D9D9" rx=".182" ry=".185"/><ellipse cx=".366" cy=".369" fill="#D9D9D9" rx=".366" ry=".369" transform="matrix(-.86274 .50565 -.49437 -.86925 690.878 52.614)"/><ellipse cx=".366" cy=".369" fill="#D9D9D9" fill-opacity=".7" rx=".366" ry=".369" transform="matrix(-.86274 .50565 -.49437 -.86925 675.347 91.222)"/><ellipse cx=".183" cy=".184" fill="#D9D9D9" fill-opacity=".5" rx=".183" ry=".184" transform="matrix(-.86274 .50565 -.49437 -.86925 662.14 113.931)"/><ellipse cx=".183" cy=".184" fill="#D9D9D9" rx=".183" ry=".184" transform="matrix(-.86274 .50565 -.49437 -.86925 711.957 91.151)"/><ellipse cx=".183" cy=".184" fill="#D9D9D9" rx=".183" ry=".184" transform="matrix(-.86274 .50565 -.49437 -.86925 604.238 138.029)"/><ellipse cx=".369" cy=".366" fill="#D9D9D9" rx=".369" ry=".366" transform="matrix(-.4771 .87885 -.87272 -.48823 286.816 201.731)"/><ellipse cx=".369" cy=".366" fill="#D9D9D9" fill-opacity=".7" rx=".369" ry=".366" transform="matrix(-.4771 .87885 -.87272 -.48823 293.191 242.928)"/><ellipse cx=".184" cy=".183" fill="#D9D9D9" fill-opacity=".5" rx=".184" ry=".183" transform="matrix(-.4771 .87885 -.87272 -.48823 293.457 269.292)"/><ellipse cx=".184" cy=".183" fill="#D9D9D9" rx=".184" ry=".183" transform="matrix(-.4771 .87885 -.87272 -.48823 324.484 223.649)"/><ellipse cx=".184" cy=".183" fill="#D9D9D9" rx=".184" ry=".183" transform="matrix(-.4771 .87885 -.87272 -.48823 256.175 320.32)"/><ellipse cx=".368" cy=".367" fill="#D9D9D9" rx=".368" ry=".367" transform="matrix(-.01973 -1.00527 .99426 -.02011 338.941 435.075)"/><ellipse cx=".368" cy=".367" fill="#D9D9D9" fill-opacity=".7" rx=".368" ry=".367" transform="matrix(-.01973 -1.00527 .99426 -.02011 313.132 402.633)"/><ellipse cx=".184" cy=".183" fill="#D9D9D9" fill-opacity=".5" rx=".184" ry=".183" transform="matrix(-.01973 -1.00527 .99426 -.02011 299.917 379.936)"/><ellipse cx=".184" cy=".183" fill="#D9D9D9" rx=".184" ry=".183" transform="matrix(-.01973 -1.00527 .99426 -.02011 295.523 435.213)"/><ellipse cx=".184" cy=".183" fill="#D9D9D9" rx=".184" ry=".183" transform="matrix(-.01973 -1.00527 .99426 -.02011 307.07 316.816)"/><circle cx=".367" cy=".367" r=".367" fill="#D9D9D9" transform="matrix(-.27591 -.96777 .95333 -.2801 515.011 473.132)"/><circle cx=".367" cy=".367" r=".367" fill="#D9D9D9" fill-opacity=".7" transform="matrix(-.27591 -.96777 .95333 -.2801 481.812 448.578)"/><circle cx=".183" cy=".183" r=".183" fill="#D9D9D9" fill-opacity=".5" transform="matrix(-.27591 -.96777 .95333 -.2801 463.253 430.125)"/><circle cx=".183" cy=".183" r=".183" fill="#D9D9D9" transform="matrix(-.27591 -.96777 .95333 -.2801 473.109 484.671)"/><circle cx=".183" cy=".183" r=".183" fill="#D9D9D9" transform="matrix(-.27591 -.96777 .95333 -.2801 454.074 367.286)"/><circle cx=".367" cy=".367" r=".367" fill="#D9D9D9" transform="matrix(.71561 .69807 -.68765 .72645 315.613 345.553)"/><circle cx=".367" cy=".367" r=".367" fill="#D9D9D9" fill-opacity=".7" transform="matrix(.71561 .69807 -.68765 .72645 356.464 349.964)"/><circle cx=".183" cy=".183" r=".183" fill="#D9D9D9" fill-opacity=".5" transform="matrix(.71561 .69807 -.68765 .72645 381.625 356.526)"/><circle cx=".183" cy=".183" r=".183" fill="#D9D9D9" transform="matrix(.71561 .69807 -.68765 .72645 346.218 314.287)"/><circle cx=".183" cy=".183" r=".183" fill="#D9D9D9" transform="matrix(.71561 .69807 -.68765 .72645 420.527 406.288)"/><circle cx=".367" cy=".367" r=".367" fill="#D9D9D9" transform="matrix(-.95333 .2801 -.27591 -.96777 333.3 509.114)"/><circle cx=".367" cy=".367" r=".367" fill="#D9D9D9" fill-opacity=".7" transform="matrix(-.95333 .2801 -.27591 -.96777 309.113 542.816)"/><circle cx=".183" cy=".183" r=".183" fill="#D9D9D9" fill-opacity=".5" transform="matrix(-.95333 .2801 -.27591 -.96777 290.937 561.654)"/><circle cx=".183" cy=".183" r=".183" fill="#D9D9D9" transform="matrix(-.95333 .2801 -.27591 -.96777 344.667 551.649)"/><circle cx=".183" cy=".183" r=".183" fill="#D9D9D9" transform="matrix(-.95333 .2801 -.27591 -.96777 229.035 570.974)"/><circle cx=".367" cy=".367" r=".367" fill="#D9D9D9" transform="matrix(.68765 -.72645 .71561 .69807 207.64 711.528)"/><circle cx=".367" cy=".367" r=".367" fill="#D9D9D9" fill-opacity=".7" transform="matrix(.68765 -.72645 .71561 .69807 211.984 670.057)"/><circle cx=".183" cy=".183" r=".183" fill="#D9D9D9" fill-opacity=".5" transform="matrix(.68765 -.72645 .71561 .69807 218.449 644.515)"/><circle cx=".183" cy=".183" r=".183" fill="#D9D9D9" transform="matrix(.68765 -.72645 .71561 .69807 176.839 680.459)"/><circle cx=".183" cy=".183" r=".183" fill="#D9D9D9" transform="matrix(.68765 -.72645 .71561 .69807 267.468 605.025)"/><ellipse cx=".366" cy=".369" fill="#D9D9D9" rx=".366" ry=".369" transform="matrix(-.87272 -.48823 .4771 -.87885 382.382 760.215)"/><ellipse cx=".366" cy=".369" fill="#D9D9D9" fill-opacity=".7" rx=".366" ry=".369" transform="matrix(-.87272 -.48823 .4771 -.87885 341.8 766.687)"/><ellipse cx=".183" cy=".184" fill="#D9D9D9" fill-opacity=".5" rx=".183" ry=".184" transform="matrix(-.87272 -.48823 .4771 -.87885 315.828 766.958)"/><ellipse cx=".183" cy=".184" fill="#D9D9D9" rx=".183" ry=".184" transform="matrix(-.87272 -.48823 .4771 -.87885 360.792 798.453)"/><ellipse cx=".183" cy=".184" fill="#D9D9D9" rx=".183" ry=".184" transform="matrix(-.87272 -.48823 .4771 -.87885 265.562 729.11)"/><ellipse cx=".367" cy=".368" fill="#D9D9D9" rx=".367" ry=".368" transform="matrix(.99426 -.02011 .01973 1.00527 152.527 813.131)"/><ellipse cx=".367" cy=".368" fill="#D9D9D9" fill-opacity=".7" rx=".367" ry=".368" transform="matrix(.99426 -.02011 .01973 1.00527 184.484 786.932)"/><ellipse cx=".183" cy=".184" fill="#D9D9D9" fill-opacity=".5" rx=".183" ry=".184" transform="matrix(.99426 -.02011 .01973 1.00527 206.843 773.516)"/><ellipse cx=".183" cy=".184" fill="#D9D9D9" rx=".183" ry=".184" transform="matrix(.99426 -.02011 .01973 1.00527 152.39 769.054)"/><ellipse cx=".183" cy=".184" fill="#D9D9D9" rx=".183" ry=".184" transform="matrix(.99426 -.02011 .01973 1.00527 269.019 780.778)"/></svg>