<svg width="1440" height="900" viewBox="0 0 1440 900" fill="none" xmlns="http://www.w3.org/2000/svg">
<ellipse cx="879.903" cy="329.35" rx="0.364802" ry="0.370327" fill="#D9D9D9" fill-opacity="0.7"/>
<ellipse cx="902.338" cy="316.201" rx="0.182401" ry="0.185164" fill="#D9D9D9" fill-opacity="0.5"/>
<ellipse cx="964.357" cy="324.715" rx="0.182401" ry="0.185164" fill="#D9D9D9"/>
<ellipse cx="0.366191" cy="0.368954" rx="0.366191" ry="0.368954" transform="matrix(-0.86274 0.505648 -0.494374 -0.86925 1023.22 195.564)" fill="#D9D9D9"/>
<ellipse cx="0.366191" cy="0.368954" rx="0.366191" ry="0.368954" transform="matrix(-0.86274 0.505648 -0.494374 -0.86925 1007.69 234.172)" fill="#D9D9D9" fill-opacity="0.7"/>
<ellipse cx="0.182785" cy="0.183547" rx="0.182785" ry="0.183547" transform="matrix(-0.86274 0.505648 -0.494374 -0.86925 994.484 256.881)" fill="#D9D9D9" fill-opacity="0.5"/>
<ellipse cx="0.182785" cy="0.183547" rx="0.182785" ry="0.183547" transform="matrix(-0.86274 0.505648 -0.494374 -0.86925 1044.3 234.101)" fill="#D9D9D9"/>
<ellipse cx="0.182785" cy="0.183547" rx="0.182785" ry="0.183547" transform="matrix(-0.86274 0.505648 -0.494374 -0.86925 936.581 280.979)" fill="#D9D9D9"/>
<circle cx="0.367368" cy="0.367368" r="0.367368" transform="matrix(-0.701772 0.712401 -0.701772 -0.712401 971.074 20.6548)" fill="#D9D9D9"/>
<circle cx="0.367368" cy="0.367368" r="0.367368" transform="matrix(-0.701772 0.712401 -0.701772 -0.712401 965.914 62.0244)" fill="#D9D9D9" fill-opacity="0.7"/>
<circle cx="0.183477" cy="0.183477" r="0.183477" transform="matrix(-0.701772 0.712401 -0.701772 -0.712401 958.949 87.4287)" fill="#D9D9D9" fill-opacity="0.5"/>
<circle cx="0.183477" cy="0.183477" r="0.183477" transform="matrix(-0.701772 0.712401 -0.701772 -0.712401 1001.25 52.3384)" fill="#D9D9D9"/>
<circle cx="0.183477" cy="0.183477" r="0.183477" transform="matrix(-0.701772 0.712401 -0.701772 -0.712401 909.164 125.922)" fill="#D9D9D9"/>
<ellipse cx="0.367368" cy="0.367368" rx="0.367368" ry="0.367368" transform="matrix(0.256866 -0.973158 0.958639 0.260757 957.249 259.513)" fill="#D9D9D9"/>
<ellipse cx="0.367368" cy="0.367368" rx="0.367368" ry="0.367368" transform="matrix(0.256866 -0.973158 0.958639 0.260757 941.339 221.062)" fill="#D9D9D9" fill-opacity="0.7"/>
<ellipse cx="0.183477" cy="0.183477" rx="0.183477" ry="0.183477" transform="matrix(0.256866 -0.973158 0.958639 0.260757 934.859 195.529)" fill="#D9D9D9" fill-opacity="0.5"/>
<ellipse cx="0.183477" cy="0.183477" rx="0.183477" ry="0.183477" transform="matrix(0.256866 -0.973158 0.958639 0.260757 915.507 247.383)" fill="#D9D9D9"/>
<ellipse cx="0.183477" cy="0.183477" rx="0.183477" ry="0.183477" transform="matrix(0.256866 -0.973158 0.958639 0.260757 959.015 136.919)" fill="#D9D9D9"/>
<circle cx="0.367368" cy="0.367368" r="0.367368" transform="matrix(0.701772 0.712401 -0.701772 0.712401 1089.82 164.835)" fill="#D9D9D9"/>
<circle cx="0.367368" cy="0.367368" r="0.367368" transform="matrix(0.701772 0.712401 -0.701772 0.712401 1130.57 170.072)" fill="#D9D9D9" fill-opacity="0.7"/>
<circle cx="0.183477" cy="0.183477" r="0.183477" transform="matrix(0.701772 0.712401 -0.701772 0.712401 1155.6 177.146)" fill="#D9D9D9" fill-opacity="0.5"/>
<circle cx="0.183477" cy="0.183477" r="0.183477" transform="matrix(0.701772 0.712401 -0.701772 0.712401 1121.03 134.198)" fill="#D9D9D9"/>
<circle cx="0.183477" cy="0.183477" r="0.183477" transform="matrix(0.701772 0.712401 -0.701772 0.712401 1193.51 227.682)" fill="#D9D9D9"/>
<ellipse cx="0.367368" cy="0.367368" rx="0.367368" ry="0.367368" transform="matrix(-0.958639 -0.260757 0.256866 -0.973158 1325.11 178.863)" fill="#D9D9D9"/>
<ellipse cx="0.367368" cy="0.367368" rx="0.367368" ry="0.367368" transform="matrix(-0.958639 -0.260757 0.256866 -0.973158 1287.23 195.013)" fill="#D9D9D9" fill-opacity="0.7"/>
<ellipse cx="0.183477" cy="0.183477" rx="0.183477" ry="0.183477" transform="matrix(-0.958639 -0.260757 0.256866 -0.973158 1262.08 201.596)" fill="#D9D9D9" fill-opacity="0.5"/>
<ellipse cx="0.183477" cy="0.183477" rx="0.183477" ry="0.183477" transform="matrix(-0.958639 -0.260757 0.256866 -0.973158 1313.16 221.24)" fill="#D9D9D9"/>
<ellipse cx="0.183477" cy="0.183477" rx="0.183477" ry="0.183477" transform="matrix(-0.958639 -0.260757 0.256866 -0.973158 1204.34 177.073)" fill="#D9D9D9"/>
<ellipse cx="1282.4" cy="0.370327" rx="0.370327" ry="0.364802" transform="rotate(90 1282.4 0.370327)" fill="#D9D9D9"/>
<ellipse cx="1307.57" cy="33.3322" rx="0.370327" ry="0.364802" transform="rotate(90 1307.57 33.3322)" fill="#D9D9D9" fill-opacity="0.7"/>
<ellipse cx="1320.52" cy="56.1041" rx="0.185164" ry="0.182401" transform="rotate(90 1320.52 56.1041)" fill="#D9D9D9" fill-opacity="0.5"/>
<ellipse cx="1325.99" cy="0.921004" rx="0.185164" ry="0.182401" transform="rotate(90 1325.99 0.921004)" fill="#D9D9D9"/>
<ellipse cx="1312.13" cy="119.058" rx="0.185164" ry="0.182401" transform="rotate(90 1312.13 119.058)" fill="#D9D9D9"/>
<ellipse cx="0.368954" cy="0.366191" rx="0.368954" ry="0.366191" transform="matrix(-0.494374 -0.86925 0.86274 -0.505648 1439.37 178.817)" fill="#D9D9D9"/>
<ellipse cx="0.368954" cy="0.366191" rx="0.368954" ry="0.366191" transform="matrix(-0.494374 -0.86925 0.86274 -0.505648 1401.34 163.052)" fill="#D9D9D9" fill-opacity="0.7"/>
<ellipse cx="0.183547" cy="0.182785" rx="0.183547" ry="0.182785" transform="matrix(-0.494374 -0.86925 0.86274 -0.505648 1378.96 149.644)" fill="#D9D9D9" fill-opacity="0.5"/>
<ellipse cx="0.183547" cy="0.182785" rx="0.183547" ry="0.182785" transform="matrix(-0.494374 -0.86925 0.86274 -0.505648 1401.41 200.216)" fill="#D9D9D9"/>
<ellipse cx="0.183547" cy="0.182785" rx="0.183547" ry="0.182785" transform="matrix(-0.494374 -0.86925 0.86274 -0.505648 1355.23 90.8647)" fill="#D9D9D9"/>
<ellipse cx="864.341" cy="653.512" rx="0.370327" ry="0.364802" transform="rotate(-90 864.341 653.512)" fill="#D9D9D9"/>
<ellipse cx="839.173" cy="620.55" rx="0.370327" ry="0.364802" transform="rotate(-90 839.173 620.55)" fill="#D9D9D9" fill-opacity="0.7"/>
<ellipse cx="826.225" cy="597.774" rx="0.185164" ry="0.182401" transform="rotate(-90 826.225 597.774)" fill="#D9D9D9" fill-opacity="0.5"/>
<ellipse cx="820.748" cy="652.957" rx="0.185164" ry="0.182401" transform="rotate(-90 820.748 652.957)" fill="#D9D9D9"/>
<ellipse cx="834.612" cy="534.824" rx="0.185164" ry="0.182401" transform="rotate(-90 834.612 534.824)" fill="#D9D9D9"/>
<ellipse cx="0.368954" cy="0.366191" rx="0.368954" ry="0.366191" transform="matrix(0.494374 0.86925 -0.86274 0.505648 707.375 475.068)" fill="#D9D9D9"/>
<ellipse cx="0.368954" cy="0.366191" rx="0.368954" ry="0.366191" transform="matrix(0.494374 0.86925 -0.86274 0.505648 745.406 490.833)" fill="#D9D9D9" fill-opacity="0.7"/>
<ellipse cx="0.183547" cy="0.182785" rx="0.183547" ry="0.182785" transform="matrix(0.494374 0.86925 -0.86274 0.505648 767.777 504.242)" fill="#D9D9D9" fill-opacity="0.5"/>
<ellipse cx="0.183547" cy="0.182785" rx="0.183547" ry="0.182785" transform="matrix(0.494374 0.86925 -0.86274 0.505648 745.335 453.669)" fill="#D9D9D9"/>
<ellipse cx="0.183547" cy="0.182785" rx="0.183547" ry="0.182785" transform="matrix(0.494374 0.86925 -0.86274 0.505648 791.515 563.021)" fill="#D9D9D9"/>
<circle cx="0.367368" cy="0.367368" r="0.367368" transform="matrix(0.701772 0.712401 -0.701772 0.712401 535.078 528.007)" fill="#D9D9D9"/>
<circle cx="0.367368" cy="0.367368" r="0.367368" transform="matrix(0.701772 0.712401 -0.701772 0.712401 575.832 533.244)" fill="#D9D9D9" fill-opacity="0.7"/>
<circle cx="0.183477" cy="0.183477" r="0.183477" transform="matrix(0.701772 0.712401 -0.701772 0.712401 600.859 540.318)" fill="#D9D9D9" fill-opacity="0.5"/>
<circle cx="0.183477" cy="0.183477" r="0.183477" transform="matrix(0.701772 0.712401 -0.701772 0.712401 566.289 497.371)" fill="#D9D9D9"/>
<circle cx="0.183477" cy="0.183477" r="0.183477" transform="matrix(0.701772 0.712401 -0.701772 0.712401 638.773 590.854)" fill="#D9D9D9"/>
<ellipse cx="0.367368" cy="0.367368" rx="0.367368" ry="0.367368" transform="matrix(-0.958639 -0.260757 0.256866 -0.973158 770.375 542.035)" fill="#D9D9D9"/>
<ellipse cx="0.367368" cy="0.367368" rx="0.367368" ry="0.367368" transform="matrix(-0.958639 -0.260757 0.256866 -0.973158 732.496 558.186)" fill="#D9D9D9" fill-opacity="0.7"/>
<circle cx="0.183477" cy="0.183477" r="0.183477" transform="matrix(-0.958639 -0.260757 0.256866 -0.973158 707.343 564.768)" fill="#D9D9D9" fill-opacity="0.5"/>
<circle cx="0.183477" cy="0.183477" r="0.183477" transform="matrix(-0.958639 -0.260757 0.256866 -0.973158 758.425 584.412)" fill="#D9D9D9"/>
<circle cx="0.183477" cy="0.183477" r="0.183477" transform="matrix(-0.958639 -0.260757 0.256866 -0.973158 649.609 540.245)" fill="#D9D9D9"/>
<circle cx="0.367368" cy="0.367368" r="0.367368" transform="matrix(0.701772 -0.712401 0.701772 0.712401 682.265 366.09)" fill="#D9D9D9" fill-opacity="0.7"/>
<circle cx="0.183477" cy="0.183477" r="0.183477" transform="matrix(0.701772 -0.712401 0.701772 0.712401 689.23 340.694)" fill="#D9D9D9" fill-opacity="0.5"/>
<ellipse cx="0.367368" cy="0.367368" rx="0.367368" ry="0.367368" transform="matrix(-0.256866 0.973158 -0.958639 -0.260757 706.839 207.071)" fill="#D9D9D9" fill-opacity="0.7"/>
<circle cx="0.183477" cy="0.183477" r="0.183477" transform="matrix(-0.256866 0.973158 -0.958639 -0.260757 713.32 232.605)" fill="#D9D9D9" fill-opacity="0.5"/>
<circle cx="0.183477" cy="0.183477" r="0.183477" transform="matrix(-0.256866 0.973158 -0.958639 -0.260757 732.671 180.747)" fill="#D9D9D9"/>
<ellipse cx="515.099" cy="211.961" rx="0.364802" ry="0.370327" fill="#D9D9D9"/>
<ellipse cx="547.567" cy="186.411" rx="0.364802" ry="0.370327" fill="#D9D9D9" fill-opacity="0.7"/>
<ellipse cx="570.006" cy="173.266" rx="0.182401" ry="0.185164" fill="#D9D9D9" fill-opacity="0.5"/>
<ellipse cx="515.643" cy="167.707" rx="0.182401" ry="0.185164" fill="#D9D9D9"/>
<ellipse cx="632.018" cy="181.78" rx="0.182401" ry="0.185164" fill="#D9D9D9"/>
<ellipse cx="0.366191" cy="0.368954" rx="0.366191" ry="0.368954" transform="matrix(-0.86274 0.505648 -0.494374 -0.86925 690.878 52.6143)" fill="#D9D9D9"/>
<ellipse cx="0.366191" cy="0.368954" rx="0.366191" ry="0.368954" transform="matrix(-0.86274 0.505648 -0.494374 -0.86925 675.347 91.2222)" fill="#D9D9D9" fill-opacity="0.7"/>
<ellipse cx="0.182785" cy="0.183547" rx="0.182785" ry="0.183547" transform="matrix(-0.86274 0.505648 -0.494374 -0.86925 662.14 113.931)" fill="#D9D9D9" fill-opacity="0.5"/>
<ellipse cx="0.182785" cy="0.183547" rx="0.182785" ry="0.183547" transform="matrix(-0.86274 0.505648 -0.494374 -0.86925 711.957 91.1514)" fill="#D9D9D9"/>
<ellipse cx="0.182785" cy="0.183547" rx="0.182785" ry="0.183547" transform="matrix(-0.86274 0.505648 -0.494374 -0.86925 604.238 138.029)" fill="#D9D9D9"/>
<ellipse cx="0.369048" cy="0.366097" rx="0.369048" ry="0.366097" transform="matrix(-0.477097 0.878851 -0.872717 -0.488227 286.816 201.731)" fill="#D9D9D9"/>
<ellipse cx="0.369048" cy="0.366097" rx="0.369048" ry="0.366097" transform="matrix(-0.477097 0.878851 -0.872717 -0.488227 293.191 242.928)" fill="#D9D9D9" fill-opacity="0.7"/>
<ellipse cx="0.183573" cy="0.182758" rx="0.183573" ry="0.182758" transform="matrix(-0.477097 0.878851 -0.872717 -0.488227 293.457 269.292)" fill="#D9D9D9" fill-opacity="0.5"/>
<ellipse cx="0.183573" cy="0.182758" rx="0.183573" ry="0.182758" transform="matrix(-0.477097 0.878851 -0.872717 -0.488227 324.484 223.649)" fill="#D9D9D9"/>
<ellipse cx="0.183573" cy="0.182758" rx="0.183573" ry="0.182758" transform="matrix(-0.477097 0.878851 -0.872717 -0.488227 256.175 320.32)" fill="#D9D9D9"/>
<ellipse cx="0.368312" cy="0.366837" rx="0.368312" ry="0.366837" transform="matrix(-0.0197303 -1.00527 0.994256 -0.0201097 338.941 435.075)" fill="#D9D9D9"/>
<ellipse cx="0.368312" cy="0.366837" rx="0.368312" ry="0.366837" transform="matrix(-0.0197303 -1.00527 0.994256 -0.0201097 313.132 402.633)" fill="#D9D9D9" fill-opacity="0.7"/>
<ellipse cx="0.183501" cy="0.183039" rx="0.183501" ry="0.183039" transform="matrix(-0.0197303 -1.00527 0.994256 -0.0201097 299.917 379.936)" fill="#D9D9D9" fill-opacity="0.5"/>
<ellipse cx="0.183501" cy="0.183039" rx="0.183501" ry="0.183039" transform="matrix(-0.0197303 -1.00527 0.994256 -0.0201097 295.523 435.213)" fill="#D9D9D9"/>
<ellipse cx="0.183501" cy="0.183039" rx="0.183501" ry="0.183039" transform="matrix(-0.0197303 -1.00527 0.994256 -0.0201097 307.07 316.816)" fill="#D9D9D9"/>
<ellipse cx="0.367368" cy="0.367368" rx="0.367368" ry="0.367368" transform="matrix(-0.275912 -0.967771 0.953332 -0.280091 515.011 473.132)" fill="#D9D9D9"/>
<ellipse cx="0.367368" cy="0.367368" rx="0.367368" ry="0.367368" transform="matrix(-0.275912 -0.967771 0.953332 -0.280091 481.812 448.578)" fill="#D9D9D9" fill-opacity="0.7"/>
<ellipse cx="0.183477" cy="0.183477" rx="0.183477" ry="0.183477" transform="matrix(-0.275912 -0.967771 0.953332 -0.280091 463.253 430.125)" fill="#D9D9D9" fill-opacity="0.5"/>
<ellipse cx="0.183477" cy="0.183477" rx="0.183477" ry="0.183477" transform="matrix(-0.275912 -0.967771 0.953332 -0.280091 473.109 484.671)" fill="#D9D9D9"/>
<ellipse cx="0.183477" cy="0.183477" rx="0.183477" ry="0.183477" transform="matrix(-0.275912 -0.967771 0.953332 -0.280091 454.074 367.286)" fill="#D9D9D9"/>
<circle cx="0.367368" cy="0.367368" r="0.367368" transform="matrix(0.715612 0.698069 -0.687654 0.726451 315.613 345.553)" fill="#D9D9D9"/>
<circle cx="0.367368" cy="0.367368" r="0.367368" transform="matrix(0.715612 0.698069 -0.687654 0.726451 356.464 349.964)" fill="#D9D9D9" fill-opacity="0.7"/>
<ellipse cx="0.183477" cy="0.183477" rx="0.183477" ry="0.183477" transform="matrix(0.715612 0.698069 -0.687654 0.726451 381.625 356.526)" fill="#D9D9D9" fill-opacity="0.5"/>
<ellipse cx="0.183477" cy="0.183477" rx="0.183477" ry="0.183477" transform="matrix(0.715612 0.698069 -0.687654 0.726451 346.218 314.287)" fill="#D9D9D9"/>
<ellipse cx="0.183477" cy="0.183477" rx="0.183477" ry="0.183477" transform="matrix(0.715612 0.698069 -0.687654 0.726451 420.527 406.288)" fill="#D9D9D9"/>
<ellipse cx="0.367368" cy="0.367368" rx="0.367368" ry="0.367368" transform="matrix(-0.953332 0.280091 -0.275912 -0.967771 333.3 509.114)" fill="#D9D9D9"/>
<ellipse cx="0.367368" cy="0.367368" rx="0.367368" ry="0.367368" transform="matrix(-0.953332 0.280091 -0.275912 -0.967771 309.113 542.816)" fill="#D9D9D9" fill-opacity="0.7"/>
<ellipse cx="0.183477" cy="0.183477" rx="0.183477" ry="0.183477" transform="matrix(-0.953332 0.280091 -0.275912 -0.967771 290.937 561.654)" fill="#D9D9D9" fill-opacity="0.5"/>
<ellipse cx="0.183477" cy="0.183477" rx="0.183477" ry="0.183477" transform="matrix(-0.953332 0.280091 -0.275912 -0.967771 344.667 551.649)" fill="#D9D9D9"/>
<ellipse cx="0.183477" cy="0.183477" rx="0.183477" ry="0.183477" transform="matrix(-0.953332 0.280091 -0.275912 -0.967771 229.035 570.974)" fill="#D9D9D9"/>
<circle cx="0.367368" cy="0.367368" r="0.367368" transform="matrix(0.687654 -0.726451 0.715612 0.698069 207.64 711.528)" fill="#D9D9D9"/>
<circle cx="0.367368" cy="0.367368" r="0.367368" transform="matrix(0.687654 -0.726451 0.715612 0.698069 211.984 670.057)" fill="#D9D9D9" fill-opacity="0.7"/>
<ellipse cx="0.183477" cy="0.183477" rx="0.183477" ry="0.183477" transform="matrix(0.687654 -0.726451 0.715612 0.698069 218.449 644.515)" fill="#D9D9D9" fill-opacity="0.5"/>
<ellipse cx="0.183477" cy="0.183477" rx="0.183477" ry="0.183477" transform="matrix(0.687654 -0.726451 0.715612 0.698069 176.839 680.459)" fill="#D9D9D9"/>
<ellipse cx="0.183477" cy="0.183477" rx="0.183477" ry="0.183477" transform="matrix(0.687654 -0.726451 0.715612 0.698069 267.468 605.025)" fill="#D9D9D9"/>
<ellipse cx="0.366097" cy="0.369048" rx="0.366097" ry="0.369048" transform="matrix(-0.872717 -0.488227 0.477097 -0.878851 382.382 760.215)" fill="#D9D9D9"/>
<ellipse cx="0.366097" cy="0.369048" rx="0.366097" ry="0.369048" transform="matrix(-0.872717 -0.488227 0.477097 -0.878851 341.8 766.687)" fill="#D9D9D9" fill-opacity="0.7"/>
<ellipse cx="0.182758" cy="0.183573" rx="0.182758" ry="0.183573" transform="matrix(-0.872717 -0.488227 0.477097 -0.878851 315.828 766.958)" fill="#D9D9D9" fill-opacity="0.5"/>
<ellipse cx="0.182758" cy="0.183573" rx="0.182758" ry="0.183573" transform="matrix(-0.872717 -0.488227 0.477097 -0.878851 360.792 798.453)" fill="#D9D9D9"/>
<ellipse cx="0.182758" cy="0.183573" rx="0.182758" ry="0.183573" transform="matrix(-0.872717 -0.488227 0.477097 -0.878851 265.562 729.11)" fill="#D9D9D9"/>
<ellipse cx="0.366837" cy="0.368312" rx="0.366837" ry="0.368312" transform="matrix(0.994256 -0.0201097 0.0197303 1.00527 152.527 813.131)" fill="#D9D9D9"/>
<ellipse cx="0.366837" cy="0.368312" rx="0.366837" ry="0.368312" transform="matrix(0.994256 -0.0201097 0.0197303 1.00527 184.484 786.932)" fill="#D9D9D9" fill-opacity="0.7"/>
<ellipse cx="0.183039" cy="0.183501" rx="0.183039" ry="0.183501" transform="matrix(0.994256 -0.0201097 0.0197303 1.00527 206.843 773.516)" fill="#D9D9D9" fill-opacity="0.5"/>
<ellipse cx="0.183039" cy="0.183501" rx="0.183039" ry="0.183501" transform="matrix(0.994256 -0.0201097 0.0197303 1.00527 152.39 769.054)" fill="#D9D9D9"/>
<ellipse cx="0.183039" cy="0.183501" rx="0.183039" ry="0.183501" transform="matrix(0.994256 -0.0201097 0.0197303 1.00527 269.019 780.778)" fill="#D9D9D9"/>
</svg>
