<svg xmlns="http://www.w3.org/2000/svg" width="137" height="24" fill="none" style="filter:drop-shadow(0 3.85172px 5.13563px rgba(0,0,0,.25))"><mask id="k" fill="#fff"><path d="M48.566 19.62h2.118V0h-2.118z"/><path fill-rule="evenodd" d="M63.812 19.62h-6.515c-2.708 0-4.356-1.613-4.356-4.342v-6.28c0-2.728 1.648-4.342 4.356-4.342h2.472c2.677 0 4.325 1.614 4.325 4.343v4.167H55.06v2.053c0 1.644.824 2.553 2.472 2.553h6.28zm-8.752-8.01h6.945V9.058c0-1.644-.824-2.524-2.472-2.524h-2c-1.649 0-2.473.88-2.473 2.524zm46.063 12.391h-2.158V4.661h7.066c2.691 0 4.228 1.62 4.228 4.363v6.31c0 2.741-1.537 4.363-4.228 4.363h-4.908zm0-6.191h4.494c1.685 0 2.513-.914 2.513-2.565V9.112c0-1.65-.828-2.565-2.513-2.565h-4.494zm11.397 6.191h2.158v-4.304h4.908c2.69 0 4.228-1.622 4.228-4.364v-6.31c0-2.741-1.538-4.363-4.228-4.363h-7.066zm6.652-6.191h-4.494V6.547h4.494c1.685 0 2.513.914 2.513 2.565v6.133c0 1.65-.828 2.565-2.513 2.565" clip-rule="evenodd"/><path d="M126.07 19.625h5.796c2.868 0 4.228-1.145 4.228-3.697 0-1.849-.444-3.199-2.632-4.05l-3.489-1.555c-1.005-.381-1.685-.88-1.685-1.878v-.498c0-.705.621-1.468 2.158-1.468h5.648V4.66h-6.032c-2.809 0-3.992 1.291-3.992 3.61 0 1.877.828 2.846 2.809 3.667l3.489 1.467c1.124.44 1.508 1.203 1.508 2.142v.558c0 1.173-.798 1.702-2.306 1.702h-5.5z"/><path fill-rule="evenodd" d="M39.39 18.854c-2.678 0-4.238-1.617-4.238-4.35V9.006c0-2.734 1.648-4.35 4.356-4.35h6.797v14.99c0 2.704-1.648 4.35-4.355 4.35h-5.856v-1.91h5.591c1.678 0 2.472-.882 2.472-2.528v-.706zm4.767-1.882V6.537h-4.385c-1.677 0-2.471.912-2.471 2.558v5.32c0 1.675.794 2.557 2.471 2.557zm-18.181 1.882h4.767v.705c0 1.646-.794 2.528-2.472 2.528H22.68v1.91h5.856c2.707 0 4.355-1.646 4.355-4.35V4.657h-6.797c-2.708 0-4.356 1.616-4.356 4.35v5.496c0 2.734 1.56 4.35 4.238 4.35m4.767-12.317v10.435h-4.385c-1.677 0-2.471-.882-2.471-2.557v-5.32c0-1.646.794-2.558 2.471-2.558zM15.106 19.62h-2.543c-2.72 0-4.376-1.613-4.376-4.342v-6.28c0-2.728 1.656-4.342 4.376-4.342h2.543c2.72 0 4.376 1.614 4.376 4.343v6.28c0 2.728-1.656 4.342-4.376 4.342M12.8 17.744h2.07c1.655 0 2.483-.88 2.483-2.523V9.058c0-1.644-.828-2.524-2.484-2.524H12.8c-1.655 0-2.483.88-2.483 2.524v6.162c0 1.643.828 2.523 2.484 2.523" clip-rule="evenodd"/><path d="M0 1.27v14.09c0 2.715 1.781 4.262 4.483 4.262h1.87v-1.868H4.75c-1.663 0-2.613-.847-2.613-2.481v-8.78h3.651V4.658h-3.67V1.27z"/></mask><g filter="url(#a)"><path fill="url(#b)" d="M48.566 19.62h2.118V0h-2.118z"/><path fill="url(#c)" fill-rule="evenodd" d="M63.812 19.62h-6.515c-2.708 0-4.356-1.613-4.356-4.342v-6.28c0-2.728 1.648-4.342 4.356-4.342h2.472c2.677 0 4.325 1.614 4.325 4.343v4.167H55.06v2.053c0 1.644.824 2.553 2.472 2.553h6.28zm-8.752-8.01h6.945V9.058c0-1.644-.824-2.524-2.472-2.524h-2c-1.649 0-2.473.88-2.473 2.524z" clip-rule="evenodd"/><path fill="url(#d)" fill-rule="evenodd" d="M101.123 24.001h-2.158V4.661h7.066c2.691 0 4.228 1.62 4.228 4.363v6.31c0 2.741-1.537 4.363-4.228 4.363h-4.908zm0-6.191h4.494c1.685 0 2.513-.914 2.513-2.565V9.112c0-1.65-.828-2.565-2.513-2.565h-4.494z" clip-rule="evenodd"/><path fill="url(#e)" fill-rule="evenodd" d="M112.52 24.001h2.158v-4.304h4.908c2.69 0 4.228-1.622 4.228-4.364v-6.31c0-2.741-1.538-4.363-4.228-4.363h-7.066zm6.652-6.191h-4.494V6.547h4.494c1.685 0 2.513.914 2.513 2.565v6.133c0 1.65-.828 2.565-2.513 2.565" clip-rule="evenodd"/><path fill="url(#f)" d="M126.07 19.625h5.796c2.868 0 4.228-1.145 4.228-3.697 0-1.849-.444-3.199-2.632-4.05l-3.489-1.555c-1.005-.381-1.685-.88-1.685-1.878v-.498c0-.705.621-1.468 2.158-1.468h5.648V4.66h-6.032c-2.809 0-3.992 1.291-3.992 3.61 0 1.877.828 2.846 2.809 3.667l3.489 1.467c1.124.44 1.508 1.203 1.508 2.142v.558c0 1.173-.798 1.702-2.306 1.702h-5.5z"/><path fill="url(#g)" fill-rule="evenodd" d="M39.39 18.854c-2.678 0-4.238-1.617-4.238-4.35V9.006c0-2.734 1.648-4.35 4.356-4.35h6.797v14.99c0 2.704-1.648 4.35-4.355 4.35h-5.856v-1.91h5.591c1.678 0 2.472-.882 2.472-2.528v-.706zm4.767-1.882V6.537h-4.385c-1.677 0-2.471.912-2.471 2.558v5.32c0 1.675.794 2.557 2.471 2.557z" clip-rule="evenodd"/><path fill="url(#h)" fill-rule="evenodd" d="M25.976 18.854h4.767v.705c0 1.646-.794 2.528-2.472 2.528H22.68v1.91h5.856c2.707 0 4.355-1.646 4.355-4.35V4.657h-6.797c-2.708 0-4.356 1.616-4.356 4.35v5.496c0 2.734 1.56 4.35 4.238 4.35m4.767-12.317v10.435h-4.385c-1.677 0-2.471-.882-2.471-2.557v-5.32c0-1.646.794-2.558 2.471-2.558z" clip-rule="evenodd"/><path fill="url(#i)" fill-rule="evenodd" d="M15.106 19.62h-2.543c-2.72 0-4.376-1.613-4.376-4.342v-6.28c0-2.728 1.656-4.342 4.376-4.342h2.543c2.72 0 4.376 1.614 4.376 4.343v6.28c0 2.728-1.656 4.342-4.376 4.342M12.8 17.744h2.07c1.655 0 2.483-.88 2.483-2.523V9.058c0-1.644-.828-2.524-2.484-2.524H12.8c-1.655 0-2.483.88-2.483 2.524v6.162c0 1.643.828 2.523 2.484 2.523" clip-rule="evenodd"/><path fill="url(#j)" d="M0 1.27v14.09c0 2.715 1.781 4.262 4.483 4.262h1.87v-1.868H4.75c-1.663 0-2.613-.847-2.613-2.481v-8.78h3.651V4.658h-3.67V1.27z"/></g><path stroke="#fff" stroke-opacity=".2" stroke-width="4.094" d="M48.566 19.62h2.118V0h-2.118z" mask="url(#k)"/><path stroke="#fff" stroke-opacity=".2" stroke-width="4.094" d="M63.812 19.62h-6.515c-2.708 0-4.356-1.613-4.356-4.342v-6.28c0-2.728 1.648-4.342 4.356-4.342h2.472c2.677 0 4.325 1.614 4.325 4.343v4.167H55.06v2.053c0 1.644.824 2.553 2.472 2.553h6.28zm-8.752-8.01h6.945V9.058c0-1.644-.824-2.524-2.472-2.524h-2c-1.649 0-2.473.88-2.473 2.524zm46.063 12.391h-2.158V4.661h7.066c2.691 0 4.228 1.62 4.228 4.363v6.31c0 2.741-1.537 4.363-4.228 4.363h-4.908zm0-6.191h4.494c1.685 0 2.513-.914 2.513-2.565V9.112c0-1.65-.828-2.565-2.513-2.565h-4.494zm11.397 6.191h2.158v-4.304h4.908c2.69 0 4.228-1.622 4.228-4.364v-6.31c0-2.741-1.538-4.363-4.228-4.363h-7.066zm6.652-6.191h-4.494V6.547h4.494c1.685 0 2.513.914 2.513 2.565v6.133c0 1.65-.828 2.565-2.513 2.565Z" clip-rule="evenodd" mask="url(#k)"/><path stroke="#fff" stroke-opacity=".2" stroke-width="4.094" d="M126.07 19.625h5.796c2.868 0 4.228-1.145 4.228-3.697 0-1.849-.444-3.199-2.632-4.05l-3.489-1.555c-1.005-.381-1.685-.88-1.685-1.878v-.498c0-.705.621-1.468 2.158-1.468h5.648V4.66h-6.032c-2.809 0-3.992 1.291-3.992 3.61 0 1.877.828 2.846 2.809 3.667l3.489 1.467c1.124.44 1.508 1.203 1.508 2.142v.558c0 1.173-.798 1.702-2.306 1.702h-5.5z" mask="url(#k)"/><path stroke="#fff" stroke-opacity=".2" stroke-width="4.094" d="M39.39 18.854c-2.678 0-4.238-1.617-4.238-4.35V9.006c0-2.734 1.648-4.35 4.356-4.35h6.797v14.99c0 2.704-1.648 4.35-4.355 4.35h-5.856v-1.91h5.591c1.678 0 2.472-.882 2.472-2.528v-.706zm4.767-1.882V6.537h-4.385c-1.677 0-2.471.912-2.471 2.558v5.32c0 1.675.794 2.557 2.471 2.557zm-18.181 1.882h4.767v.705c0 1.646-.794 2.528-2.472 2.528H22.68v1.91h5.856c2.707 0 4.355-1.646 4.355-4.35V4.657h-6.797c-2.708 0-4.356 1.616-4.356 4.35v5.496c0 2.734 1.56 4.35 4.238 4.35Zm4.767-12.317v10.435h-4.385c-1.677 0-2.471-.882-2.471-2.557v-5.32c0-1.646.794-2.558 2.471-2.558zM15.106 19.62h-2.543c-2.72 0-4.376-1.613-4.376-4.342v-6.28c0-2.728 1.656-4.342 4.376-4.342h2.543c2.72 0 4.376 1.614 4.376 4.343v6.28c0 2.728-1.656 4.342-4.376 4.342ZM12.8 17.744h2.07c1.655 0 2.483-.88 2.483-2.523V9.058c0-1.644-.828-2.524-2.484-2.524H12.8c-1.655 0-2.483.88-2.483 2.524v6.162c0 1.643.828 2.523 2.484 2.523Z" clip-rule="evenodd" mask="url(#k)"/><path stroke="#fff" stroke-opacity=".2" stroke-width="4.094" d="M0 1.27v14.09c0 2.715 1.781 4.262 4.483 4.262h1.87v-1.868H4.75c-1.663 0-2.613-.847-2.613-2.481v-8.78h3.651V4.658h-3.67V1.27z" mask="url(#k)"/><path fill="url(#l)" fill-rule="evenodd" d="M72 12.272c0-4.133 3.37-7.484 7.526-7.484H88.9c4.314 0 7.81 3.477 7.81 7.766v7.201H79.527c-4.156 0-7.526-3.35-7.526-7.483m7.481 5.363a5.366 5.366 0 1 0 0-10.731 5.366 5.366 0 0 0 0 10.731" clip-rule="evenodd"/><mask id="m" width="13" height="12" x="73" y="6" maskUnits="userSpaceOnUse" style="mask-type:luminance"><circle cx="79.654" cy="12.131" r="5.802" fill="#fff"/></mask><g mask="url(#m)" style="filter:drop-shadow(2.56781px 1.28391px 6.80471px rgba(0,0,0,.78))"><g filter="url(#n)"><circle cx="79.654" cy="12.131" r="5.802" fill="#000"/></g><g filter="url(#o)"><circle cx="79.656" cy="12.132" r="4.878" fill="url(#p)"/></g><g filter="url(#q)" style="mix-blend-mode:plus-lighter"><circle cx="79.654" cy="12.131" r="5.802" fill="#fff" fill-opacity=".01"/></g><g filter="url(#r)"><path fill="#4E00CC" d="M81.349 9.515c0 1.171-1.488 1.078-2.773 1.078s-1.54.879-1.54-.293c0-1.17 1.041-2.12 2.326-2.12s1.987.164 1.987 1.335" style="mix-blend-mode:screen"/><path fill="#FD18BD" d="M84.225 13.532c0 1.164-1.966 3.47-3.415 3.47s-3.876.044-3.876-1.12 2.427-.308 3.876-.308 3.415-3.206 3.415-2.042" style="mix-blend-mode:screen"/></g><g filter="url(#s)"><path fill="#5045E9" d="M80.216 9.962c.03-.407-.208-.647-.455-.941-.355-.422-.534-.537-1.078-.537-2.2 0-2.835 1.48-3.328 3.762-.117.54-.068 1.18.064 1.713.088.354.275.704.576.923.31.225.684.307 1.06.258.728-.094-.34-2.234.696-2.81.42-.234.567-.763.932-1.079.37-.321 1.492-.756 1.533-1.29"/><path stroke="#5045E9" stroke-linecap="round" stroke-width=".308" d="m79.643 9.12.053.063c.232.274.39.46.366.767-.006.081-.055.176-.162.286a2.4 2.4 0 0 1-.41.32c-.124.08-.253.157-.378.23l-.118.07a3 3 0 0 0-.412.279c-.175.151-.305.348-.42.522l-.052.078c-.134.2-.259.363-.434.46-.311.173-.457.463-.52.773-.061.306-.046.65-.022.96l.014.185c.02.242.037.45.024.617a.5.5 0 0 1-.051.205c-.019.03-.04.047-.085.052a1.3 1.3 0 0 1-.95-.23c-.263-.19-.435-.504-.517-.835-.129-.517-.174-1.132-.063-1.643.246-1.142.523-2.052.996-2.677.462-.611 1.122-.964 2.18-.964.264 0 .415.029.54.093.128.066.244.18.421.389Z"/></g><g filter="url(#t)"><path fill="#ECEAFF" d="M78.78 10.217c.015-.194-.104-.309-.228-.45-.177-.2-.267-.255-.539-.255-1.1 0-1.417.706-1.664 1.795-.058.258-.034.564.032.818a.77.77 0 0 0 .288.44.76.76 0 0 0 .53.124c.364-.045-.17-1.067.348-1.342.21-.111.284-.364.466-.515.185-.153.746-.36.767-.615"/><path stroke="#5045E9" stroke-linecap="round" stroke-width=".308" d="m78.437 9.87.017.019c.127.143.181.205.172.316 0 .01-.009.037-.057.084a1 1 0 0 1-.192.143 5 5 0 0 1-.245.141 1.6 1.6 0 0 0-.217.14 1.3 1.3 0 0 0-.225.267l-.025.036a.6.6 0 0 1-.19.195.6.6 0 0 0-.3.424 1.7 1.7 0 0 0-.013.482l.008.093c.01.114.017.205.01.276l-.006.045-.002.006a.6.6 0 0 1-.415-.098.6.6 0 0 1-.227-.353 1.7 1.7 0 0 1-.03-.745c.123-.544.258-.962.482-1.244.214-.27.52-.431 1.031-.431a.5.5 0 0 1 .237.036c.05.025.1.068.187.168Z"/></g><g filter="url(#u)"><path fill="#F451FF" d="M76.907 15.914c-1.296-1.109-2.154-2.536-1.489-4.107.137-.324.19-.55.462-.77.791-.642.529 2.447 1.233 3.183 1.397 1.461 1.059 1.588 3.08 1.54.65-.015 2.06-.735 2.67-.513 1.052.382-.428 1.079-1.488 1.438-1.677.567-3.122.38-4.468-.77"/></g><g filter="url(#v)" style="mix-blend-mode:screen"><path fill="#fff" d="M83.52 14.493c.104.503-.968 1.761-1.907 1.953s-2.51.534-2.613.031 1.547-.455 2.487-.648c.94-.192 1.93-1.839 2.034-1.336"/></g><g filter="url(#w)" style="mix-blend-mode:screen"><path fill="#fff" d="M78.357 14.942c-.258.124-1.085-.284-1.317-.766s-.63-1.286-.372-1.41.457.775.69 1.257c.231.482 1.257.795.999.92"/></g><g filter="url(#x)" style="mix-blend-mode:screen"><path fill="#fff" d="M82.39 15.093c.05.248-.477.867-.94.962s-1.235.262-1.286.015c-.05-.248.762-.225 1.224-.32.462-.094.95-.905 1.001-.657"/></g><g filter="url(#y)"><path fill="#000" d="M83.816 12.343c.275.502-1.268 1.297-2.583 2.018-1.314.722-1.368 1.242-1.644.74-.276-.503.566-1.494 1.88-2.216 1.315-.721 2.07-1.045 2.347-.542"/></g><circle cx="79.84" cy="8.483" r=".053" fill="#fff" opacity=".77" transform="rotate(-52 79.84 8.483)"/><circle cx="81.305" cy="8.679" r=".018" fill="#fff" opacity=".77" transform="rotate(-153 81.305 8.679)"/><circle cx="81.561" cy="9.901" r=".063" fill="#fff" opacity=".88" transform="rotate(95 81.56 9.901)"/><circle cx="83.254" cy="10.608" r=".053" fill="#fff" opacity=".73" transform="rotate(142 83.254 10.608)"/><circle cx="78.768" cy="9.221" r=".052" fill="#fff" opacity=".76" transform="rotate(-127 78.768 9.22)"/><circle cx="80.204" cy="10.867" r=".065" fill="#fff" opacity=".84" transform="rotate(78 80.204 10.867)"/><circle cx="81.006" cy="11.155" r=".018" fill="#fff" opacity=".93" transform="rotate(139 81.006 11.155)"/><circle cx="81.581" cy="11.939" r=".062" fill="#fff" opacity=".99" transform="rotate(166 81.58 11.939)"/><circle cx="82.169" cy="12.758" r=".041" fill="#fff" opacity=".83" transform="rotate(139 82.17 12.758)"/><circle cx="77.276" cy="10.397" r=".038" fill="#fff" opacity=".9" transform="rotate(51 77.276 10.397)"/><circle cx="77.449" cy="10.66" r=".036" fill="#fff" opacity=".95" transform="rotate(36 77.45 10.66)"/><circle cx="79.627" cy="11.203" r=".062" fill="#fff" opacity=".74" transform="rotate(153 79.627 11.203)"/><circle cx="80.087" cy="12.671" r=".045" fill="#fff" opacity=".89" transform="rotate(-49 80.087 12.671)"/><circle cx="80.089" cy="13.214" r=".036" fill="#fff" opacity=".87" transform="rotate(114 80.089 13.214)"/><circle cx="81.598" cy="13.216" r=".036" fill="#fff" opacity=".71" transform="rotate(-177 81.598 13.216)"/><circle cx="76.734" cy="10.619" r=".08" fill="#fff" opacity=".79" transform="rotate(114 76.734 10.619)"/><circle cx="77.326" cy="10.754" r=".036" fill="#fff" opacity=".76" transform="rotate(-175 77.326 10.754)"/><circle cx="77.667" cy="12.547" r=".046" fill="#fff" opacity=".97" transform="rotate(-95 77.667 12.547)"/><circle cx="79" cy="13.297" r=".022" fill="#fff" opacity=".92" transform="rotate(85 79 13.297)"/><circle cx="79.612" cy="14.366" r=".039" fill="#fff" opacity=".92" transform="rotate(-171 79.612 14.366)"/><circle cx="80.333" cy="15.309" r=".018" fill="#fff" opacity=".86" transform="rotate(6 80.333 15.309)"/><circle cx="81.445" cy="15.89" r=".018" fill="#fff" opacity=".92" transform="rotate(-154 81.445 15.89)"/><circle cx="76.736" cy="12.654" r=".061" fill="#fff" opacity=".79" transform="rotate(31 76.736 12.654)"/><circle cx="76.817" cy="13.467" r=".081" fill="#fff" opacity=".74" transform="rotate(152 76.817 13.467)"/><circle cx="77.696" cy="13.534" r=".018" fill="#fff" opacity=".76" transform="rotate(-152 77.696 13.534)"/><circle cx="77.662" cy="15.312" r=".036" fill="#fff" opacity=".82" transform="rotate(-133 77.662 15.312)"/><circle cx="79.082" cy="15.43" r=".02" fill="#fff" opacity=".94" transform="rotate(-29 79.082 15.43)"/><circle cx="78.424" cy="10.71" r=".029" fill="#fff" opacity=".77" transform="rotate(-97 78.424 10.71)"/><circle cx="79.077" cy="10.216" r=".01" fill="#fff" opacity=".77" transform="rotate(162 79.077 10.216)"/><circle cx="79.652" cy="10.592" r=".035" fill="#fff" opacity=".88" transform="rotate(50 79.652 10.592)"/><circle cx="80.596" cy="10.205" r=".029" fill="#fff" opacity=".73" transform="rotate(97 80.596 10.205)"/><circle cx="78.296" cy="11.421" r=".029" fill="#fff" opacity=".76" transform="rotate(-172 78.296 11.42)"/><circle cx="79.503" cy="11.503" r=".036" fill="#fff" opacity=".84" transform="rotate(33 79.503 11.503)"/><circle cx="79.927" cy="11.298" r=".01" fill="#fff" opacity=".93" transform="rotate(94 79.927 11.298)"/><circle cx="80.46" cy="11.383" r=".035" fill="#fff" opacity=".99" transform="rotate(121 80.46 11.383)"/><circle cx="81.011" cy="11.474" r=".023" fill="#fff" opacity=".83" transform="rotate(94 81.011 11.474)"/><circle cx="78.171" cy="12.46" r=".021" fill="#fff" opacity=".9" transform="rotate(6 78.17 12.46)"/><circle cx="78.343" cy="12.497" r=".02" fill="#fff" opacity=".95" transform="rotate(-9 78.343 12.497)"/><circle cx="79.406" cy="11.858" r=".035" fill="#fff" opacity=".74" transform="rotate(108 79.406 11.858)"/><circle cx="80.164" cy="12.251" r=".025" fill="#fff" opacity=".89" transform="rotate(-94 80.164 12.25)"/><circle cx="80.375" cy="12.463" r=".02" fill="#fff" opacity=".87" transform="rotate(69 80.375 12.463)"/><circle cx="80.968" cy="11.873" r=".02" fill="#fff" opacity=".71" transform="rotate(138 80.968 11.873)"/><circle cx="78.049" cy="12.764" r=".044" fill="#fff" opacity=".79" transform="rotate(69 78.049 12.764)"/><circle cx="78.331" cy="12.584" r=".02" fill="#fff" opacity=".76" transform="rotate(140 78.331 12.584)"/><circle cx="79.165" cy="13.151" r=".026" fill="#fff" opacity=".97" transform="rotate(-140 79.165 13.151)"/><circle cx="79.982" cy="12.923" r=".012" fill="#fff" opacity=".92" transform="rotate(40 79.982 12.923)"/><circle cx="80.638" cy="13.101" r=".021" fill="#fff" opacity=".92" transform="rotate(144 80.638 13.1)"/><circle cx="81.291" cy="13.189" r=".01" fill="#fff" opacity=".86" transform="rotate(-39 81.291 13.189)"/><circle cx="81.952" cy="12.978" r=".01" fill="#fff" opacity=".92" transform="rotate(161 81.952 12.978)"/><circle cx="78.842" cy="13.556" r=".034" fill="#fff" opacity=".79" transform="rotate(-14 78.842 13.556)"/><circle cx="79.194" cy="13.842" r=".045" fill="#fff" opacity=".74" transform="rotate(107 79.194 13.842)"/><circle cx="79.566" cy="13.525" r=".01" fill="#fff" opacity=".76" transform="rotate(163 79.566 13.525)"/><circle cx="80.246" cy="14.237" r=".02" fill="#fff" opacity=".82" transform="rotate(-178 80.246 14.237)"/><circle cx="80.85" cy="13.727" r=".011" fill="#fff" opacity=".94" transform="rotate(-74 80.85 13.727)"/></g><defs><filter id="a" width="136.094" height="24.76" x="0" y="-.001" color-interpolation-filters="sRGB" filterUnits="userSpaceOnUse"><feFlood flood-opacity="0" result="BackgroundImageFix"/><feBlend in="SourceGraphic" in2="BackgroundImageFix" result="shape"/><feColorMatrix in="SourceAlpha" result="hardAlpha" values="0 0 0 0 0 0 0 0 0 0 0 0 0 0 0 0 0 0 127 0"/><feOffset dy=".757"/><feGaussianBlur stdDeviation=".757"/><feComposite in2="hardAlpha" k2="-1" k3="1" operator="arithmetic"/><feColorMatrix values="0 0 0 0 1 0 0 0 0 1 0 0 0 0 1 0 0 0 0.25 0"/><feBlend in2="shape" result="effect1_innerShadow_435_2317"/><feColorMatrix in="SourceAlpha" result="hardAlpha" values="0 0 0 0 0 0 0 0 0 0 0 0 0 0 0 0 0 0 127 0"/><feOffset/><feGaussianBlur stdDeviation=".284"/><feComposite in2="hardAlpha" k2="-1" k3="1" operator="arithmetic"/><feColorMatrix values="0 0 0 0 1 0 0 0 0 1 0 0 0 0 1 0 0 0 0.4 0"/><feBlend in2="effect1_innerShadow_435_2317" result="effect2_innerShadow_435_2317"/></filter><filter id="n" width="13.146" height="12.427" x="72.619" y="5.712" color-interpolation-filters="sRGB" filterUnits="userSpaceOnUse"><feFlood flood-opacity="0" result="BackgroundImageFix"/><feBlend in="SourceGraphic" in2="BackgroundImageFix" result="shape"/><feColorMatrix in="SourceAlpha" result="hardAlpha" values="0 0 0 0 0 0 0 0 0 0 0 0 0 0 0 0 0 0 127 0"/><feOffset dx="-1.232" dy=".205"/><feGaussianBlur stdDeviation="1.463"/><feComposite in2="hardAlpha" k2="-1" k3="1" operator="arithmetic"/><feColorMatrix values="0 0 0 0 0.490196 0 0 0 0 0.227451 0 0 0 0 0.972549 0 0 0 1 0"/><feBlend in2="shape" result="effect1_innerShadow_435_2317"/><feColorMatrix in="SourceAlpha" result="hardAlpha" values="0 0 0 0 0 0 0 0 0 0 0 0 0 0 0 0 0 0 127 0"/><feOffset dx="-1.232" dy=".205"/><feGaussianBlur stdDeviation="2.1"/><feComposite in2="hardAlpha" k2="-1" k3="1" operator="arithmetic"/><feColorMatrix values="0 0 0 0 0.196078 0 0 0 0 0.160784 0 0 0 0 0.654902 0 0 0 1 0"/><feBlend in2="effect1_innerShadow_435_2317" result="effect2_innerShadow_435_2317"/><feColorMatrix in="SourceAlpha" result="hardAlpha" values="0 0 0 0 0 0 0 0 0 0 0 0 0 0 0 0 0 0 127 0"/><feOffset dx="-.411" dy="-.616"/><feGaussianBlur stdDeviation=".837"/><feComposite in2="hardAlpha" k2="-1" k3="1" operator="arithmetic"/><feColorMatrix values="0 0 0 0 1 0 0 0 0 1 0 0 0 0 1 0 0 0 0.57 0"/><feBlend in2="effect2_innerShadow_435_2317" result="effect3_innerShadow_435_2317"/><feColorMatrix in="SourceAlpha" result="hardAlpha" values="0 0 0 0 0 0 0 0 0 0 0 0 0 0 0 0 0 0 127 0"/><feOffset dx=".308" dy=".205"/><feGaussianBlur stdDeviation=".401"/><feComposite in2="hardAlpha" k2="-1" k3="1" operator="arithmetic"/><feColorMatrix values="0 0 0 0 1 0 0 0 0 1 0 0 0 0 1 0 0 0 0.88 0"/><feBlend in2="effect3_innerShadow_435_2317" result="effect4_innerShadow_435_2317"/><feColorMatrix in="SourceAlpha" result="hardAlpha" values="0 0 0 0 0 0 0 0 0 0 0 0 0 0 0 0 0 0 127 0"/><feOffset dx=".103" dy=".103"/><feGaussianBlur stdDeviation=".108"/><feComposite in2="hardAlpha" k2="-1" k3="1" operator="arithmetic"/><feColorMatrix values="0 0 0 0 1 0 0 0 0 1 0 0 0 0 1 0 0 0 1 0"/><feBlend in2="effect4_innerShadow_435_2317" result="effect5_innerShadow_435_2317"/><feColorMatrix in="SourceAlpha" result="hardAlpha" values="0 0 0 0 0 0 0 0 0 0 0 0 0 0 0 0 0 0 127 0"/><feMorphology in="SourceAlpha" radius=".103" result="effect6_innerShadow_435_2317"/><feOffset dx="-.308" dy="-.103"/><feGaussianBlur stdDeviation=".416"/><feComposite in2="hardAlpha" k2="-1" k3="1" operator="arithmetic"/><feColorMatrix values="0 0 0 0 1 0 0 0 0 1 0 0 0 0 1 0 0 0 0.65 0"/><feBlend in2="effect5_innerShadow_435_2317" result="effect6_innerShadow_435_2317"/></filter><filter id="o" width="11.194" height="11.194" x="74.058" y="6.535" color-interpolation-filters="sRGB" filterUnits="userSpaceOnUse"><feFlood flood-opacity="0" result="BackgroundImageFix"/><feBlend in="SourceGraphic" in2="BackgroundImageFix" result="shape"/><feGaussianBlur result="effect1_foregroundBlur_435_2317" stdDeviation=".359"/></filter><filter id="q" width="11.605" height="11.958" x="73.852" y="6.328" color-interpolation-filters="sRGB" filterUnits="userSpaceOnUse"><feFlood flood-opacity="0" result="BackgroundImageFix"/><feBlend in="SourceGraphic" in2="BackgroundImageFix" result="shape"/><feColorMatrix in="SourceAlpha" result="hardAlpha" values="0 0 0 0 0 0 0 0 0 0 0 0 0 0 0 0 0 0 127 0"/><feMorphology in="SourceAlpha" radius=".177" result="effect1_innerShadow_435_2317"/><feOffset dy=".353"/><feGaussianBlur stdDeviation=".177"/><feComposite in2="hardAlpha" k2="-1" k3="1" operator="arithmetic"/><feColorMatrix values="0 0 0 0 0.137255 0 0 0 0 0.324471 0 0 0 0 0.988235 0 0 0 1 0"/><feBlend in2="shape" result="effect1_innerShadow_435_2317"/></filter><filter id="r" width="11.709" height="13.239" x="74.725" y="5.971" color-interpolation-filters="sRGB" filterUnits="userSpaceOnUse"><feFlood flood-opacity="0" result="BackgroundImageFix"/><feBlend in="SourceGraphic" in2="BackgroundImageFix" result="shape"/><feGaussianBlur result="effect1_foregroundBlur_435_2317" stdDeviation="1.104"/></filter><filter id="s" width="9.756" height="11.496" x="72.876" y="6.071" color-interpolation-filters="sRGB" filterUnits="userSpaceOnUse"><feFlood flood-opacity="0" result="BackgroundImageFix"/><feBlend in="SourceGraphic" in2="BackgroundImageFix" result="shape"/><feGaussianBlur result="effect1_foregroundBlur_435_2317" stdDeviation="1.207"/></filter><filter id="t" width="5.484" height="6.203" x="74.807" y="8.002" color-interpolation-filters="sRGB" filterUnits="userSpaceOnUse"><feFlood flood-opacity="0" result="BackgroundImageFix"/><feBlend in="SourceGraphic" in2="BackgroundImageFix" result="shape"/><feGaussianBlur result="effect1_foregroundBlur_435_2317" stdDeviation=".755"/></filter><filter id="u" width="11.939" height="9.948" x="73.236" y="8.998" color-interpolation-filters="sRGB" filterUnits="userSpaceOnUse"><feFlood flood-opacity="0" result="BackgroundImageFix"/><feBlend in="SourceGraphic" in2="BackgroundImageFix" result="shape"/><feGaussianBlur result="effect1_foregroundBlur_435_2317" stdDeviation=".976"/></filter><filter id="v" width="6.976" height="4.786" x="77.773" y="13.176" color-interpolation-filters="sRGB" filterUnits="userSpaceOnUse"><feFlood flood-opacity="0" result="BackgroundImageFix"/><feBlend in="SourceGraphic" in2="BackgroundImageFix" result="shape"/><feGaussianBlur result="effect1_foregroundBlur_435_2317" stdDeviation=".611"/></filter><filter id="w" width="4.299" height="4.695" x="75.342" y="11.512" color-interpolation-filters="sRGB" filterUnits="userSpaceOnUse"><feFlood flood-opacity="0" result="BackgroundImageFix"/><feBlend in="SourceGraphic" in2="BackgroundImageFix" result="shape"/><feGaussianBlur result="effect1_foregroundBlur_435_2317" stdDeviation=".621"/></filter><filter id="x" width="4.675" height="3.597" x="78.94" y="13.824" color-interpolation-filters="sRGB" filterUnits="userSpaceOnUse"><feFlood flood-opacity="0" result="BackgroundImageFix"/><feBlend in="SourceGraphic" in2="BackgroundImageFix" result="shape"/><feGaussianBlur result="effect1_foregroundBlur_435_2317" stdDeviation=".611"/></filter><filter id="y" width="7.248" height="6.138" x="78.068" y="10.631" color-interpolation-filters="sRGB" filterUnits="userSpaceOnUse"><feFlood flood-opacity="0" result="BackgroundImageFix"/><feBlend in="SourceGraphic" in2="BackgroundImageFix" result="shape"/><feGaussianBlur result="effect1_foregroundBlur_435_2317" stdDeviation=".734"/></filter><linearGradient id="b" x1="68.047" x2="68.047" y1="-3.001" y2="24.001" gradientUnits="userSpaceOnUse"><stop stop-color="#fff"/><stop offset=".85" stop-color="#fff" stop-opacity=".2"/></linearGradient><linearGradient id="c" x1="68.047" x2="68.047" y1="-3.001" y2="24.001" gradientUnits="userSpaceOnUse"><stop stop-color="#fff"/><stop offset=".85" stop-color="#fff" stop-opacity=".2"/></linearGradient><linearGradient id="d" x1="68.047" x2="68.047" y1="-3.001" y2="24.001" gradientUnits="userSpaceOnUse"><stop stop-color="#fff"/><stop offset=".85" stop-color="#fff" stop-opacity=".2"/></linearGradient><linearGradient id="e" x1="68.047" x2="68.047" y1="-3.001" y2="24.001" gradientUnits="userSpaceOnUse"><stop stop-color="#fff"/><stop offset=".85" stop-color="#fff" stop-opacity=".2"/></linearGradient><linearGradient id="f" x1="68.047" x2="68.047" y1="-3.001" y2="24.001" gradientUnits="userSpaceOnUse"><stop stop-color="#fff"/><stop offset=".85" stop-color="#fff" stop-opacity=".2"/></linearGradient><linearGradient id="g" x1="68.047" x2="68.047" y1="-3.001" y2="24.001" gradientUnits="userSpaceOnUse"><stop stop-color="#fff"/><stop offset=".85" stop-color="#fff" stop-opacity=".2"/></linearGradient><linearGradient id="h" x1="68.047" x2="68.047" y1="-3.001" y2="24.001" gradientUnits="userSpaceOnUse"><stop stop-color="#fff"/><stop offset=".85" stop-color="#fff" stop-opacity=".2"/></linearGradient><linearGradient id="i" x1="68.047" x2="68.047" y1="-3.001" y2="24.001" gradientUnits="userSpaceOnUse"><stop stop-color="#fff"/><stop offset=".85" stop-color="#fff" stop-opacity=".2"/></linearGradient><linearGradient id="j" x1="68.047" x2="68.047" y1="-3.001" y2="24.001" gradientUnits="userSpaceOnUse"><stop stop-color="#fff"/><stop offset=".85" stop-color="#fff" stop-opacity=".2"/></linearGradient><linearGradient id="l" x1="84.355" x2="84.355" y1="-2.501" y2="19.755" gradientUnits="userSpaceOnUse"><stop stop-color="#fff"/><stop offset="1" stop-color="#fff" stop-opacity=".3"/></linearGradient><linearGradient id="p" x1="80.772" x2="82.535" y1="13.425" y2="16.07" gradientUnits="userSpaceOnUse"><stop stop-color="#98A2FF" stop-opacity="0"/><stop offset="1" stop-color="#001BFF"/></linearGradient></defs></svg>